{
.appVersion = "3148";
.formatVersion = 3;
axes = (
{
name = Weight;
tag = wght;
},
{
name = Slant;
tag = slnt;
}
);
customParameters = (
{
name = "Variable Font Origin";
value = m01;
}
);
date = "2023-01-04 22:30:54 +0000";
familyName = "Uncut Sans";
featurePrefixes = (
{
automatic = 1;
code = "languagesystem DFLT dflt;

languagesystem latn dflt;
languagesystem latn AZE;
languagesystem latn CRT;
languagesystem latn KAZ;
languagesystem latn TAT;
languagesystem latn TRK;
languagesystem latn ROM;
languagesystem latn MOL;
languagesystem latn CAT;
languagesystem latn NLD;
";
name = Languagesystems;
}
);
features = (
{
automatic = 1;
code = "feature locl;
feature subs;
feature sinf;
feature sups;
feature numr;
feature dnom;
feature frac;
feature ordn;
feature pnum;
feature tnum;
feature case;
feature zero;
feature ss01;
feature ss02;
feature ss03;
feature ss04;
feature ss05;
feature ss06;
feature ss07;
feature ss08;
";
tag = aalt;
},
{
automatic = 1;
code = "lookup locl_latn_0 {
	script latn;
	language AZE;
	sub i by idotaccent;
	language CRT;
	sub i by idotaccent;
	language KAZ;
	sub i by idotaccent;
	language TAT;
	sub i by idotaccent;
	language TRK;
	sub i by idotaccent;
} locl_latn_0;

lookup locl_latn_1 {
	script latn;
	language ROM;
	sub Scedilla by Scommaaccent;
	sub scedilla by scommaaccent;
	sub Tcedilla by Tcommaaccent;
	sub tcedilla by tcommaaccent;
	language MOL;
	sub Scedilla by Scommaaccent;
	sub scedilla by scommaaccent;
	sub Tcedilla by Tcommaaccent;
	sub tcedilla by tcommaaccent;
} locl_latn_1;

lookup locl_latn_2 {
	script latn;
	language CAT;
	sub  l' periodcentered' l by ldot;
	sub  L' periodcentered' L by Ldot;
} locl_latn_2;

lookup locl_latn_3 {
	script latn;
	language NLD;
	sub iacute j' by jacute;
	sub Iacute J' by Jacute;
} locl_latn_3;
";
tag = locl;
},
{
automatic = 1;
code = "sub zero by zeroinferior;
sub one by oneinferior;
sub two by twoinferior;
sub three by threeinferior;
sub four by fourinferior;
sub five by fiveinferior;

glyphs = (
{
glyphname = A;
kernLeft = A;
kernRight = A;
lastChange = "2022-12-30 09:33:56 +0000";
layers = (
{
layerId = m01;
shapes = (
{
closed = 1;
nodes = (
(99,0,l),
(333,678,l),
(303,678,l),
(536,0,l),
(615,0,l),
(374,700,l),
(261,700,l),
(20,0,l)
);
},
{
closed = 1;
nodes = (
(474,226,l),
(474,299,l),
(161,299,l),
(161,226,l)
);
}
);
width = 635;
},
{
layerId = m005;
shapes = (
{
closed = 1;
nodes = (
(150,0,l),
(378,678,l),
(313,678,l),
(539,0,l),
(679,0,l),
(445,700,l),
(244,700,l),
(10,0,l)
);
},
{
closed = 1;
nodes = (
(531,206,l),
(531,319,l),
(158,319,l),
(158,206,l)
);
}
);
width = 689;
},
{
layerId = m007;
shapes = (
{
closed = 1;
nodes = (
(83,0,l),
(320,678,l),
(308,678,l),
(544,0,l),
(602,0,l),
(358,700,l),
(269,700,l),
(25,0,l)
);
},
{
closed = 1;
nodes = (
(475,236,l),
(475,289,l),
(152,289,l),
(152,236,l)
);
}
);
width = 627;
},
{
layerId = m004;
shapes = (
{
closed = 1;
nodes = (
(53,0,l),
(419,678,l),
(389,678,l),
(490,0,l),
(566,0,l),
(461,700,l),
(348,700,l),
(-29,0,l)
);
},
{
closed = 1;
nodes = (
(472,226,l),
(486,299,l),
(173,299,l),
(159,226,l)
);
}
);
width = 635;
},
{
layerId = m008;
shapes = (
{
closed = 1;
nodes = (
(106,0,l),
(466,678,l),
(401,678,l),
(495,0,l),
(630,0,l),
(532,700,l),
(331,700,l),
(-39,0,l)
);
},
{
closed = 1;
nodes = (
(527,206,l),
(549,319,l),
(176,319,l),
(154,206,l)
);
}
);
width = 689;
},
{
layerId = m006;
shapes = (
{
closed = 1;
nodes = (
(37,0,l),
(406,678,l),
(394,678,l),
(498,0,l),
(553,0,l),
(445,700,l),
(356,700,l),
(-24,0,l)
);
},
{
closed = 1;
nodes = (
(475,236,l),
(485,289,l),
(162,289,l),
(152,236,l)
);
}
);
width = 627;
}
);
unicode = 65;
},
{
glyphname = AE;
kernLeft = A;
kernRight = E;
lastChange = "2022-12-30 09:33:56 +0000";
layers = (
{
layerId = m01;
shapes = (
{
closed = 1;
nodes = (
(795,627,l),
(795,700,l),
(364,700,l),
(364,627,l)
);
},
{
ref = A;
},
{
closed = 1;
nodes = (
(795,0,l),
(795,73,l),
(549,73,l),
(549,0,l)
);
},
{
closed = 1;
nodes = (
(735,327,l),
(735,400,l),
(445,400,l),
(445,327,l)
);
}
);
width = 850;
},
{
layerId = m005;
shapes = (
{
closed = 1;
nodes = (
(825,587,l),
(825,700,l),
(415,700,l),
(415,587,l)
);
},
{
ref = A;
},
{
closed = 1;
nodes = (
(825,0,l),
(825,113,l),
(566,113,l),
(566,0,l)
);
},
{
closed = 1;
nodes = (
(765,307,l),
(765,420,l),
(495,420,l),
(495,307,l)
);
}
);
width = 870;
},
{
layerId = m007;
shapes = (
{
closed = 1;
nodes = (
(785,647,l),
(785,700,l),
(344,700,l),
(344,647,l)
);
},
{
ref = A;
},
{
closed = 1;
nodes = (
(785,0,l),
(785,53,l),
(559,53,l),
(559,0,l)
);
},
{
closed = 1;
nodes = (
(725,337,l),
(725,390,l),
(445,390,l),
(445,337,l)
);
}
);
width = 845;
},
{
layerId = m004;
shapes = (
{
closed = 1;
nodes = (
(849,627,l),
(863,700,l),
(432,700,l),
(418,627,l)
);
},
{
ref = A;
},
{
closed = 1;
nodes = (
(727,0,l),
(741,73,l),
(495,73,l),
(481,0,l)
);
},
{
closed = 1;
nodes = (
(731,327,l),
(745,400,l),
(455,400,l),
(441,327,l)
);
}
);
width = 831;
},
{
layerId = m008;
shapes = (
{
closed = 1;
nodes = (
(871,587,l),
(893,700,l),
(483,700,l),
(461,587,l)
);
},
{
ref = A;
},
{
closed = 1;
nodes = (
(757,0,l),
(779,113,l),
(520,113,l),
(498,0,l)
);
},
{
closed = 1;
nodes = (
(757,307,l),
(779,420,l),
(509,420,l),
(487,307,l)
);
}
);
width = 851;
},
{
layerId = m006;
shapes = (
{
closed = 1;
nodes = (
(843,647,l),
(853,700,l),
(412,700,l),
(402,647,l)
);
},
{
ref = A;
},
{
closed = 1;
nodes = (
(717,0,l),
(727,53,l),
(501,53,l),
(491,0,l)
);
},
{
closed = 1;
nodes = (
(722,337,l),
(733,390,l),
(453,390,l),
(442,337,l)
);
}
);
width = 826;
}
);
metricLeft = A;
metricRight = E;
unicode = 198;
},
{
glyphname = B;
kernLeft = H;
kernRight = B;
lastChange = "2023-01-04 22:25:34 +0000";
layers = (
{
layerId = m01;
shapes = (
{
closed = 1;
nodes = (
(315,0,ls),
(444,0,o),
(536,81,o),
(536,196,cs),
(536,296,o),
(467,362,o),
(364,362,c),
(368,358,l),
(444,358,o),
(496,420,o),
(496,510,cs),
(496,626,o),
(409,700,o),
(275,700,cs),
(85,700,l),
(85,0,l)
);
},
{
closed = 1;
nodes = (
(158,319,l),
(315,319,ls),
(400,319,o),
(458,269,o),
(458,196,cs),
(458,123,o),
(400,73,o),
(315,73,cs),
(158,73,l)
);
},
{
closed = 1;
nodes = (
(158,627,l),
(275,627,ls),
(361,627,o),
(418,580,o),
(418,510,cs),
(418,440,o),
(360,392,o),
(275,392,cs),
(158,392,l)
);
}
);
width = 596;
},
{
layerId = m005;
shapes = (
{
closed = 1;
nodes = (
(315,0,ls),
(481,0,o),
(586,80,o),
(586,206,cs),
(586,308,o),
(516,369,o),
(401,369,c),
(405,354,l),
(493,354,o),
(546,408,o),
(546,500,cs),
(546,626,o),
(446,700,o),
(275,700,cs),
(75,700,l),
(75,0,l)
);
},
{
closed = 1;
nodes = (
(208,299,l),
(315,299,ls),
(405,299,o),
(448,269,o),
(448,206,cs),
(448,143,o),
(405,113,o),
(315,113,cs),
(208,113,l)
);
},
{
closed = 1;
nodes = (
(208,587,l),
(275,587,ls),
(368,587,o),
(408,561,o),
(408,500,cs),
(408,438,o),
(367,411,o),
(275,411,cs),
(208,411,l)
);
}
);
width = 636;
},
{
layerId = m007;
shapes = (
{
closed = 1;
nodes = (
(300,0,ls),
(435,0,o),
(521,75,o),
(521,191,cs),
(521,297,o),
(449,361,o),
(331,361,c),
(336,357,l),
(421,357,o),
(481,423,o),
(481,515,cs),
(481,627,o),
(393,700,o),
(260,700,cs),
(90,700,l),
(90,0,l)
);
},
{
closed = 1;
nodes = (
(143,329,l),
(300,329,ls),
(404,329,o),
(463,279,o),
(463,191,cs),
(463,103,o),
(404,53,o),
(300,53,cs),
(143,53,l)
);
},
{
closed = 1;
nodes = (
(143,647,l),
(260,647,ls),
(365,647,o),
(423,600,o),
(423,515,cs),
(423,430,o),
(365,382,o),
(260,382,cs),
(143,382,l)
);
}
);
width = 586;
},
{
layerId = m004;
shapes = (
{
closed = 1;
nodes = (
(266,0,ls),
(428,0,o),
(523,74,o),
(523,201,cs),
(523,299,o),
(467,361,o),
(380,361,c),
(378,358,l),
(478,358,o),
(545,426,o),
(545,526,cs),
(545,634,o),
(468,700,o),
(342,700,cs),
(172,700,l),
(36,0,l)
);
},
{
closed = 1;
nodes = (
(171,319,l),
(318,319,ls),
(395,319,o),
(447,271,o),
(447,199,cs),
(447,119,o),
(383,73,o),
(270,73,cs),
(123,73,l)
);
},
{
closed = 1;
nodes = (
(231,627,l),
(338,627,ls),
(419,627,o),
(467,587,o),
(467,521,cs),
(467,442,o),
(399,392,o),
(292,392,cs),
(185,392,l)
);
}
);
width = 597;
},
{
layerId = m008;
shapes = (
{
closed = 1;
nodes = (
(286,0,ls),
(467,0,o),
(572,79,o),
(572,214,cs),
(572,309,o),
(519,364,o),
(428,364,c),
(435,353,l),
(528,353,o),
(594,421,o),
(594,519,cs),
(594,632,o),
(506,700,o),
(362,700,cs),
(162,700,l),
(26,0,l)
);
},
{
closed = 1;
nodes = (
(217,299,l),
(324,299,ls),
(398,299,o),
(438,270,o),
(438,215,cs),
(438,151,o),
(382,113,o),
(288,113,cs),
(181,113,l)
);
},
{
closed = 1;
nodes = (
(273,587,l),
(340,587,ls),
(414,587,o),
(455,558,o),
(455,506,cs),
(455,446,o),
(400,411,o),
(306,411,cs),
(239,411,l)
);
}
);
width = 633;
},
{
layerId = m006;
shapes = (
{
closed = 1;
nodes = (
(251,0,ls),
(408,0,o),
(507,80,o),
(507,205,cs),
(507,301,o),
(449,361,o),
(354,361,c),
(355,357,l),
(459,357,o),
(532,429,o),
(532,533,cs),
(532,636,o),
(461,700,o),
(347,700,cs),
(177,700,l),
(41,0,l)
);
},
{
closed = 1;
nodes = (
(158,329,l),
(315,329,ls),
(398,329,o),
(450,282,o),
(450,205,cs),
(450,113,o),
(375,53,o),
(261,53,cs),
(104,53,l)
);
},
{
closed = 1;
nodes = (
(220,647,l),
(337,647,ls),
(421,647,o),
(473,601,o),
(473,528,cs),
(473,440,o),
(398,382,o),
(285,382,cs),
(168,382,l)
);
}
);
width = 585;
}
);
metricLeft = H;
unicode = 66;
},
{
glyphname = C;
kernLeft = O;
kernRight = O;
lastChange = "2022-12-31 10:57:17 +0000";
layers = (
{
layerId = m01;
shapes = (
{
closed = 1;
nodes = (
(543,-16,o),
(660,96,o),
(677,267,c),
(598,277,l),
(586,144,o),
(501,57,o),
(382,57,cs),
(240,57,o),
(138,180,o),
(138,350,cs),
(138,519,o),
(241,642,o),
(382,642,cs),
(500,642,o),
(582,556,o),
(597,418,c),
(677,428,l),
(661,601,o),
(544,716,o),
(382,716,cs),
(194,716,o),
(60,563,o),
(60,350,cs),
(60,137,o),
(194,-16,o),
(382,-16,cs)
);
}
);
width = 742;
},
{
layerId = m005;
shapes = (
{
closed = 1;
nodes = (
(584,-16,o),
(715,103,o),
(719,273,c),
(581,283,l),
(575,169,o),
(506,97,o),
(402,97,cs),
(277,97,o),
(188,203,o),
(188,350,cs),
(188,497,o),
(277,602,o),
(402,602,cs),
(506,602,o),
(575,529,o),
(581,412,c),
(719,422,l),
(715,595,o),
(585,716,o),
(402,716,cs),
(197,716,o),
(50,564,o),
(50,350,cs),
(50,136,o),
(197,-16,o),
(402,-16,cs)
);
}
);
width = 774;
},
{
layerId = m007;
shapes = (
{
closed = 1;
nodes = (
(530,-16,o),
(642,92,o),
(661,258,c),
(602,266,l),
(585,125,o),
(499,37,o),
(377,37,cs),
(230,37,o),
(123,168,o),
(123,350,cs),
(123,531,o),
(230,662,o),
(377,662,cs),
(496,662,o),
(580,575,o),
(601,428,c),
(661,437,l),
(642,607,o),
(531,716,o),
(377,716,cs),
(195,716,o),
(65,563,o),
(65,350,cs),
(65,137,o),
(195,-16,o),
(377,-16,cs)
);
}
);
width = 731;
},
{
layerId = m004;
shapes = (
{
closed = 1;
nodes = (
(500,-16,o),
(628,93,o),
(680,267,c),
(603,277,l),
(566,144,o),
(467,57,o),
(355,57,cs),
(231,57,o),
(157,147,o),
(157,298,cs),
(157,489,o),
(280,642,o),
(433,642,cs),
(550,642,o),
(631,554,o),
(639,417,c),
(721,427,l),
(715,598,o),
(597,716,o),
(432,716,cs),
(235,716,o),
(79,530,o),
(79,296,cs),
(79,107,o),
(185,-16,o),
(348,-16,cs)
);
}
);
width = 752;
},
{
layerId = m008;
shapes = (
{
closed = 1;
nodes = (
(559,-16,o),
(686,89,o),
(733,273,c),
(597,284,l),
(560,157,o),
(495,97,o),
(392,97,cs),
(273,97,o),
(205,168,o),
(205,293,cs),
(205,462,o),
(317,602,o),
(453,602,cs),
(555,602,o),
(625,526,o),
(628,412,c),
(769,422,l),
(771,591,o),
(641,716,o),
(464,716,cs),
(248,716,o),
(67,523,o),
(67,293,cs),
(67,107,o),
(193,-16,o),
(384,-16,cs)
);
}
);
width = 791;
},
{
layerId = m006;
shapes = (
{
closed = 1;
nodes = (
(494,-16,o),
(623,94,o),
(667,259,c),
(610,266,l),
(559,124,o),
(461,37,o),
(350,37,cs),
(221,37,o),
(142,136,o),
(142,298,cs),
(142,501,o),
(268,662,o),
(428,662,cs),
(548,662,o),
(632,571,o),
(643,428,c),
(706,436,l),
(699,602,o),
(585,716,o),
(427,716,cs),
(235,716,o),
(84,532,o),
(84,296,cs),
(84,104,o),
(183,-16,o),
(343,-16,cs)
);
}
);
width = 740;
}
);
metricLeft = O;
metricRight = "=O+5";
unicode = 67;
},
{
glyphname = D;
kernLeft = H;
kernRight = O;
lastChange = "2023-01-04 22:25:34 +0000";
layers = (
{
layerId = m01;
shapes = (
{
closed = 1;
nodes = (
(285,0,ls),
(494,0,o),
(603,120,o),
(603,350,cs),
(603,580,o),
(494,700,o),
(285,700,cs),
(85,700,l),
(85,0,l)
);
},
{
closed = 1;
nodes = (
(163,627,l),
(285,627,ls),
(447,627,o),
(525,537,o),
(525,350,cs),
(525,163,o),
(447,73,o),
(285,73,cs),
(163,73,l)
);
}
);
width = 663;
},
{
layerId = m005;
shapes = (
{
closed = 1;
nodes = (
(305,0,ls),
(533,0,o),
(653,120,o),
(653,350,cs),
(653,580,o),
(533,700,o),
(305,700,cs),
(75,700,l),
(75,0,l)
);
},
{
closed = 1;
nodes = (
(213,587,l),
(305,587,ls),
(455,587,o),
(515,519,o),
(515,350,cs),
(515,181,o),
(455,113,o),
(305,113,cs),
(213,113,l)
);
}
);
width = 703;
},
{
layerId = m007;
shapes = (
{
closed = 1;
nodes = (
(280,0,ls),
(486,0,o),
(588,116,o),
(588,350,cs),
(588,584,o),
(486,700,o),
(280,700,cs),
(90,700,l),
(90,0,l)
);
},
{
closed = 1;
nodes = (
(148,647,l),
(280,647,ls),
(449,647,o),
(530,551,o),
(530,350,cs),
(530,149,o),
(449,53,o),
(280,53,cs),
(148,53,l)
);
}
);
width = 653;
},
{
layerId = m004;
shapes = (
{
closed = 1;
nodes = (
(250,0,ls),
(463,0,o),
(619,166,o),
(619,394,cs),
(619,580,o),
(516,700,o),
(358,700,cs),
(172,700,l),
(36,0,l)
);
},
{
closed = 1;
nodes = (
(236,627,l),
(358,627,ls),
(472,627,o),
(543,539,o),
(543,397,cs),
(543,209,o),
(420,73,o),
(250,73,cs),
(128,73,l)
);
}
);
width = 660;
},
{
layerId = m008;
shapes = (
{
closed = 1;
nodes = (
(276,0,ls),
(478,0,o),
(625,120,o),
(665,319,cs),
(708,538,o),
(592,700,o),
(392,700,cs),
(162,700,l),
(26,0,l)
);
},
{
closed = 1;
nodes = (
(278,587,l),
(370,587,ls),
(498,587,o),
(563,491,o),
(534,346,cs),
(505,202,o),
(404,113,o),
(268,113,cs),
(186,113,l)
);
}
);
width = 702;
},
{
layerId = m006;
shapes = (
{
closed = 1;
nodes = (
(241,0,ls),
(448,0,o),
(604,171,o),
(604,398,cs),
(604,579,o),
(505,700,o),
(357,700,cs),
(177,700,l),
(41,0,l)
);
},
{
closed = 1;
nodes = (
(225,647,l),
(357,647,ls),
(471,647,o),
(547,548,o),
(547,399,cs),
(547,202,o),
(416,53,o),
(241,53,cs),
(109,53,l)
);
}
);
width = 649;
}
);
metricLeft = H;
metricRight = O;
unicode = 68;
},
{
glyphname = Eth;
kernLeft = H;
kernRight = O;
lastChange = "2022-12-31 10:20:28 +0000";
layers = (
{
layerId = m01;
shapes = (
{
closed = 1;
nodes = (
(315,320,l),
(315,380,l),
(15,380,l),
(15,320,l)
);
},
{
ref = D;
}
);
width = 663;
},
{
layerId = m005;
shapes = (
{
closed = 1;
nodes = (
(325,305,l),
(325,395,l),
(5,395,l),
(5,305,l)
);
},
{
pos = (-5,0);
ref = D;
}
);
width = 698;
},
{
layerId = m007;
shapes = (
{
closed = 1;
nodes = (
(310,330,l),
(310,370,l),
(20,370,l),
(20,330,l)
);
},
{
ref = D;
}
);
width = 653;
},
{
layerId = m004;
shapes = (
{
closed = 1;
nodes = (
(329,320,l),
(341,380,l),
(41,380,l),
(29,320,l)
);
},
{
pos = (20,0);
ref = D;
}
);
width = 680;
},
{
layerId = m008;
shapes = (
{
closed = 1;
nodes = (
(336,305,l),
(354,395,l),
(34,395,l),
(16,305,l)
);
},
{
pos = (15,0);
ref = D;
}
);
width = 717;
},
{
layerId = m006;
shapes = (
{
closed = 1;
nodes = (
(326,330,l),
(334,370,l),
(44,370,l),
(36,330,l)
);
},
{
pos = (20,0);
ref = D;
}
);
width = 669;
}
);
metricLeft = "=D-70";
metricRight = D;
unicode = 208;
},
{
glyphname = Dcroat;
kernLeft = H;
kernRight = O;
lastChange = "2022-12-31 10:20:28 +0000";
layers = (
{
layerId = m01;
shapes = (
{
closed = 1;
nodes = (
(305,323,l),
(305,377,l),
(15,377,l),
(15,323,l)
);
},
{
pos = (20,0);
ref = D;
}
);
width = 683;
},
{
layerId = m005;
shapes = (
{
closed = 1;
nodes = (
(333,294,l),
(333,407,l),
(5,407,l),
(5,294,l)
);
},
{
pos = (15,0);
ref = D;
}
);
width = 718;
},
{
layerId = m007;
shapes = (
{
closed = 1;
nodes = (
(310,330,l),
(310,370,l),
(20,370,l),
(20,330,l)
);
},
{
pos = (15,0);
ref = D;
}
);
width = 668;
},
{
layerId = m004;
shapes = (
{
closed = 1;
nodes = (
(320,323,l),
(330,377,l),
(40,377,l),
(30,323,l)
);
},
{
pos = (40,0);
ref = D;
}
);
width = 700;
},
{
layerId = m008;
shapes = (
{
closed = 1;
nodes = (
(336,305,l),
(354,395,l),
(34,395,l),
(16,305,l)
);
},
{
pos = (35,0);
ref = D;
}
);
width = 737;
},
{
layerId = m006;
shapes = (
{
closed = 1;
nodes = (
(326,330,l),
(334,370,l),
(44,370,l),
(36,330,l)
);
},
{
pos = (35,0);
ref = D;
}
);
width = 684;
}
);
metricLeft = "=D-70";
metricRight = D;
unicode = 272;
},
{
glyphname = E;
kernLeft = H;
kernRight = E;
lastChange = "2023-01-04 22:25:23 +0000";
layers = (
{
layerId = m01;
shapes = (
{
closed = 1;
nodes = (
(493,0,l),
(493,73,l),
(163,73,l),
(163,327,l),
(433,327,l),
(433,400,l),
(163,400,l),
(163,627,l),
(493,627,l),
(493,700,l),
(85,700,l),
(85,0,l)
);
}
);
width = 548;
},
{
layerId = m005;
shapes = (
{
closed = 1;
nodes = (
(543,0,l),
(543,113,l),
(213,113,l),
(213,307,l),
(483,307,l),
(483,420,l),
(213,420,l),
(213,587,l),
(543,587,l),
(543,700,l),
(75,700,l),
(75,0,l)
);
}
);
width = 588;
},
{
layerId = m007;
shapes = (
{
closed = 1;
nodes = (
(478,0,l),
(478,53,l),
(148,53,l),
(148,337,l),
(418,337,l),
(418,390,l),
(148,390,l),
(148,647,l),
(478,647,l),
(478,700,l),
(90,700,l),
(90,0,l)
);
}
);
width = 538;
},
{
layerId = m004;
shapes = (
{
closed = 1;
nodes = (
(444,0,l),
(458,73,l),
(128,73,l),
(178,327,l),
(448,327,l),
(462,400,l),
(192,400,l),
(236,627,l),
(566,627,l),
(580,700,l),
(172,700,l),
(36,0,l)
);
}
);
width = 548;
},
{
layerId = m008;
shapes = (
{
closed = 1;
nodes = (
(494,0,l),
(516,113,l),
(186,113,l),
(224,307,l),
(494,307,l),
(516,420,l),
(246,420,l),
(278,587,l),
(608,587,l),
(630,700,l),
(162,700,l),
(26,0,l)
);
}
);
width = 588;
},
{
layerId = m006;
shapes = (
{
closed = 1;
nodes = (
(429,0,l),
(439,53,l),
(109,53,l),
(164,337,l),
(434,337,l),
(445,390,l),
(175,390,l),
(225,647,l),
(555,647,l),
(565,700,l),
(177,700,l),
(41,0,l)
);
}
);
width = 538;
}
);
metricLeft = H;
unicode = 69;
},
{
glyphname = F;
kernLeft = H;
kernRight = F;
lastChange = "2023-01-04 22:25:23 +0000";
layers = (
{
layerId = m01;
shapes = (
{
closed = 1;
nodes = (
(163,0,l),
(163,327,l),
(443,327,l),
(443,400,l),
(163,400,l),
(163,627,l),
(493,627,l),
(493,700,l),
(85,700,l),
(85,0,l)
);
}
);
width = 533;
},
{
layerId = m005;
shapes = (
{
closed = 1;
nodes = (
(213,0,l),
(213,307,l),
(493,307,l),
(493,420,l),
(213,420,l),
(213,587,l),
(543,587,l),
(543,700,l),
(75,700,l),
(75,0,l)
);
}
);
width = 573;
},
{
layerId = m007;
shapes = (
{
closed = 1;
nodes = (
(148,0,l),
(148,337,l),
(428,337,l),
(428,390,l),
(148,390,l),
(148,647,l),
(478,647,l),
(478,700,l),
(90,700,l),
(90,0,l)
);
}
);
width = 523;
},
{
layerId = m004;
shapes = (
{
closed = 1;
nodes = (
(114,0,l),
(178,327,l),
(458,327,l),
(472,400,l),
(192,400,l),
(236,627,l),
(566,627,l),
(580,700,l),
(172,700,l),
(36,0,l)
);
}
);
width = 533;
},
{
layerId = m008;
shapes = (
{
closed = 1;
nodes = (
(160,0,l),
(221,307,l),
(504,307,l),
(526,420,l),
(244,420,l),
(277,587,l),
(608,587,l),
(630,700,l),
(162,700,l),
(26,0,l)
);
}
);
width = 573;
},
{
layerId = m006;
shapes = (
{
closed = 1;
nodes = (
(99,0,l),
(164,337,l),
(444,337,l),
(455,390,l),
(175,390,l),
(225,647,l),
(555,647,l),
(565,700,l),
(177,700,l),
(41,0,l)
);
}
);
width = 523;
}
);
metricLeft = H;
unicode = 70;
},
{
glyphname = G;
kernLeft = O;
kernRight = G;
lastChange = "2022-12-31 10:57:03 +0000";
layers = (
{
layerId = m01;
shapes = (
{
closed = 1;
nodes = (
(553,-16,o),
(665,114,o),
(665,311,c),
(657,262,l),
(642,0,l),
(715,0,l),
(715,354,l),
(387,354,l),
(387,281,l),
(630,281,l),
(610,148,o),
(509,57,o),
(382,57,cs),
(237,57,o),
(138,176,o),
(138,350,cs),
(138,524,o),
(237,642,o),
(382,642,cs),
(509,642,o),
(604,551,o),
(612,421,c),
(690,431,l),
(678,597,o),
(551,715,o),
(382,715,cs),
(193,715,o),
(60,564,o),
(60,350,cs),
(60,138,o),
(195,-16,o),
(382,-16,cs)
);
}
);
width = 785;
},
{
layerId = m005;
shapes = (
{
closed = 1;
nodes = (
(574,-16,o),
(676,98,o),
(685,301,c),
(665,291,l),
(631,0,l),
(765,0,l),
(765,354,l),
(377,354,l),
(377,241,l),
(615,241,l),
(603,159,o),
(511,97,o),
(402,97,cs),
(270,97,o),
(188,194,o),
(188,350,cs),
(188,505,o),
(270,602,o),
(402,602,cs),
(515,602,o),
(596,531,o),
(602,425,c),
(741,435,l),
(736,596,o),
(592,715,o),
(402,715,cs),
(195,715,o),
(50,564,o),
(50,350,cs),
(50,140,o),
(200,-16,o),
(402,-16,cs)
);
}
);
width = 825;
},
{
layerId = m007;
shapes = (
{
closed = 1;
nodes = (
(541,-16,o),
(654,107,o),
(670,301,c),
(662,309,l),
(648,0,l),
(700,0,l),
(700,344,l),
(392,344,l),
(392,291,l),
(636,291,l),
(620,141,o),
(513,37,o),
(377,37,cs),
(227,37,o),
(123,165,o),
(123,350,cs),
(123,535,o),
(226,662,o),
(377,662,cs),
(506,662,o),
(602,570,o),
(616,432,c),
(674,440,l),
(657,603,o),
(536,715,o),
(377,715,cs),
(194,715,o),
(65,564,o),
(65,350,cs),
(65,136,o),
(195,-16,o),
(377,-16,cs)
);
}
);
width = 775;
},
{
layerId = m004;
shapes = (
{
closed = 1;
nodes = (
(502,-16,o),
(636,116,o),
(674,311,c),
(657,262,l),
(591,0,l),
(664,0,l),
(733,354,l),
(405,354,l),
(391,281,l),
(634,281,l),
(587,147,o),
(476,57,o),
(356,57,cs),
(230,57,o),
(155,144,o),
(155,290,cs),
(155,482,o),
(293,642,o),
(460,642,cs),
(581,642,o),
(661,555,o),
(663,421,c),
(743,431,l),
(738,604,o),
(629,715,o),
(464,715,cs),
(249,715,o),
(77,528,o),
(77,295,cs),
(77,109,o),
(182,-16,o),
(340,-16,cs)
);
}
);
width = 783;
},
{
layerId = m008;
shapes = (
{
closed = 1;
nodes = (
(511,-16,o),
(626,92,o),
(671,287,c),
(645,245,l),
(574,0,l),
(708,0,l),
(785,354,l),
(397,354,l),
(375,241,l),
(613,241,l),
(548,146,o),
(464,97,o),
(367,97,cs),
(257,97,o),
(203,158,o),
(203,280,cs),
(203,460,o),
(319,602,o),
(466,602,cs),
(572,602,o),
(646,530,o),
(651,424,c),
(791,434,l),
(783,598,o),
(651,715,o),
(474,715,cs),
(249,715,o),
(65,521,o),
(65,285,cs),
(65,103,o),
(177,-16,o),
(348,-16,cs)
);
}
);
width = 825;
},
{
layerId = m006;
shapes = (
{
closed = 1;
nodes = (
(501,-16,o),
(629,103,o),
(683,298,c),
(657,249,l),
(598,0,l),
(650,0,l),
(715,334,l),
(407,334,l),
(397,281,l),
(642,281,l),
(596,132,o),
(486,37,o),
(360,37,cs),
(222,37,o),
(139,130,o),
(139,287,cs),
(139,490,o),
(283,662,o),
(453,662,cs),
(576,662,o),
(659,573,o),
(667,432,c),
(727,440,l),
(719,609,o),
(615,715,o),
(459,715,cs),
(252,715,o),
(81,521,o),
(81,286,cs),
(81,105,o),
(186,-16,o),
(345,-16,cs)
);
}
);
width = 774;
}
);
metricLeft = O;
metricRight = "=H-15";
unicode = 71;
},
{
glyphname = H;
kernLeft = H;
kernRight = H;
lastChange = "2023-01-04 22:25:23 +0000";
layers = (
{
layerId = m01;
shapes = (
{
closed = 1;
nodes = (
(163,0,l),
(163,327,l),
(503,327,l),
(503,0,l),
(581,0,l),
(581,700,l),
(503,700,l),
(503,400,l),
(163,400,l),
(163,700,l),
(85,700,l),
(85,0,l)
);
}
);
width = 666;
},
{
layerId = m005;
shapes = (
{
closed = 1;
nodes = (
(213,0,l),
(213,307,l),
(493,307,l),
(493,0,l),
(631,0,l),
(631,700,l),
(493,700,l),
(493,420,l),
(213,420,l),
(213,700,l),
(75,700,l),
(75,0,l)
);
}
);
width = 706;
},
{
layerId = m007;
shapes = (
{
closed = 1;
nodes = (
(148,0,l),
(148,337,l),
(508,337,l),
(508,0,l),
(566,0,l),
(566,700,l),
(508,700,l),
(508,390,l),
(148,390,l),
(148,700,l),
(90,700,l),
(90,0,l)
);
}
);
width = 656;
},
{
layerId = m004;
shapes = (
{
closed = 1;
nodes = (
(114,0,l),
(178,327,l),
(518,327,l),
(454,0,l),
(532,0,l),
(668,700,l),
(590,700,l),
(532,400,l),
(192,400,l),
(250,700,l),
(172,700,l),
(36,0,l)
);
}
);
width = 666;
},
{
layerId = m008;
shapes = (
{
closed = 1;
nodes = (
(164,0,l),
(224,307,l),
(504,307,l),
(444,0,l),
(582,0,l),
(718,700,l),
(580,700,l),
(526,420,l),
(246,420,l),
(300,700,l),
(162,700,l),
(26,0,l)
);
}
);
width = 706;
},
{
layerId = m006;
shapes = (
{
closed = 1;
nodes = (
(99,0,l),
(164,337,l),
(524,337,l),
(459,0,l),
(517,0,l),
(653,700,l),
(595,700,l),
(535,390,l),
(175,390,l),
(235,700,l),
(177,700,l),
(41,0,l)
);
}
);
width = 656;
}
);
unicode = 72;
},
{
glyphname = Hbar;
kernLeft = H;
kernRight = H;
lastChange = "2022-12-30 09:33:56 +0000";
layers = (
{
layerId = m01;
shapes = (
{
closed = 1;
nodes = (
(656,530,l),
(656,590,l),
(20,590,l),
(20,530,l)
);
},
{
pos = (5,0);
ref = H;
}
);
width = 676;
},
{
layerId = m005;
shapes = (
{
closed = 1;
nodes = (
(676,520,l),
(676,600,l),
(10,600,l),
(10,520,l)
);
},
{
pos = (-10,0);
ref = H;
}
);
width = 686;
},
{
layerId = m007;
shapes = (
{
closed = 1;
nodes = (
(641,540,l),
(641,580,l),
(25,580,l),
(25,540,l)
);
},
{
pos = (5,0);
ref = H;
}
);
width = 666;
},
{
layerId = m004;
shapes = (
{
closed = 1;
nodes = (
(710,530,l),
(722,590,l),
(86,590,l),
(74,530,l)
);
},
{
pos = (9,0);
ref = H;
}
);
width = 676;
},
{
layerId = m008;
shapes = (
{
closed = 1;
nodes = (
(718,520,l),
(734,600,l),
(78,600,l),
(62,520,l)
);
},
{
pos = (-11,0);
ref = H;
}
);
width = 676;
},
{
layerId = m006;
shapes = (
{
closed = 1;
nodes = (
(697,540,l),
(705,580,l),
(89,580,l),
(81,540,l)
);
},
{
pos = (9,0);
ref = H;
}
);
width = 666;
}
);
metricLeft = "=H-65";
metricRight = "=H-65";
unicode = 294;
},
{
glyphname = I;
kernLeft = H;
kernRight = H;
lastChange = "2022-12-30 09:33:56 +0000";
layers = (
{
layerId = m01;
shapes = (
{
closed = 1;
nodes = (
(163,0,l),
(163,700,l),
(85,700,l),
(85,0,l)
);
}
);
width = 248;
},
{
layerId = m005;
shapes = (
{
closed = 1;
nodes = (
(213,0,l),
(213,700,l),
(75,700,l),
(75,0,l)
);
}
);
width = 288;
},
{
layerId = m007;
shapes = (
{
closed = 1;
nodes = (
(148,0,l),
(148,700,l),
(90,700,l),
(90,0,l)
);
}
);
width = 238;
},
{
layerId = m004;
shapes = (
{
closed = 1;
nodes = (
(114,0,l),
(250,700,l),
(172,700,l),
(36,0,l)
);
}
);
width = 248;
},
{
layerId = m008;
shapes = (
{
closed = 1;
nodes = (
(164,0,l),
(300,700,l),
(162,700,l),
(26,0,l)
);
}
);
width = 288;
},
{
layerId = m006;
shapes = (
{
closed = 1;
nodes = (
(99,0,l),
(235,700,l),
(177,700,l),
(41,0,l)
);
}
);
width = 238;
}
);
metricLeft = H;
metricRight = H;
unicode = 73;
},
{
glyphname = J;
kernLeft = J;
kernRight = U;
lastChange = "2022-12-31 10:57:57 +0000";
layers = (
{
layerId = m01;
shapes = (
{
closed = 1;
nodes = (
(389,-16,o),
(475,75,o),
(475,212,cs),
(475,700,l),
(397,700,l),
(397,212,ls),
(397,119,o),
(342,57,o),
(258,57,cs),
(174,57,o),
(118,119,o),
(118,212,cs),
(118,270,l),
(40,270,l),
(40,212,ls),
(40,75,o),
(127,-16,o),
(258,-16,cs)
);
}
);
width = 555;
},
{
layerId = m005;
shapes = (
{
closed = 1;
nodes = (
(425,-16,o),
(525,85,o),
(525,232,cs),
(525,700,l),
(387,700,l),
(387,232,ls),
(387,150,o),
(344,97,o),
(278,97,cs),
(212,97,o),
(168,151,o),
(168,232,cs),
(168,270,l),
(30,270,l),
(30,232,ls),
(30,85,o),
(131,-16,o),
(278,-16,cs)
);
}
);
width = 595;
},
{
layerId = m007;
shapes = (
{
closed = 1;
nodes = (
(384,-16,o),
(460,64,o),
(460,202,cs),
(460,700,l),
(402,700,l),
(402,202,ls),
(402,97,o),
(348,37,o),
(253,37,cs),
(158,37,o),
(103,98,o),
(103,202,cs),
(103,270,l),
(45,270,l),
(45,202,ls),
(45,64,o),
(121,-16,o),
(253,-16,cs)
);
}
);
width = 545;
},
{
layerId = m004;
shapes = (
{
closed = 1;
nodes = (
(357,-16,o),
(440,66,o),
(468,212,cs),
(563,700,l),
(485,700,l),
(390,212,ls),
(370,113,o),
(315,57,o),
(237,57,cs),
(150,57,o),
(95,124,o),
(111,212,cs),
(122,270,l),
(44,270,l),
(33,212,ls),
(10,86,o),
(101,-16,o),
(237,-16,cs)
);
}
);
width = 556;
},
{
layerId = m008;
shapes = (
{
closed = 1;
nodes = (
(398,-16,o),
(492,76,o),
(524,242,cs),
(613,700,l),
(475,700,l),
(386,242,ls),
(368,147,o),
(325,97,o),
(263,97,cs),
(193,97,o),
(152,159,o),
(167,242,cs),
(172,270,l),
(34,270,l),
(29,242,ls),
(3,99,o),
(105,-16,o),
(260,-16,cs)
);
}
);
width = 596;
},
{
layerId = m006;
shapes = (
{
closed = 1;
nodes = (
(338,-16,o),
(423,64,o),
(451,202,cs),
(548,700,l),
(490,700,l),
(393,202,ls),
(373,100,o),
(308,37,o),
(221,37,cs),
(129,37,o),
(75,108,o),
(94,202,cs),
(107,270,l),
(49,270,l),
(36,202,ls),
(13,79,o),
(95,-16,o),
(222,-16,cs)
);
}
);
width = 546;
}
);
unicode = 74;
},
{
glyphname = K;
kernLeft = H;
kernRight = K;
lastChange = "2022-12-30 09:33:56 +0000";
layers = (
{
layerId = m01;
shapes = (
{
closed = 1;
nodes = (
(557,700,l),
(467,700,l),
(101,280,l),
(154,234,l)
);
},
{
closed = 1;
nodes = (
(163,0,l),
(163,700,l),
(85,700,l),
(85,0,l)
);
},
{
closed = 1;
nodes = (
(586,0,l),
(307,422,l),
(239,392,l),
(496,0,l)
);
}
);
width = 606;
},
{
layerId = m005;
shapes = (
{
closed = 1;
nodes = (
(628,700,l),
(470,700,l),
(86,279,l),
(178,199,l)
);
},
{
closed = 1;
nodes = (
(213,0,l),
(213,700,l),
(75,700,l),
(75,0,l)
);
},
{
closed = 1;
nodes = (
(652,0,l),
(340,451,l),
(222,399,l),
(497,0,l)
);
}
);
width = 662;
},
{
layerId = m007;
shapes = (
{
closed = 1;
nodes = (
(530,700,l),
(467,700,l),
(110,281,l),
(148,248,l)
);
},
{
closed = 1;
nodes = (
(148,0,l),
(148,700,l),
(90,700,l),
(90,0,l)
);
},
{
closed = 1;
nodes = (
(562,0,l),
(280,437,l),
(249,388,l),
(496,0,l)
);
}
);
width = 587;
},
{
layerId = m004;
shapes = (
{
closed = 1;
nodes = (
(644,700,l),
(544,700,l),
(96,280,l),
(150,234,l)
);
},
{
closed = 1;
nodes = (
(114,0,l),
(250,700,l),
(172,700,l),
(36,0,l)
);
},
{
closed = 1;
nodes = (
(537,0,l),
(340,422,l),
(266,392,l),
(447,0,l)
);
}
);
width = 606;
},
{
layerId = m008;
shapes = (
{
closed = 1;
nodes = (
(715,700,l),
(542,700,l),
(114,313,l),
(168,199,l)
);
},
{
closed = 1;
nodes = (
(164,0,l),
(300,700,l),
(162,700,l),
(26,0,l)
);
},
{
closed = 1;
nodes = (
(603,0,l),
(379,451,l),
(251,399,l),
(448,0,l)
);
}
);
width = 662;
},
{
layerId = m006;
shapes = (
{
closed = 1;
nodes = (
(617,700,l),
(549,700,l),
(111,281,l),
(147,248,l)
);
},
{
closed = 1;
nodes = (
(99,0,l),
(235,700,l),
(177,700,l),
(41,0,l)
);
},
{
closed = 1;
nodes = (
(513,0,l),
(316,437,l),
(275,388,l),
(447,0,l)
);
}
);
width = 587;
}
);
metricLeft = H;
unicode = 75;
},
{
glyphname = L;
kernLeft = H;
kernRight = L;
lastChange = "2022-12-30 09:33:56 +0000";
layers = (
{
layerId = m01;
shapes = (
{
closed = 1;
nodes = (
(163,0,l),
(163,700,l),
(85,700,l),
(85,0,l)
);
},
{
closed = 1;
nodes = (
(488,0,l),
(488,73,l),
(148,73,l),
(148,0,l)
);
}
);
width = 508;
},
{
layerId = m005;
shapes = (
{
closed = 1;
nodes = (
(213,0,l),
(213,700,l),
(75,700,l),
(75,0,l)
);
},
{
closed = 1;
nodes = (
(538,0,l),
(538,113,l),
(138,113,l),
(138,0,l)
);
}
);
width = 548;
},
{
layerId = m007;
shapes = (
{
closed = 1;
nodes = (
(148,0,l),
(148,700,l),
(90,700,l),
(90,0,l)
);
},
{
closed = 1;
nodes = (
(473,0,l),
(473,53,l),
(133,53,l),
(133,0,l)
);
}
);
width = 498;
},
{
layerId = m004;
shapes = (
{
closed = 1;
nodes = (
(114,0,l),
(250,700,l),
(172,700,l),
(36,0,l)
);
},
{
closed = 1;
nodes = (
(439,0,l),
(453,73,l),
(113,73,l),
(99,0,l)
);
}
);
width = 508;
},
{
layerId = m008;
shapes = (
{
closed = 1;
nodes = (
(164,0,l),
(300,700,l),
(162,700,l),
(26,0,l)
);
},
{
closed = 1;
nodes = (
(489,0,l),
(511,113,l),
(111,113,l),
(89,0,l)
);
}
);
width = 548;
},
{
layerId = m006;
shapes = (
{
closed = 1;
nodes = (
(99,0,l),
(235,700,l),
(177,700,l),
(41,0,l)
);
},
{
closed = 1;
nodes = (
(424,0,l),
(434,53,l),
(94,53,l),
(84,0,l)
);
}
);
width = 498;
}
);
metricLeft = H;
unicode = 76;
},
{
glyphname = Lslash;
kernLeft = H;
kernRight = L;
lastChange = "2022-12-30 09:33:56 +0000";
layers = (
{
layerId = m01;
shapes = (
{
closed = 1;
nodes = (
(345,390,l),
(345,450,l),
(5,310,l),
(5,250,l)
);
},
{
ref = L;
}
);
width = 508;
},
{
layerId = m005;
shapes = (
{
closed = 1;
nodes = (
(355,373,l),
(355,475,l),
(-5,327,l),
(-5,225,l)
);
},
{
pos = (6,0);
ref = L;
}
);
width = 554;
},
{
layerId = m007;
shapes = (
{
closed = 1;
nodes = (
(330,402,l),
(330,440,l),
(10,298,l),
(10,260,l)
);
},
{
ref = L;
}
);
width = 498;
},
{
layerId = m004;
shapes = (
{
closed = 1;
nodes = (
(373,390,l),
(384,450,l),
(17,310,l),
(6,250,l)
);
},
{
pos = (5,0);
ref = L;
}
);
width = 513;
},
{
layerId = m008;
shapes = (
{
closed = 1;
nodes = (
(378,373,l),
(398,475,l),
(10,327,l),
(-10,225,l)
);
},
{
pos = (10,0);
ref = L;
}
);
width = 558;
},
{
layerId = m006;
shapes = (
{
closed = 1;
nodes = (
(359,402,l),
(366,440,l),
(19,298,l),
(12,260,l)
);
},
{
pos = (4,0);
ref = L;
}
);
width = 502;
}
);
metricLeft = "=L-80";
metricRight = L;
unicode = 321;
},
{
glyphname = M;
kernLeft = H;
kernRight = H;
lastChange = "2022-12-30 09:33:56 +0000";
layers = (
{
layerId = m01;
shapes = (
{
closed = 1;
nodes = (
(163,0,l),
(163,640,l),
(152,648,l),
(386,0,l),
(462,0,l),
(695,645,l),
(685,647,l),
(685,0,l),
(763,0,l),
(763,700,l),
(641,700,l),
(425,101,l),
(423,101,l),
(206,700,l),
(85,700,l),
(85,0,l)
);
}
);
width = 848;
},
{
layerId = m005;
shapes = (
{
closed = 1;
nodes = (
(213,0,l),
(213,572,l),
(172,572,l),
(393,0,l),
(495,0,l),
(716,572,l),
(675,572,l),
(675,0,l),
(813,0,l),
(813,700,l),
(633,700,l),
(417,131,l),
(471,131,l),
(254,700,l),
(75,700,l),
(75,0,l)
);
}
);
width = 888;
},
{
layerId = m007;
shapes = (
{
closed = 1;
nodes = (
(148,0,l),
(148,632,l),
(145,632,l),
(386,0,l),
(432,0,l),
(673,632,l),
(670,632,l),
(670,0,l),
(728,0,l),
(728,700,l),
(641,700,l),
(405,81,l),
(413,81,l),
(176,700,l),
(90,700,l),
(90,0,l)
);
}
);
width = 818;
},
{
layerId = m004;
shapes = (
{
closed = 1;
nodes = (
(114,0,l),
(242,657,l),
(226,665,l),
(337,0,l),
(417,0,l),
(787,667,l),
(765,665,l),
(636,0,l),
(714,0,l),
(850,700,l),
(728,700,l),
(376,65,l),
(400,65,l),
(293,700,l),
(172,700,l),
(36,0,l)
);
}
);
width = 848;
},
{
layerId = m008;
shapes = (
{
closed = 1;
nodes = (
(159,0,l),
(270,572,l),
(229,572,l),
(339,0,l),
(446,0,l),
(778,572,l),
(732,572,l),
(621,0,l),
(764,0,l),
(900,700,l),
(715,700,l),
(388,131,l),
(442,131,l),
(336,700,l),
(162,700,l),
(26,0,l)
);
}
);
width = 888;
},
{
layerId = m006;
shapes = (
{
closed = 1;
nodes = (
(99,0,l),
(222,632,l),
(219,632,l),
(337,0,l),
(383,0,l),
(747,632,l),
(744,632,l),
(621,0,l),
(679,0,l),
(815,700,l),
(728,700,l),
(372,81,l),
(380,81,l),
(263,700,l),
(177,700,l),
(41,0,l)
);
}
);
width = 818;
}
);
metricLeft = H;
metricRight = H;
unicode = 77;
},
{
glyphname = N;
kernLeft = H;
kernRight = H;
lastChange = "2023-01-04 21:28:21 +0000";
layers = (
{
layerId = m01;
shapes = (
{
closed = 1;
nodes = (
(164,0,l),
(164,648,l),
(138,641,l),
(532,0,l),
(631,0,l),
(631,700,l),
(552,700,l),
(552,52,l),
(577,59,l),
(184,700,l),
(85,700,l),
(85,0,l)
);
}
);
width = 716;
},
{
layerId = m005;
shapes = (
{
closed = 1;
nodes = (
(214,0,l),
(214,534,l),
(190,527,l),
(522,0,l),
(671,0,l),
(671,700,l),
(532,700,l),
(532,166,l),
(556,173,l),
(224,700,l),
(75,700,l),
(75,0,l)
);
}
);
width = 746;
},
{
layerId = m007;
shapes = (
{
closed = 1;
nodes = (
(148,0,l),
(148,677,l),
(122,670,l),
(532,0,l),
(609,0,l),
(609,700,l),
(551,700,l),
(551,23,l),
(577,30,l),
(167,700,l),
(90,700,l),
(90,0,l)
);
}
);
width = 699;
},
{
layerId = m004;
shapes = (
{
closed = 1;
nodes = (
(115,0,l),
(241,647,l),
(219,645,l),
(483,0,l),
(582,0,l),
(718,700,l),
(639,700,l),
(513,53,l),
(535,55,l),
(271,700,l),
(172,700,l),
(36,0,l)
);
}
);
width = 716;
},
{
layerId = m008;
shapes = (
{
closed = 1;
nodes = (
(160,0,l),
(264,533,l),
(237,530,l),
(468,0,l),
(622,0,l),
(758,700,l),
(614,700,l),
(510,167,l),
(537,170,l),
(306,700,l),
(162,700,l),
(26,0,l)
);
}
);
width = 746;
},
{
layerId = m006;
shapes = (
{
closed = 1;
nodes = (
(100,0,l),
(232,676,l),
(206,674,l),
(484,0,l),
(562,0,l),
(698,700,l),
(639,700,l),
(507,24,l),
(533,26,l),
(255,700,l),
(177,700,l),
(41,0,l)
);
}
);
width = 701;
}
);
metricLeft = H;
metricRight = H;
unicode = 78;
},
{
glyphname = Eng;
kernLeft = H;
kernRight = H;
lastChange = "2022-12-30 13:23:33 +0000";
layers = (
{
layerId = m01;
shapes = (
{
closed = 1;
nodes = (
(491,-200,ls),
(585,-200,o),
(631,-154,o),
(631,-60,cs),
(631,0,l),
(556,0,l),
(556,-67,ls),
(556,-107,o),
(536,-127,o),
(496,-127,cs),
(406,-127,l),
(406,-200,l)
);
},
{
ref = N;
}
);
width = 716;
},
{
layerId = m005;
shapes = (
{
closed = 1;
nodes = (
(501,-200,ls),
(615,-200,o),
(671,-147,o),
(671,-40,cs),
(671,0,l),
(536,0,l),
(536,-27,ls),
(536,-67,o),
(516,-87,o),
(476,-87,cs),
(386,-87,l),
(386,-200,l)
);
},
{
ref = N;
}
);
width = 746;
},
{
layerId = m007;
shapes = (
{
closed = 1;
nodes = (
(481,-200,ls),
(568,-200,o),
(611,-157,o),
(611,-70,cs),
(611,0,l),
(556,0,l),
(556,-77,ls),
(556,-124,o),
(533,-147,o),
(486,-147,cs),
(406,-147,l),
(406,-200,l)
);
},
{
ref = N;
}
);
width = 701;
},
{
layerId = m004;
shapes = (
{
closed = 1;
nodes = (
(422,-200,ls),
(490,-200,o),
(553,-146,o),
(570,-60,cs),
(582,0,l),
(507,0,l),
(494,-67,ls),
(487,-104,o),
(459,-127,o),
(422,-127,cs),
(332,-127,l),
(318,-200,l)
);
},
{
ref = N;
}
);
width = 716;
},
{
layerId = m008;
shapes = (
{
closed = 1;
nodes = (
(420,-200,ls),
(521,-200,o),
(593,-149,o),
(609,-67,cs),
(622,0,l),
(487,0,l),
(482,-27,ls),
(475,-64,o),
(451,-87,o),
(420,-87,cs),
(320,-87,l),
(298,-200,l)
);
},
{
ref = N;
}
);
width = 746;
},
{
layerId = m006;
shapes = (
{
closed = 1;
nodes = (
(408,-200,ls),
(480,-200,o),
(531,-152,o),
(548,-70,cs),
(562,0,l),
(507,0,l),
(492,-77,ls),
(483,-121,o),
(452,-147,o),
(408,-147,cs),
(328,-147,l),
(318,-200,l)
);
},
{
ref = N;
}
);
width = 701;
}
);
metricLeft = N;
metricRight = H;
unicode = 330;
},
{
glyphname = O;
kernLeft = O;
kernRight = O;
lastChange = "2022-12-31 10:14:03 +0000";
layers = (
{
layerId = m01;
shapes = (
{
closed = 1;
nodes = (
(571,-16,o),
(704,135,o),
(704,350,cs),
(704,565,o),
(571,716,o),
(382,716,cs),
(193,716,o),
(60,565,o),
(60,350,cs),
(60,135,o),
(193,-16,o),
(382,-16,cs)
);
},
{
closed = 1;
nodes = (
(238,57,o),
(138,177,o),
(138,350,cs),
(138,523,o),
(238,643,o),
(382,643,cs),
(526,643,o),
(626,523,o),
(626,350,cs),
(626,177,o),
(526,57,o),
(382,57,cs)
);
}
);
width = 764;
},
{
layerId = m005;
shapes = (
{
closed = 1;
nodes = (
(609,-16,o),
(754,135,o),
(754,350,cs),
(754,565,o),
(609,716,o),
(402,716,cs),
(195,716,o),
(50,565,o),
(50,350,cs),
(50,135,o),
(195,-16,o),
(402,-16,cs)
);
},
{
closed = 1;
nodes = (
(275,97,o),
(188,199,o),
(188,350,cs),
(188,501,o),
(275,603,o),
(402,603,cs),
(529,603,o),
(616,501,o),
(616,350,cs),
(616,199,o),
(529,97,o),
(402,97,cs)
);
}
);
width = 804;
},
{
layerId = m007;
shapes = (
{
closed = 1;
nodes = (
(561,-16,o),
(689,134,o),
(689,350,cs),
(689,566,o),
(561,716,o),
(377,716,cs),
(193,716,o),
(65,566,o),
(65,350,cs),
(65,134,o),
(193,-16,o),
(377,-16,cs)
);
},
{
closed = 1;
nodes = (
(227,37,o),
(123,165,o),
(123,350,cs),
(123,535,o),
(227,663,o),
(377,663,cs),
(527,663,o),
(631,535,o),
(631,350,cs),
(631,165,o),
(527,37,o),
(377,37,cs)
);
}
);
width = 754;
},
{
layerId = m004;
shapes = (
{
closed = 1;
nodes = (
(565,-16,o),
(722,162,o),
(722,395,cs),
(722,589,o),
(610,716,o),
(440,716,cs),
(238,716,o),
(78,530,o),
(78,296,cs),
(78,105,o),
(187,-16,o),
(359,-16,cs)
);
},
{
closed = 1;
nodes = (
(237,57,o),
(156,150,o),
(156,298,cs),
(156,491,o),
(278,643,o),
(433,643,cs),
(562,643,o),
(644,546,o),
(644,394,cs),
(644,203,o),
(523,57,o),
(365,57,cs)
);
}
);
width = 763;
},
{
layerId = m008;
shapes = (
{
closed = 1;
nodes = (
(613,-16,o),
(776,152,o),
(776,377,cs),
(776,582,o),
(647,716,o),
(452,716,cs),
(237,716,o),
(72,544,o),
(72,318,cs),
(72,117,o),
(200,-16,o),
(395,-16,cs)
);
},
{
closed = 1;
nodes = (
(283,97,o),
(210,183,o),
(210,320,cs),
(210,480,o),
(313,603,o),
(448,603,cs),
(565,603,o),
(638,516,o),
(638,377,cs),
(638,216,o),
(537,97,o),
(400,97,cs)
);
}
);
width = 810;
},
{
layerId = m006;
shapes = (
{
closed = 1;
nodes = (
(553,-16,o),
(707,164,o),
(707,395,cs),
(707,588,o),
(598,716,o),
(435,716,cs),
(240,716,o),
(83,529,o),
(83,296,cs),
(83,106,o),
(189,-16,o),
(354,-16,cs)
);
},
{
closed = 1;
nodes = (
(228,37,o),
(141,141,o),
(141,298,cs),
(141,498,o),
(270,663,o),
(428,663,cs),
(560,663,o),
(649,555,o),
(649,394,cs),
(649,195,o),
(521,37,o),
(360,37,cs)
);
}
);
width = 753;
}
);
unicode = 79;
},
{
glyphname = Oslash;
kernLeft = O;
kernRight = O;
lastChange = "2022-12-31 10:51:00 +0000";
layers = (
{
layerId = m01;
shapes = (
{
closed = 1;
nodes = (
(98,-66,l),
(753,765,l),
(665,765,l),
(10,-66,l)
);
},
{
ref = O;
}
);
width = 763;
},
{
layerId = m005;
shapes = (
{
closed = 1;
nodes = (
(119,-66,l),
(765,765,l),
(646,765,l),
(0,-66,l)
);
},
{
pos = (-19,0);
ref = O;
}
);
width = 765;
},
{
layerId = m007;
shapes = (
{
closed = 1;
nodes = (
(77,-56,l),
(716,755,l),
(654,755,l),
(15,-56,l)
);
},
{
pos = (-11,0);
ref = O;
}
);
width = 731;
},
{
layerId = m004;
shapes = (
{
closed = 1;
nodes = (
(37,-66,l),
(854,765,l),
(766,765,l),
(-51,-66,l)
);
},
{
pos = (2,0);
ref = O;
}
);
width = 764;
},
{
layerId = m008;
shapes = (
{
closed = 1;
nodes = (
(58,-66,l),
(866,765,l),
(747,765,l),
(-61,-66,l)
);
},
{
pos = (-21,0);
ref = O;
}
);
width = 766;
},
{
layerId = m006;
shapes = (
{
closed = 1;
nodes = (
(18,-56,l),
(815,755,l),
(753,755,l),
(-44,-56,l)
);
},
{
pos = (-9,0);
ref = O;
}
);
width = 732;
}
);
metricLeft = "=O-50";
metricRight = "=O-50";
unicode = 216;
},
{
glyphname = P;
kernLeft = H;
kernRight = P;
lastChange = "2023-01-04 22:25:26 +0000";
layers = (
{
layerId = m01;
shapes = (
{
closed = 1;
nodes = (
(163,0,l),
(163,309,l),
(325,309,ls),
(450,309,o),
(536,388,o),
(536,504,cs),
(536,621,o),
(450,700,o),
(325,700,cs),
(85,700,l),
(85,0,l)
);
},
{
closed = 1;
nodes = (
(163,627,l),
(325,627,ls),
(404,627,o),
(458,577,o),
(458,504,cs),
(458,431,o),
(405,382,o),
(325,382,cs),
(163,382,l)
);
}
);
width = 576;
},
{
layerId = m005;
shapes = (
{
closed = 1;
nodes = (
(213,0,l),
(213,268,l),
(315,268,ls),
(478,268,o),
(586,354,o),
(586,484,cs),
(586,614,o),
(478,700,o),
(315,700,cs),
(75,700,l),
(75,0,l)
);
},
{
closed = 1;
nodes = (
(213,587,l),
(315,587,ls),
(397,587,o),
(448,548,o),
(448,484,cs),
(448,420,o),
(397,381,o),
(315,381,cs),
(213,381,l)
);
}
);
width = 616;
},
{
layerId = m007;
shapes = (
{
closed = 1;
nodes = (
(148,0,l),
(148,329,l),
(300,329,ls),
(437,329,o),
(521,399,o),
(521,514,cs),
(521,630,o),
(438,700,o),
(300,700,cs),
(90,700,l),
(90,0,l)
);
},
{
closed = 1;
nodes = (
(148,647,l),
(300,647,ls),
(406,647,o),
(463,601,o),
(463,514,cs),
(463,427,o),
(407,382,o),
(300,382,cs),
(148,382,l)
);
}
);
width = 566;
},
{
layerId = m004;
shapes = (
{
closed = 1;
nodes = (
(114,0,l),
(174,309,l),
(326,309,ls),
(474,309,o),
(582,398,o),
(582,521,cs),
(582,628,o),
(501,700,o),
(382,700,cs),
(172,700,l),
(36,0,l)
);
},
{
closed = 1;
nodes = (
(236,627,l),
(378,627,ls),
(457,627,o),
(506,585,o),
(506,517,cs),
(506,436,o),
(436,382,o),
(330,382,cs),
(188,382,l)
);
}
);
width = 573;
},
{
layerId = m008;
shapes = (
{
closed = 1;
nodes = (
(164,0,l),
(216,268,l),
(340,268,ls),
(507,268,o),
(629,365,o),
(629,499,cs),
(629,620,o),
(529,700,o),
(380,700,cs),
(162,700,l),
(26,0,l)
);
},
{
closed = 1;
nodes = (
(278,587,l),
(380,587,ls),
(450,587,o),
(493,554,o),
(493,500,cs),
(493,433,o),
(427,381,o),
(340,381,cs),
(238,381,l)
);
}
);
width = 615;
},
{
layerId = m006;
shapes = (
{
closed = 1;
nodes = (
(99,0,l),
(163,329,l),
(315,329,ls),
(469,329,o),
(571,409,o),
(571,529,cs),
(571,632,o),
(497,700,o),
(387,700,cs),
(177,700,l),
(41,0,l)
);
},
{
closed = 1;
nodes = (
(225,647,l),
(377,647,ls),
(462,647,o),
(515,601,o),
(515,529,cs),
(515,442,o),
(437,382,o),
(325,382,cs),
(173,382,l)
);
}
);
width = 566;
}
);
metricLeft = H;
unicode = 80;
},
{
glyphname = Thorn;
kernLeft = H;
kernRight = o;
lastChange = "2023-01-04 22:25:49 +0000";
layers = (
{
layerId = m01;
shapes = (
{
closed = 1;
nodes = (
(163,0,l),
(163,155,l),
(325,155,ls),
(450,155,o),
(536,234,o),
(536,350,cs),
(536,467,o),
(450,546,o),
(325,546,cs),
(163,546,l),
(163,700,l),
(85,700,l),
(85,0,l)
);
},
{
closed = 1;
nodes = (
(163,473,l),
(325,473,ls),
(404,473,o),
(458,423,o),
(458,350,cs),
(458,277,o),
(405,228,o),
(325,228,cs),
(163,228,l)
);
}
);
width = 596;
},
{
layerId = m005;
shapes = (
{
closed = 1;
nodes = (
(213,0,l),
(213,134,l),
(315,134,ls),
(478,134,o),
(586,220,o),
(586,350,cs),
(586,480,o),
(478,566,o),
(315,566,cs),
(213,566,l),
(213,700,l),
(75,700,l),
(75,0,l)
);
},
{
closed = 1;
nodes = (
(213,453,l),
(315,453,ls),
(397,453,o),
(448,414,o),
(448,350,cs),
(448,286,o),
(397,247,o),
(315,247,cs),
(213,247,l)
);
}
);
width = 636;
},
{
layerId = m007;
shapes = (
{
closed = 1;
nodes = (
(148,0,l),
(148,165,l),
(300,165,ls),
(437,165,o),
(521,235,o),
(521,350,cs),
(521,466,o),
(438,536,o),
(300,536,cs),
(148,536,l),
(148,700,l),
(90,700,l),
(90,0,l)
);
},
{
closed = 1;
nodes = (
(148,483,l),
(300,483,ls),
(406,483,o),
(463,437,o),
(463,350,cs),
(463,263,o),
(407,218,o),
(300,218,cs),
(148,218,l)
);
}
);
width = 586;
},
{
layerId = m004;
shapes = (
{
closed = 1;
nodes = (
(114,0,l),
(144,154,l),
(296,154,ls),
(444,154,o),
(552,243,o),
(552,366,cs),
(552,473,o),
(471,545,o),
(352,545,cs),
(220,545,l),
(250,700,l),
(172,700,l),
(36,0,l)
);
},
{
closed = 1;
nodes = (
(206,472,l),
(348,472,ls),
(427,472,o),
(476,430,o),
(476,362,cs),
(476,281,o),
(406,227,o),
(300,227,cs),
(158,227,l)
);
}
);
width = 593;
},
{
layerId = m008;
shapes = (
{
closed = 1;
nodes = (
(164,0,l),
(190,134,l),
(314,134,ls),
(481,134,o),
(603,231,o),
(603,365,cs),
(603,486,o),
(503,566,o),
(354,566,cs),
(274,566,l),
(300,700,l),
(162,700,l),
(26,0,l)
);
},
{
closed = 1;
nodes = (
(252,453,l),
(354,453,ls),
(424,453,o),
(467,420,o),
(467,366,cs),
(467,299,o),
(401,247,o),
(314,247,cs),
(212,247,l)
);
}
);
width = 635;
},
{
layerId = m006;
shapes = (
{
closed = 1;
nodes = (
(99,0,l),
(131,165,l),
(283,165,ls),
(437,165,o),
(539,245,o),
(539,365,cs),
(539,468,o),
(465,536,o),
(355,536,cs),
(203,536,l),
(235,700,l),
(177,700,l),
(41,0,l)
);
},
{
closed = 1;
nodes = (
(193,483,l),
(345,483,ls),
(430,483,o),
(483,437,o),
(483,365,cs),
(483,278,o),
(405,218,o),
(293,218,cs),
(141,218,l)
);
}
);
width = 585;
}
);
metricLeft = H;
metricRight = B;
unicode = 222;
},
{
glyphname = Q;
kernLeft = O;
kernRight = Q;
lastChange = "2022-12-31 10:20:28 +0000";
layers = (
{
layerId = m01;
shapes = (
{
closed = 1;
nodes = (
(751,-66,l),
(416,346,l),
(328,346,l),
(663,-66,l)
);
},
{
ref = O;
}
);
width = 791;
},
{
layerId = m005;
shapes = (
{
closed = 1;
nodes = (
(781,-66,l),
(463,366,l),
(308,366,l),
(626,-66,l)
);
},
{
ref = O;
}
);
width = 811;
},
{
layerId = m007;
shapes = (
{
closed = 1;
nodes = (
(730,-66,l),
(401,346,l),
(339,346,l),
(668,-66,l)
);
},
{
ref = O;
}
);
width = 775;
},
{
layerId = m004;
shapes = (
{
closed = 1;
nodes = (
(690,-66,l),
(435,346,l),
(347,346,l),
(602,-66,l)
);
},
{
ref = O;
}
);
width = 791;
},
{
layerId = m008;
shapes = (
{
closed = 1;
nodes = (
(720,-66,l),
(486,366,l),
(351,366,l),
(585,-66,l)
);
},
{
ref = O;
}
);
width = 811;
},
{
layerId = m006;
shapes = (
{
closed = 1;
nodes = (
(669,-66,l),
(420,346,l),
(358,346,l),
(607,-66,l)
);
},
{
ref = O;
}
);
width = 775;
}
);
metricLeft = O;
metricRight = "=O-20";
unicode = 81;
},
{
glyphname = R;
kernLeft = H;
kernRight = R;
lastChange = "2023-01-04 22:25:20 +0000";
layers = (
{
layerId = m01;
shapes = (
{
closed = 1;
nodes = (
(163,0,l),
(163,309,l),
(326,309,ls),
(421,309,o),
(450,278,o),
(456,174,cs),
(466,0,l),
(546,0,l),
(536,159,ls),
(527,309,o),
(493,342,o),
(350,342,c),
(350,340,l),
(469,340,o),
(536,399,o),
(536,504,cs),
(536,621,o),
(451,700,o),
(325,700,cs),
(85,700,l),
(85,0,l)
);
},
{
closed = 1;
nodes = (
(163,627,l),
(325,627,ls),
(404,627,o),
(458,577,o),
(458,504,cs),
(458,431,o),
(405,382,o),
(325,382,cs),
(163,382,l)
);
}
);
width = 611;
},
{
layerId = m005;
shapes = (
{
closed = 1;
nodes = (
(213,0,l),
(213,268,l),
(315,268,ls),
(418,268,o),
(439,249,o),
(446,153,cs),
(457,0,l),
(597,0,l),
(586,140,ls),
(574,302,o),
(549,322,o),
(360,322,c),
(360,317,l),
(509,317,o),
(586,374,o),
(586,486,cs),
(586,617,o),
(480,700,o),
(315,700,cs),
(75,700,l),
(75,0,l)
);
},
{
closed = 1;
nodes = (
(213,587,l),
(315,587,ls),
(400,587,o),
(448,550,o),
(448,484,cs),
(448,418,o),
(400,381,o),
(315,381,cs),
(213,381,l)
);
}
);
width = 652;
},
{
layerId = m007;
shapes = (
{
closed = 1;
nodes = (
(148,0,l),
(148,329,l),
(321,329,ls),
(421,329,o),
(456,293,o),
(461,185,cs),
(470,0,l),
(530,0,l),
(521,168,ls),
(513,317,o),
(481,352,o),
(355,352,c),
(355,350,l),
(457,350,o),
(521,414,o),
(521,516,cs),
(521,632,o),
(439,700,o),
(300,700,cs),
(90,700,l),
(90,0,l)
);
},
{
closed = 1;
nodes = (
(148,647,l),
(300,647,ls),
(406,647,o),
(463,601,o),
(463,514,cs),
(463,427,o),
(407,382,o),
(300,382,cs),
(148,382,l)
);
}
);
width = 600;
},
{
layerId = m004;
shapes = (
{
closed = 1;
nodes = (
(114,0,l),
(174,309,l),
(337,309,ls),
(423,309,o),
(455,275,o),
(444,194,cs),
(417,0,l),
(497,0,l),
(520,179,ls),
(535,294,o),
(490,342,o),
(367,342,c),
(367,340,l),
(498,340,o),
(583,412,o),
(583,521,cs),
(583,627,o),
(502,700,o),
(382,700,cs),
(172,700,l),
(36,0,l)
);
},
{
closed = 1;
nodes = (
(236,627,l),
(378,627,ls),
(461,627,o),
(507,588,o),
(507,517,cs),
(507,432,o),
(441,382,o),
(330,382,cs),
(188,382,l)
);
}
);
width = 611;
},
{
layerId = m008;
shapes = (
{
closed = 1;
nodes = (
(164,0,l),
(216,268,l),
(318,268,ls),
(402,268,o),
(434,240,o),
(427,173,cs),
(408,0,l),
(548,0,l),
(566,188,ls),
(576,290,o),
(525,324,o),
(364,324,c),
(363,315,l),
(516,315,o),
(629,385,o),
(629,499,cs),
(629,619,o),
(529,700,o),
(380,700,cs),
(162,700,l),
(26,0,l)
);
},
{
closed = 1;
nodes = (
(278,587,l),
(380,587,ls),
(464,587,o),
(493,554,o),
(493,500,cs),
(493,435,o),
(427,381,o),
(340,381,cs),
(238,381,l)
);
}
);
width = 652;
},
{
layerId = m006;
shapes = (
{
closed = 1;
nodes = (
(99,0,l),
(163,329,l),
(336,329,ls),
(429,329,o),
(464,292,o),
(451,205,cs),
(421,0,l),
(481,0,l),
(508,188,ls),
(525,303,o),
(484,352,o),
(374,352,c),
(374,350,l),
(486,350,o),
(571,427,o),
(570,529,cs),
(569,632,o),
(497,700,o),
(387,700,cs),
(177,700,l),
(41,0,l)
);
},
{
closed = 1;
nodes = (
(224,647,l),
(376,647,ls),
(461,647,o),
(514,601,o),
(514,529,cs),
(514,442,o),
(436,382,o),
(324,382,cs),
(172,382,l)
);
}
);
width = 600;
}
);
metricLeft = H;
unicode = 82;
},
{
glyphname = S;
kernLeft = S;
kernRight = S;
lastChange = "2022-12-31 10:15:30 +0000";
layers = (
{
layerId = m01;
shapes = (
{
closed = 1;
nodes = (
(447,-16,o),
(541,64,o),
(541,181,cs),
(541,441,o),
(162,364,o),
(162,529,cs),
(162,596,o),
(224,643,o),
(293,643,cs),
(375,643,o),
(436,578,o),
(436,498,c),
(514,508,l),
(514,623,o),
(418,716,o),
(295,716,cs),
(181,716,o),
(84,633,o),
(84,520,cs),
(84,297,o),
(463,374,o),
(463,181,cs),
(463,90,o),
(379,57,o),
(310,57,cs),
(192,57,o),
(123,155,o),
(123,276,c),
(45,266,l),
(45,110,o),
(141,-16,o),
(310,-16,cs)
);
}
);
width = 591;
},
{
layerId = m005;
shapes = (
{
closed = 1;
nodes = (
(480,-16,o),
(591,77,o),
(591,201,cs),
(591,438,o),
(212,382,o),
(212,520,cs),
(212,569,o),
(260,603,o),
(313,603,cs),
(378,603,o),
(425,553,o),
(425,491,c),
(563,501,l),
(563,624,o),
(457,716,o),
(316,716,cs),
(176,716,o),
(74,634,o),
(74,522,cs),
(74,290,o),
(453,339,o),
(453,191,cs),
(453,137,o),
(401,97,o),
(330,97,cs),
(238,97,o),
(174,169,o),
(174,273,c),
(35,263,l),
(35,113,o),
(155,-16,o),
(330,-16,cs)
);
}
);
width = 631;
},
{
layerId = m007;
shapes = (
{
closed = 1;
nodes = (
(432,-16,o),
(526,63,o),
(526,171,cs),
(526,399,o),
(147,362,o),
(147,538,cs),
(147,611,o),
(213,663,o),
(289,663,cs),
(376,663,o),
(441,594,o),
(441,509,c),
(499,517,l),
(499,627,o),
(408,716,o),
(290,716,cs),
(181,716,o),
(89,641,o),
(89,533,cs),
(89,313,o),
(468,364,o),
(468,171,cs),
(468,80,o),
(382,37,o),
(305,37,cs),
(187,37,o),
(112,139,o),
(108,265,c),
(50,257,l),
(53,106,o),
(150,-16,o),
(305,-16,cs)
);
}
);
width = 581;
},
{
layerId = m004;
shapes = (
{
closed = 1;
nodes = (
(426,-16,o),
(523,73,o),
(523,192,cs),
(523,398,o),
(231,398,o),
(231,535,cs),
(231,600,o),
(296,643,o),
(366,643,cs),
(452,643,o),
(494,578,o),
(494,498,c),
(574,508,l),
(574,623,o),
(484,716,o),
(364,716,cs),
(257,716,o),
(159,643,o),
(154,534,cs),
(144,340,o),
(446,345,o),
(446,192,cs),
(446,118,o),
(376,57,o),
(292,57,cs),
(193,57,o),
(128,143,o),
(128,276,c),
(48,266,l),
(48,97,o),
(146,-16,o),
(294,-16,cs)
);
}
);
width = 588;
},
{
layerId = m008;
shapes = (
{
closed = 1;
nodes = (
(478,-16,o),
(589,75,o),
(589,205,cs),
(589,421,o),
(286,382,o),
(286,509,cs),
(286,559,o),
(333,603,o),
(390,603,cs),
(448,603,o),
(491,556,o),
(491,491,c),
(631,501,l),
(631,620,o),
(529,716,o),
(385,716,cs),
(262,716,o),
(148,647,o),
(148,508,cs),
(148,282,o),
(451,351,o),
(451,201,cs),
(451,134,o),
(390,97,o),
(330,97,cs),
(240,97,o),
(180,180,o),
(180,283,c),
(39,273,l),
(39,113,o),
(134,-16,o),
(321,-16,cs)
);
}
);
width = 642;
},
{
layerId = m006;
shapes = (
{
closed = 1;
nodes = (
(424,-16,o),
(516,67,o),
(516,184,cs),
(516,393,o),
(226,387,o),
(226,538,cs),
(226,616,o),
(304,663,o),
(375,663,cs),
(461,663,o),
(511,593,o),
(511,507,c),
(570,517,l),
(570,627,o),
(493,716,o),
(373,716,cs),
(272,716,o),
(170,653,o),
(170,538,cs),
(170,345,o),
(460,358,o),
(460,181,cs),
(460,83,o),
(370,37,o),
(293,37,cs),
(177,37,o),
(110,140,o),
(110,267,c),
(51,257,l),
(51,106,o),
(135,-16,o),
(293,-16,cs)
);
}
);
width = 588;
}
);
unicode = 83;
},
{
glyphname = Germandbls;
kernLeft = H;
kernRight = B;
lastChange = "2023-01-04 22:25:49 +0000";
layers = (
{
layerId = m01;
shapes = (
{
closed = 1;
nodes = (
(373,0,ls),
(524,0,o),
(625,82,o),
(625,205,cs),
(625,328,o),
(524,409,o),
(371,410,c),
(371,364,l),
(557,587,ls),
(599,639,o),
(571,700,o),
(505,700,cs),
(85,700,l),
(85,0,l),
(163,0,l),
(163,627,l),
(494,627,l),
(323,413,l),
(323,337,l),
(373,337,ls),
(479,337,o),
(547,286,o),
(547,207,cs),
(547,128,o),
(480,78,o),
(373,78,cs),
(293,78,l),
(293,0,l)
);
}
);
width = 690;
},
{
layerId = m005;
shapes = (
{
closed = 1;
nodes = (
(393,0,ls),
(565,0,o),
(675,82,o),
(675,210,cs),
(675,327,o),
(583,399,o),
(422,406,c),
(432,370,l),
(583,536,ls),
(649,610,o),
(618,700,o),
(525,700,cs),
(75,700,l),
(75,0,l),
(213,0,l),
(213,587,l),
(475,587,l),
(313,406,l),
(313,306,l),
(393,306,ls),
(487,306,o),
(537,273,o),
(537,212,cs),
(537,151,o),
(487,118,o),
(393,118,cs),
(303,118,l),
(303,0,l)
);
}
);
width = 730;
},
{
layerId = m007;
shapes = (
{
closed = 1;
nodes = (
(338,0,ls),
(482,0,o),
(580,84,o),
(580,206,cs),
(580,329,o),
(480,410,o),
(326,410,c),
(326,378,l),
(514,603,ls),
(551,647,o),
(527,700,o),
(470,700,cs),
(90,700,l),
(90,0,l),
(148,0,l),
(148,647,l),
(480,647,l),
(298,419,l),
(298,357,l),
(348,357,ls),
(451,357,o),
(522,297,o),
(522,208,cs),
(522,119,o),
(451,58,o),
(348,58,cs),
(268,58,l),
(268,0,l)
);
}
);
width = 650;
},
{
layerId = m004;
shapes = (
{
closed = 1;
nodes = (
(324,0,ls),
(498,0,o),
(613,85,o),
(613,212,cs),
(613,325,o),
(522,407,o),
(398,407,c),
(402,373,l),
(622,587,ls),
(673,637,o),
(656,700,o),
(592,700,cs),
(172,700,l),
(36,0,l),
(114,0,l),
(236,627,l),
(567,627,l),
(354,413,l),
(339,337,l),
(389,337,ls),
(478,337,o),
(538,289,o),
(538,218,cs),
(538,135,o),
(457,78,o),
(339,78,cs),
(259,78,l),
(244,0,l)
);
}
);
width = 689;
},
{
layerId = m008;
shapes = (
{
closed = 1;
nodes = (
(384,0,ls),
(551,0,o),
(662,84,o),
(662,210,cs),
(662,323,o),
(575,407,o),
(459,407,c),
(459,374,l),
(638,536,ls),
(714,606,o),
(694,700,o),
(602,700,cs),
(162,700,l),
(26,0,l),
(164,0,l),
(278,587,l),
(540,587,l),
(343,406,l),
(323,306,l),
(403,306,ls),
(480,306,o),
(529,272,o),
(529,218,cs),
(529,159,o),
(470,118,o),
(384,118,cs),
(277,118,l),
(254,0,l)
);
}
);
width = 729;
},
{
layerId = m006;
shapes = (
{
closed = 1;
nodes = (
(289,0,ls),
(453,0,o),
(569,90,o),
(569,219,cs),
(569,334,o),
(476,415,o),
(348,410,c),
(351,378,l),
(582,603,ls),
(625,645,o),
(611,700,o),
(557,700,cs),
(177,700,l),
(41,0,l),
(99,0,l),
(225,647,l),
(552,647,l),
(325,419,l),
(313,357,l),
(368,357,ls),
(454,357,o),
(513,303,o),
(513,225,cs),
(513,129,o),
(427,58,o),
(310,58,cs),
(230,58,l),
(219,0,l)
);
}
);
width = 649;
}
);
metricLeft = H;
metricRight = "=B+5";
unicode = 7838;
},
{
glyphname = T;
kernLeft = T;
kernRight = T;
lastChange = "2023-01-04 22:25:23 +0000";
layers = (
{
layerId = m01;
shapes = (
{
closed = 1;
nodes = (
(348,0,l),
(348,627,l),
(598,627,l),
(598,700,l),
(20,700,l),
(20,627,l),
(270,627,l),
(270,0,l)
);
}
);
width = 618;
},
{
layerId = m005;
shapes = (
{
closed = 1;
nodes = (
(398,0,l),
(398,587,l),
(648,587,l),
(648,700,l),
(10,700,l),
(10,587,l),
(260,587,l),
(260,0,l)
);
}
);
width = 658;
},
{
layerId = m007;
shapes = (
{
closed = 1;
nodes = (
(333,0,l),
(333,647,l),
(583,647,l),
(583,700,l),
(25,700,l),
(25,647,l),
(275,647,l),
(275,0,l)
);
}
);
width = 608;
},
{
layerId = m004;
shapes = (
{
closed = 1;
nodes = (
(299,0,l),
(421,627,l),
(671,627,l),
(685,700,l),
(107,700,l),
(93,627,l),
(343,627,l),
(221,0,l)
);
}
);
width = 618;
},
{
layerId = m008;
shapes = (
{
closed = 1;
nodes = (
(350,0,l),
(464,587,l),
(714,587,l),
(736,700,l),
(98,700,l),
(76,587,l),
(326,587,l),
(212,0,l)
);
}
);
width = 659;
},
{
layerId = m006;
shapes = (
{
closed = 1;
nodes = (
(284,0,l),
(410,647,l),
(660,647,l),
(670,700,l),
(112,700,l),
(102,647,l),
(352,647,l),
(226,0,l)
);
}
);
width = 608;
}
);
unicode = 84;
},
{
glyphname = Tbar;
kernLeft = T;
kernRight = T;
lastChange = "2022-12-30 09:33:56 +0000";
layers = (
{
layerId = m01;
shapes = (
{
closed = 1;
nodes = (
(479,320,l),
(479,380,l),
(139,380,l),
(139,320,l)
);
},
{
ref = T;
}
);
width = 618;
},
{
layerId = m005;
shapes = (
{
closed = 1;
nodes = (
(509,305,l),
(509,395,l),
(149,395,l),
(149,305,l)
);
},
{
ref = T;
}
);
width = 658;
},
{
layerId = m007;
shapes = (
{
closed = 1;
nodes = (
(464,330,l),
(464,370,l),
(144,370,l),
(144,330,l)
);
},
{
ref = T;
}
);
width = 608;
},
{
layerId = m004;
shapes = (
{
closed = 1;
nodes = (
(493,320,l),
(505,380,l),
(165,380,l),
(153,320,l)
);
},
{
ref = T;
}
);
width = 618;
},
{
layerId = m008;
shapes = (
{
closed = 1;
nodes = (
(520,305,l),
(538,395,l),
(178,395,l),
(160,305,l)
);
},
{
ref = T;
}
);
width = 659;
},
{
layerId = m006;
shapes = (
{
closed = 1;
nodes = (
(480,330,l),
(488,370,l),
(168,370,l),
(160,330,l)
);
},
{
ref = T;
}
);
width = 608;
}
);
metricLeft = T;
metricRight = T;
unicode = 358;
},
{
glyphname = U;
kernLeft = U;
kernRight = U;
lastChange = "2022-12-30 12:03:18 +0000";
layers = (
{
layerId = m01;
shapes = (
{
closed = 1;
nodes = (
(480,-16,o),
(575,84,o),
(575,242,cs),
(575,700,l),
(497,700,l),
(497,242,ls),
(497,128,o),
(432,57,o),
(328,57,cs),
(223,57,o),
(158,128,o),
(158,242,cs),
(158,700,l),
(80,700,l),
(80,242,ls),
(80,84,o),
(177,-16,o),
(328,-16,cs)
);
}
);
width = 655;
},
{
layerId = m005;
shapes = (
{
closed = 1;
nodes = (
(512,-16,o),
(625,98,o),
(625,262,cs),
(625,700,l),
(487,700,l),
(487,262,ls),
(487,162,o),
(432,97,o),
(348,97,cs),
(264,97,o),
(208,163,o),
(208,262,cs),
(208,700,l),
(70,700,l),
(70,262,ls),
(70,98,o),
(184,-16,o),
(348,-16,cs)
);
}
);
width = 695;
},
{
layerId = m007;
shapes = (
{
closed = 1;
nodes = (
(471,-16,o),
(560,80,o),
(560,242,cs),
(560,700,l),
(502,700,l),
(502,242,ls),
(502,115,o),
(434,37,o),
(323,37,cs),
(212,37,o),
(143,115,o),
(143,242,cs),
(143,700,l),
(85,700,l),
(85,242,ls),
(85,81,o),
(174,-16,o),
(323,-16,cs)
);
}
);
width = 645;
},
{
layerId = m004;
shapes = (
{
closed = 1;
nodes = (
(430,-16,o),
(543,86,o),
(573,242,cs),
(662,700,l),
(584,700,l),
(495,242,ls),
(473,131,o),
(392,57,o),
(293,57,cs),
(192,57,o),
(135,135,o),
(156,242,cs),
(245,700,l),
(167,700,l),
(78,242,ls),
(50,95,o),
(139,-16,o),
(287,-16,cs)
);
}
);
width = 655;
},
{
layerId = m008;
shapes = (
{
closed = 1;
nodes = (
(471,-16,o),
(594,97,o),
(629,272,cs),
(712,700,l),
(573,700,l),
(490,272,ls),
(469,164,o),
(406,97,o),
(324,97,cs),
(238,97,o),
(190,171,o),
(211,272,cs),
(294,700,l),
(157,700,l),
(74,272,ls),
(43,110,o),
(147,-16,o),
(313,-16,cs)
);
}
);
width = 695;
},
{
layerId = m006;
shapes = (
{
closed = 1;
nodes = (
(418,-16,o),
(528,87,o),
(558,242,cs),
(647,700,l),
(589,700,l),
(500,242,ls),
(475,118,o),
(390,37,o),
(285,37,cs),
(178,37,o),
(119,122,o),
(141,242,cs),
(230,700,l),
(172,700,l),
(83,242,ls),
(55,94,o),
(138,-16,o),
(280,-16,cs)
);
}
);
width = 645;
}
);
unicode = 85;
},
{
glyphname = V;
kernLeft = V;
kernRight = V;
lastChange = "2022-12-30 21:07:05 +0000";
layers = (
{
layerId = m01;
shapes = (
{
closed = 1;
nodes = (
(355,0,l),
(588,700,l),
(510,700,l),
(289,36,l),
(318,36,l),
(98,700,l),
(20,700,l),
(253,0,l)
);
}
);
width = 608;
},
{
layerId = m005;
shapes = (
{
closed = 1;
nodes = (
(407,0,l),
(654,700,l),
(519,700,l),
(285,36,l),
(379,36,l),
(145,700,l),
(10,700,l),
(257,0,l)
);
}
);
width = 664;
},
{
layerId = m007;
shapes = (
{
closed = 1;
nodes = (
(333,0,l),
(559,700,l),
(502,700,l),
(288,36,l),
(295,36,l),
(82,700,l),
(25,700,l),
(251,0,l)
);
}
);
width = 584;
},
{
layerId = m004;
shapes = (
{
closed = 1;
nodes = (
(306,0,l),
(675,700,l),
(595,700,l),
(245,36,l),
(271,36,l),
(180,700,l),
(107,700,l),
(204,0,l)
);
}
);
width = 608;
},
{
layerId = m008;
shapes = (
{
closed = 1;
nodes = (
(358,0,l),
(741,700,l),
(596,700,l),
(233,36,l),
(327,36,l),
(222,700,l),
(97,700,l),
(208,0,l)
);
}
);
width = 664;
},
{
layerId = m006;
shapes = (
{
closed = 1;
nodes = (
(284,0,l),
(646,700,l),
(585,700,l),
(242,36,l),
(254,36,l),
(170,700,l),
(112,700,l),
(202,0,l)
);
}
);
width = 584;
}
);
unicode = 86;
},
{
glyphname = W;
kernLeft = V;
kernRight = V;
lastChange = "2022-12-30 09:33:56 +0000";
layers = (
{
layerId = m01;
shapes = (
{
closed = 1;
nodes = (
(310,0,l),
(438,587,l),
(418,587,l),
(546,0,l),
(649,0,l),
(821,700,l),
(748,700,l),
(585,38,l),
(606,38,l),
(462,700,l),
(394,700,l),
(250,38,l),
(271,38,l),
(108,700,l),
(35,700,l),
(207,0,l)
);
}
);
width = 856;
},
{
layerId = m005;
shapes = (
{
closed = 1;
nodes = (
(351,0,l),
(488,587,l),
(438,587,l),
(575,0,l),
(748,0,l),
(900,700,l),
(768,700,l),
(625,38,l),
(676,38,l),
(523,700,l),
(403,700,l),
(250,38,l),
(301,38,l),
(158,700,l),
(25,700,l),
(177,0,l)
);
}
);
width = 925;
},
{
layerId = m007;
shapes = (
{
closed = 1;
nodes = (
(276,0,l),
(410,587,l),
(409,587,l),
(543,0,l),
(612,0,l),
(779,700,l),
(726,700,l),
(572,38,l),
(589,38,l),
(439,700,l),
(380,700,l),
(230,38,l),
(251,38,l),
(93,700,l),
(40,700,l),
(207,0,l)
);
}
);
width = 819;
},
{
layerId = m004;
shapes = (
{
closed = 1;
nodes = (
(261,0,l),
(503,587,l),
(483,587,l),
(497,0,l),
(600,0,l),
(908,700,l),
(832,700,l),
(540,38,l),
(560,38,l),
(545,700,l),
(477,700,l),
(204,38,l),
(226,38,l),
(192,700,l),
(122,700,l),
(158,0,l)
);
}
);
width = 856;
},
{
layerId = m008;
shapes = (
{
closed = 1;
nodes = (
(297,0,l),
(548,587,l),
(498,587,l),
(521,0,l),
(699,0,l),
(987,700,l),
(850,700,l),
(578,38,l),
(629,38,l),
(605,700,l),
(485,700,l),
(203,38,l),
(254,38,l),
(240,700,l),
(112,700,l),
(128,0,l)
);
}
);
width = 925;
},
{
layerId = m006;
shapes = (
{
closed = 1;
nodes = (
(227,0,l),
(475,587,l),
(474,587,l),
(494,0,l),
(563,0,l),
(866,700,l),
(806,700,l),
(523,38,l),
(546,38,l),
(525,700,l),
(467,700,l),
(188,38,l),
(212,38,l),
(183,700,l),
(127,700,l),
(158,0,l)
);
}
);
width = 819;
}
);
metricLeft = "=V+15";
metricRight = "=V+15";
unicode = 87;
},
{
glyphname = X;
kernLeft = X;
kernRight = X;
lastChange = "2023-01-04 21:27:52 +0000";
layers = (
{
layerId = m01;
shapes = (
{
closed = 1;
nodes = (
(577,0,l),
(106,700,l),
(20,700,l),
(491,0,l)
);
},
{
closed = 1;
nodes = (
(106,0,l),
(577,700,l),
(491,700,l),
(20,0,l)
);
}
);
width = 597;
},
{
layerId = m005;
shapes = (
{
closed = 1;
nodes = (
(652,0,l),
(164,700,l),
(10,700,l),
(498,0,l)
);
},
{
closed = 1;
nodes = (
(164,0,l),
(652,700,l),
(498,700,l),
(10,0,l)
);
}
);
width = 662;
},
{
layerId = m007;
shapes = (
{
closed = 1;
nodes = (
(544,0,l),
(87,700,l),
(25,700,l),
(482,0,l)
);
},
{
closed = 1;
nodes = (
(87,0,l),
(544,700,l),
(482,700,l),
(25,0,l)
);
}
);
width = 569;
},
{
layerId = m004;
shapes = (
{
closed = 1;
nodes = (
(528,0,l),
(193,700,l),
(117,700,l),
(452,0,l)
);
},
{
closed = 1;
nodes = (
(67,0,l),
(674,700,l),
(578,700,l),
(-29,0,l)
);
}
);
width = 607;
},
{
layerId = m008;
shapes = (
{
closed = 1;
nodes = (
(603,0,l),
(251,700,l),
(107,700,l),
(459,0,l)
);
},
{
closed = 1;
nodes = (
(125,0,l),
(749,700,l),
(585,700,l),
(-39,0,l)
);
}
);
width = 672;
},
{
layerId = m006;
shapes = (
{
closed = 1;
nodes = (
(500,0,l),
(179,700,l),
(122,700,l),
(443,0,l)
);
},
{
closed = 1;
nodes = (
(43,0,l),
(636,700,l),
(569,700,l),
(-24,0,l)
);
}
);
width = 574;
}
);
metricLeft = V;
metricRight = V;
unicode = 88;
},
{
glyphname = Y;
kernLeft = Y;
kernRight = Y;
lastChange = "2022-12-31 10:38:20 +0000";
layers = (
{
layerId = m01;
shapes = (
{
closed = 1;
nodes = (
(227,0,l),
(532,700,l),
(450,700,l),
(145,0,l)
);
},
{
closed = 1;
nodes = (
(300,246,l),
(102,700,l),
(20,700,l),
(253,165,l)
);
}
);
width = 552;
},
{
layerId = m005;
shapes = (
{
closed = 1;
nodes = (
(275,0,l),
(598,700,l),
(455,700,l),
(132,0,l)
);
},
{
closed = 1;
nodes = (
(361,245,l),
(154,700,l),
(10,700,l),
(279,104,l)
);
}
);
width = 608;
},
{
layerId = m007;
shapes = (
{
closed = 1;
nodes = (
(208,0,l),
(505,700,l),
(447,700,l),
(150,0,l)
);
},
{
closed = 1;
nodes = (
(277,247,l),
(83,700,l),
(25,700,l),
(244,187,l)
);
}
);
width = 530;
},
{
layerId = m004;
shapes = (
{
closed = 1;
nodes = (
(178,0,l),
(619,700,l),
(533,700,l),
(92,0,l)
);
},
{
closed = 1;
nodes = (
(295,246,l),
(185,700,l),
(107,700,l),
(236,165,l)
);
}
);
width = 552;
},
{
layerId = m008;
shapes = (
{
closed = 1;
nodes = (
(221,0,l),
(680,700,l),
(527,700,l),
(68,0,l)
);
},
{
closed = 1;
nodes = (
(345,245,l),
(226,700,l),
(97,700,l),
(250,104,l)
);
}
);
width = 603;
},
{
layerId = m006;
shapes = (
{
closed = 1;
nodes = (
(163,0,l),
(596,700,l),
(534,700,l),
(101,0,l)
);
},
{
closed = 1;
nodes = (
(270,247,l),
(164,700,l),
(112,700,l),
(231,187,l)
);
}
);
width = 534;
}
);
metricLeft = V;
metricRight = V;
unicode = 89;
},
{
glyphname = Z;
kernLeft = Z;
kernRight = Z;
lastChange = "2022-12-30 09:33:56 +0000";
layers = (
{
layerId = m01;
shapes = (
{
closed = 1;
nodes = (
(510,0,l),
(510,73,l),
(128,73,l),
(128,35,l),
(510,627,l),
(510,700,l),
(70,700,l),
(70,627,l),
(452,627,l),
(452,665,l),
(70,73,l),
(70,0,l)
);
}
);
width = 580;
},
{
layerId = m005;
shapes = (
{
closed = 1;
nodes = (
(550,0,l),
(550,113,l),
(180,113,l),
(180,76,l),
(550,587,l),
(550,700,l),
(60,700,l),
(60,587,l),
(430,587,l),
(430,624,l),
(60,113,l),
(60,0,l)
);
}
);
width = 610;
},
{
layerId = m007;
shapes = (
{
closed = 1;
nodes = (
(505,0,l),
(505,53,l),
(110,53,l),
(110,15,l),
(505,647,l),
(505,700,l),
(75,700,l),
(75,647,l),
(470,647,l),
(470,685,l),
(75,53,l),
(75,0,l)
);
}
);
width = 580;
},
{
layerId = m004;
shapes = (
{
closed = 1;
nodes = (
(462,0,l),
(476,73,l),
(95,73,l),
(95,38,l),
(584,627,l),
(598,700,l),
(158,700,l),
(144,627,l),
(525,627,l),
(525,662,l),
(36,73,l),
(22,0,l)
);
}
);
width = 581;
},
{
layerId = m008;
shapes = (
{
closed = 1;
nodes = (
(502,0,l),
(524,113,l),
(154,113,l),
(154,80,l),
(616,587,l),
(638,700,l),
(148,700,l),
(126,587,l),
(496,587,l),
(496,620,l),
(34,113,l),
(12,0,l)
);
}
);
width = 611;
},
{
layerId = m006;
shapes = (
{
closed = 1;
nodes = (
(457,0,l),
(467,53,l),
(72,53,l),
(72,18,l),
(583,647,l),
(593,700,l),
(163,700,l),
(153,647,l),
(548,647,l),
(548,682,l),
(37,53,l),
(27,0,l)
);
}
);
width = 581;
}
);
unicode = 90;
},
{
glyphname = R.ss01;
kernLeft = H;
kernRight = R;
lastChange = "2023-01-04 22:05:23 +0000";
layers = (
{
layerId = m01;
shapes = (
{
closed = 1;
nodes = (
(163,0,l),
(163,309,l),
(325,309,ls),
(450,309,o),
(536,388,o),
(536,504,cs),
(536,621,o),
(450,700,o),
(325,700,cs),
(85,700,l),
(85,0,l)
);
},
{
closed = 1;
nodes = (
(550,0,l),
(366,350,l),
(282,343,l),
(461,0,l)
);
},
{
closed = 1;
nodes = (
(163,627,l),
(325,627,ls),
(404,627,o),
(458,577,o),
(458,504,cs),
(458,431,o),
(405,382,o),
(325,382,cs),
(163,382,l)
);
}
);
width = 595;
},
{
layerId = m005;
shapes = (
{
closed = 1;
nodes = (
(213,0,l),
(213,268,l),
(315,268,ls),
(478,268,o),
(586,354,o),
(586,484,cs),
(586,614,o),
(478,700,o),
(315,700,cs),
(75,700,l),
(75,0,l)
);
},
{
closed = 1;
nodes = (
(597,0,l),
(391,372,l),
(245,359,l),
(443,0,l)
);
},
{
closed = 1;
nodes = (
(213,587,l),
(315,587,ls),
(397,587,o),
(448,548,o),
(448,484,cs),
(448,420,o),
(397,381,o),
(315,381,cs),
(213,381,l)
);
}
);
width = 632;
},
{
layerId = m007;
shapes = (
{
closed = 1;
nodes = (
(148,0,l),
(148,329,l),
(300,329,ls),
(437,329,o),
(521,399,o),
(521,514,cs),
(521,630,o),
(438,700,o),
(300,700,cs),
(90,700,l),
(90,0,l)
);
},
{
closed = 1;
nodes = (
(528,0,l),
(355,349,l),
(291,344,l),
(460,0,l)
);
},
{
closed = 1;
nodes = (
(148,647,l),
(300,647,ls),
(406,647,o),
(463,601,o),
(463,514,cs),
(463,427,o),
(407,382,o),
(300,382,cs),
(148,382,l)
);
}
);
width = 578;
},
{
layerId = m004;
shapes = (
{
closed = 1;
nodes = (
(114,0,l),
(174,309,l),
(326,309,ls),
(474,309,o),
(582,398,o),
(582,521,cs),
(582,628,o),
(501,700,o),
(382,700,cs),
(172,700,l),
(36,0,l)
);
},
{
closed = 1;
nodes = (
(501,0,l),
(385,350,l),
(308,343,l),
(420,0,l)
);
},
{
closed = 1;
nodes = (
(236,627,l),
(378,627,ls),
(457,627,o),
(506,585,o),
(506,517,cs),
(506,436,o),
(436,382,o),
(330,382,cs),
(188,382,l)
);
}
);
width = 595;
},
{
layerId = m008;
shapes = (
{
closed = 1;
nodes = (
(164,0,l),
(216,268,l),
(340,268,ls),
(507,268,o),
(629,365,o),
(629,499,cs),
(629,620,o),
(529,700,o),
(380,700,cs),
(162,700,l),
(26,0,l)
);
},
{
closed = 1;
nodes = (
(548,0,l),
(414,372,l),
(276,359,l),
(404,0,l)
);
},
{
closed = 1;
nodes = (
(278,587,l),
(380,587,ls),
(450,587,o),
(493,554,o),
(493,500,cs),
(493,433,o),
(427,381,o),
(340,381,cs),
(238,381,l)
);
}
);
width = 632;
},
{
layerId = m006;
shapes = (
{
closed = 1;
nodes = (
(99,0,l),
(163,329,l),
(315,329,ls),
(469,329,o),
(571,409,o),
(571,529,cs),
(571,632,o),
(497,700,o),
(387,700,cs),
(177,700,l),
(41,0,l)
);
},
{
closed = 1;
nodes = (
(479,0,l),
(374,349,l),
(314,344,l),
(416,0,l)
);
},
{
closed = 1;
nodes = (
(225,647,l),
(377,647,ls),
(462,647,o),
(515,601,o),
(515,529,cs),
(515,442,o),
(437,382,o),
(325,382,cs),
(173,382,l)
);
}
);
width = 578;
}
);
metricLeft = R;
metricRight = "=R-20";
},
{
glyphname = Y.ss02;
kernLeft = Yalt;
kernRight = Yalt;
lastChange = "2022-12-30 21:16:16 +0000";
layers = (
{
layerId = m01;
shapes = (
{
closed = 1;
nodes = (
(331,276,l),
(588,700,l),
(500,700,l),
(271,322,l),
(317,322,l),
(88,700,l),
(0,700,l),
(257,276,l)
);
},
{
closed = 1;
nodes = (
(333,0,l),
(333,317,l),
(255,317,l),
(255,0,l)
);
}
);
width = 588;
},
{
layerId = m005;
shapes = (
{
closed = 1;
nodes = (
(379,257,l),
(666,700,l),
(514,700,l),
(303,377,l),
(353,377,l),
(142,700,l),
(-10,700,l),
(277,257,l)
);
},
{
closed = 1;
nodes = (
(397,0,l),
(397,337,l),
(259,337,l),
(259,0,l)
);
}
);
width = 656;
},
{
layerId = m007;
shapes = (
{
closed = 1;
nodes = (
(297,260,l),
(557,700,l),
(493,700,l),
(258,302,l),
(304,302,l),
(69,700,l),
(5,700,l),
(265,260,l)
);
},
{
closed = 1;
nodes = (
(310,0,l),
(310,324,l),
(252,324,l),
(252,0,l)
);
}
);
width = 562;
},
{
layerId = m004;
shapes = (
{
closed = 1;
nodes = (
(329,266,l),
(675,700,l),
(583,700,l),
(283,325,l),
(325,325,l),
(171,700,l),
(87,700,l),
(265,267,l)
);
},
{
closed = 1;
nodes = (
(284,0,l),
(346,317,l),
(268,317,l),
(206,0,l)
);
}
);
width = 588;
},
{
layerId = m008;
shapes = (
{
closed = 1;
nodes = (
(380,257,l),
(753,700,l),
(591,700,l),
(321,381,l),
(366,381,l),
(219,700,l),
(77,700,l),
(278,257,l)
);
},
{
closed = 1;
nodes = (
(348,0,l),
(413,337,l),
(275,337,l),
(210,0,l)
);
}
);
width = 656;
},
{
layerId = m006;
shapes = (
{
closed = 1;
nodes = (
(299,260,l),
(644,700,l),
(580,700,l),
(268,303,l),
(310,303,l),
(152,700,l),
(92,700,l),
(267,260,l)
);
},
{
closed = 1;
nodes = (
(261,0,l),
(324,324,l),
(266,324,l),
(203,0,l)
);
}
);
width = 562;
}
);
metricLeft = "=Y-20";
metricRight = "=Y-20";
},
{
glyphname = Oslash.ss03;
kernLeft = O;
kernRight = O;
lastChange = "2022-12-31 10:50:57 +0000";
layers = (
{
layerId = m01;
shapes = (
{
closed = 1;
nodes = (
(98,0,l),
(753,700,l),
(665,700,l),
(10,0,l)
);
},
{
ref = O;
}
);
width = 763;
},
{
layerId = m005;
shapes = (
{
closed = 1;
nodes = (
(129,0,l),
(795,700,l),
(666,700,l),
(0,0,l)
);
},
{
pos = (-4,0);
ref = O;
}
);
width = 795;
},
{
layerId = m007;
shapes = (
{
closed = 1;
nodes = (
(76,0,l),
(712,700,l),
(651,700,l),
(15,0,l)
);
},
{
pos = (-13,0);
ref = O;
}
);
width = 727;
},
{
layerId = m004;
shapes = (
{
closed = 1;
nodes = (
(53,0,l),
(844,700,l),
(752,700,l),
(-39,0,l)
);
},
{
pos = (3,0);
ref = O;
}
);
width = 767;
},
{
layerId = m008;
shapes = (
{
closed = 1;
nodes = (
(90,0,l),
(892,700,l),
(753,700,l),
(-49,0,l)
);
},
{
pos = (-2,0);
ref = O;
}
);
width = 805;
},
{
layerId = m006;
shapes = (
{
closed = 1;
nodes = (
(27,0,l),
(799,700,l),
(738,700,l),
(-34,0,l)
);
},
{
pos = (-12,0);
ref = O;
}
);
width = 727;
}
);
metricLeft = "=O-50";
metricRight = "=O-50";
},
{
glyphname = Q.ss03;
kernLeft = O;
kernRight = Q;
lastChange = "2022-12-31 10:20:28 +0000";
layers = (
{
layerId = m01;
shapes = (
{
closed = 1;
nodes = (
(717,0,l),
(416,346,l),
(328,346,l),
(629,0,l)
);
},
{
ref = O;
}
);
width = 772;
},
{
layerId = m005;
shapes = (
{
closed = 1;
nodes = (
(801,0,l),
(473,346,l),
(318,346,l),
(646,0,l)
);
},
{
ref = O;
}
);
width = 846;
},
{
layerId = m007;
shapes = (
{
closed = 1;
nodes = (
(685,0,l),
(401,346,l),
(340,346,l),
(624,0,l)
);
},
{
ref = O;
}
);
width = 749;
},
{
layerId = m004;
shapes = (
{
closed = 1;
nodes = (
(679,0,l),
(445,346,l),
(357,346,l),
(591,0,l)
);
},
{
ref = O;
}
);
width = 783;
},
{
layerId = m008;
shapes = (
{
closed = 1;
nodes = (
(733,0,l),
(472,346,l),
(337,346,l),
(598,0,l)
);
},
{
ref = O;
}
);
width = 827;
},
{
layerId = m006;
shapes = (
{
closed = 1;
nodes = (
(637,0,l),
(420,346,l),
(359,346,l),
(576,0,l)
);
},
{
ref = O;
}
);
width = 748;
}
);
metricLeft = Q;
metricRight = "=Q+15";
},
{
glyphname = a;
kernLeft = a;
kernRight = u;
lastChange = "2022-12-31 10:58:48 +0000";
layers = (
{
layerId = m01;
shapes = (
{
closed = 1;
nodes = (
(322,-16,o),
(396,65,o),
(396,180,c),
(386,140,l),
(386,0,l),
(461,0,l),
(461,331,ls),
(461,453,o),
(397,516,o),
(275,516,cs),
(148,516,o),
(63,448,o),
(63,348,c),
(136,338,l),
(136,401,o),
(194,443,o),
(280,443,cs),
(339,443,o),
(373,424,o),
(382,385,cs),
(393,337,o),
(356,311,o),
(269,307,cs),
(133,301,o),
(50,238,o),
(50,142,cs),
(50,51,o),
(121,-16,o),
(217,-16,cs)
);
},
{
closed = 1;
nodes = (
(168,57,o),
(128,91,o),
(128,143,cs),
(128,202,o),
(181,237,o),
(274,240,cs),
(358,243,o),
(401,271,o),
(401,323,c),
(386,313,l),
(386,243,ls),
(386,135,o),
(320,57,o),
(229,57,cs)
);
}
);
width = 526;
},
{
layerId = m005;
shapes = (
{
closed = 1;
nodes = (
(325,-16,o),
(386,56,o),
(386,180,c),
(376,141,l),
(376,0,l),
(511,0,l),
(511,326,ls),
(511,451,o),
(440,516,o),
(302,516,cs),
(154,516,o),
(54,442,o),
(54,332,c),
(188,322,l),
(188,374,o),
(223,403,o),
(285,403,cs),
(334,403,o),
(367,385,o),
(374,355,cs),
(382,319,o),
(346,300,o),
(264,296,cs),
(121,288,o),
(40,231,o),
(40,139,cs),
(40,51,o),
(118,-16,o),
(220,-16,cs)
);
},
{
closed = 1;
nodes = (
(207,97,o),
(178,114,o),
(178,147,cs),
(178,199,o),
(243,203,o),
(295,210,cs),
(365,218,o),
(406,268,o),
(406,338,c),
(376,318,l),
(376,243,ls),
(376,169,o),
(310,97,o),
(241,97,cs)
);
}
);
width = 566;
},
{
layerId = m007;
shapes = (
{
closed = 1;
nodes = (
(320,-16,o),
(401,69,o),
(401,180,c),
(391,129,l),
(391,0,l),
(446,0,l),
(446,341,ls),
(446,457,o),
(387,516,o),
(273,516,cs),
(155,516,o),
(72,452,o),
(68,357,c),
(121,349,l),
(127,418,o),
(188,463,o),
(275,463,cs),
(343,463,o),
(382,435,o),
(388,381,cs),
(394,327,o),
(356,301,o),
(266,297,cs),
(131,291,o),
(55,234,o),
(55,138,cs),
(55,48,o),
(122,-16,o),
(214,-16,cs)
);
},
{
closed = 1;
nodes = (
(160,37,o),
(113,81,o),
(113,139,cs),
(113,208,o),
(177,247,o),
(295,251,cs),
(363,253,o),
(406,287,o),
(406,339,c),
(391,299,l),
(391,233,ls),
(391,126,o),
(315,37,o),
(224,37,cs)
);
}
);
width = 516;
},
{
layerId = m004;
shapes = (
{
closed = 1;
nodes = (
(281,-16,o),
(358,60,o),
(382,180,c),
(364,140,l),
(337,0,l),
(412,0,l),
(475,323,ls),
(497,438,o),
(427,516,o),
(303,516,cs),
(189,516,o),
(102,450,o),
(82,348,c),
(153,338,l),
(165,403,o),
(222,443,o),
(302,443,cs),
(368,443,o),
(406,417,o),
(408,371,cs),
(410,323,o),
(379,306,o),
(288,303,cs),
(118,297,o),
(31,240,o),
(31,137,cs),
(31,47,o),
(93,-16,o),
(182,-16,cs)
);
},
{
closed = 1;
nodes = (
(143,57,o),
(108,88,o),
(108,138,cs),
(108,199,o),
(174,238,o),
(280,241,cs),
(366,244,o),
(410,269,o),
(420,323,c),
(398,313,l),
(384,243,ls),
(362,134,o),
(285,57,o),
(198,57,cs)
);
}
);
width = 526;
},
{
layerId = m008;
shapes = (
{
closed = 1;
nodes = (
(271,-16,o),
(353,61,o),
(377,180,c),
(354,141,l),
(327,0,l),
(462,0,l),
(518,291,ls),
(544,423,o),
(464,516,o),
(325,516,cs),
(195,516,o),
(89,439,o),
(70,332,c),
(202,322,l),
(211,370,o),
(258,403,o),
(319,403,cs),
(366,403,o),
(395,382,o),
(396,346,cs),
(398,312,o),
(374,300,o),
(296,296,cs),
(113,285,o),
(18,226,o),
(18,124,cs),
(18,40,o),
(78,-16,o),
(167,-16,cs)
);
},
{
closed = 1;
nodes = (
(180,97,o),
(159,112,o),
(159,141,cs),
(159,177,o),
(195,199,o),
(265,208,cs),
(350,218,o),
(397,250,o),
(403,303,c),
(386,303,l),
(374,243,ls),
(355,154,o),
(295,97,o),
(220,97,cs)
);
}
);
width = 566;
},
{
layerId = m006;
shapes = (
{
closed = 1;
nodes = (
(282,-16,o),
(363,62,o),
(387,180,c),
(367,129,l),
(342,0,l),
(397,0,l),
(463,339,ls),
(483,446,o),
(419,516,o),
(303,516,cs),
(194,516,o),
(111,454,o),
(88,357,c),
(140,347,l),
(158,419,o),
(219,463,o),
(300,463,cs),
(371,463,o),
(414,431,o),
(414,379,cs),
(414,325,o),
(375,301,o),
(280,297,cs),
(122,291,o),
(35,232,o),
(35,131,cs),
(35,44,o),
(94,-16,o),
(181,-16,cs)
);
},
{
closed = 1;
nodes = (
(129,37,o),
(92,73,o),
(92,130,cs),
(92,202,o),
(159,246,o),
(274,250,cs),
(365,253,o),
(414,282,o),
(424,339,c),
(400,299,l),
(387,233,ls),
(365,121,o),
(280,37,o),
(188,37,cs)
);
}
);
width = 516;
}
);
metricRight = "=u-10";
unicode = 97;
},
{
glyphname = ae;
kernLeft = a;
kernRight = o;
lastChange = "2022-12-31 10:32:36 +0000";
layers = (
{
layerId = m01;
shapes = (
{
closed = 1;
nodes = (
(729,-16,o),
(814,48,o),
(834,144,c),
(756,154,l),
(742,95,o),
(689,57,o),
(621,57,cs),
(530,57,o),
(464,129,o),
(464,230,c),
(837,230,l),
(837,248,ls),
(837,405,o),
(744,516,o),
(613,516,cs),
(482,516,o),
(386,404,o),
(386,250,cs),
(386,94,o),
(484,-16,o),
(623,-16,cs)
);
},
{
closed = 1;
nodes = (
(168,57,o),
(128,90,o),
(128,142,cs),
(128,202,o),
(181,237,o),
(274,240,cs),
(357,243,o),
(401,272,o),
(401,323,c),
(386,313,l),
(386,243,ls),
(386,131,o),
(325,57,o),
(231,57,cs)
);
},
{
closed = 1;
nodes = (
(347,-16,o),
(431,79,o),
(431,210,c),
(461,331,l),
(461,453,o),
(397,516,o),
(275,516,cs),
(148,516,o),
(63,448,o),
(63,348,c),
(136,338,l),
(136,403,o),
(186,443,o),
(269,443,cs),
(332,443,o),
(374,420,o),
(383,381,cs),
(394,336,o),
(355,311,o),
(269,307,cs),
(131,301,o),
(50,240,o),
(50,141,cs),
(50,48,o),
(121,-16,o),
(223,-16,cs)
);
},
{
closed = 1;
nodes = (
(464,382,o),
(527,443,o),
(612,443,cs),
(697,443,o),
(759,382,o),
(759,298,c),
(464,298,l)
);
}
);
width = 877;
},
{
layerId = m005;
shapes = (
{
closed = 1;
nodes = (
(767,-16,o),
(862,50,o),
(877,147,c),
(741,157,l),
(726,120,o),
(686,97,o),
(637,97,cs),
(566,97,o),
(515,144,o),
(515,210,c),
(877,210,l),
(877,248,ls),
(877,404,o),
(772,516,o),
(627,516,cs),
(482,516,o),
(376,403,o),
(376,250,cs),
(376,92,o),
(485,-16,o),
(643,-16,cs)
);
},
{
closed = 1;
nodes = (
(201,97,o),
(178,115,o),
(178,147,cs),
(178,181,o),
(205,198,o),
(295,210,cs),
(364,218,o),
(406,267,o),
(406,338,c),
(376,318,l),
(376,243,ls),
(376,164,o),
(314,97,o),
(241,97,cs)
);
},
{
closed = 1;
nodes = (
(347,-16,o),
(436,74,o),
(436,200,c),
(511,326,l),
(511,451,o),
(439,516,o),
(302,516,cs),
(154,516,o),
(54,442,o),
(54,332,c),
(188,322,l),
(188,373,o),
(224,403,o),
(285,403,cs),
(335,403,o),
(367,386,o),
(374,355,cs),
(382,319,o),
(346,300,o),
(264,296,cs),
(120,288,o),
(40,232,o),
(40,137,cs),
(40,47,o),
(115,-16,o),
(221,-16,cs)
);
},
{
closed = 1;
nodes = (
(515,363,o),
(563,403,o),
(627,403,cs),
(692,403,o),
(738,363,o),
(738,308,c),
(515,308,l)
);
}
);
width = 907;
},
{
layerId = m007;
shapes = (
{
closed = 1;
nodes = (
(717,-16,o),
(793,42,o),
(817,135,c),
(758,143,l),
(739,77,o),
(685,37,o),
(617,37,cs),
(518,37,o),
(449,120,o),
(449,240,c),
(822,240,l),
(822,248,ls),
(822,409,o),
(737,516,o),
(608,516,cs),
(480,516,o),
(391,406,o),
(391,248,cs),
(391,89,o),
(481,-16,o),
(617,-16,cs)
);
},
{
closed = 1;
nodes = (
(160,37,o),
(113,80,o),
(113,139,cs),
(113,208,o),
(177,247,o),
(295,251,cs),
(363,253,o),
(406,287,o),
(406,339,c),
(391,299,l),
(391,233,ls),
(391,122,o),
(319,37,o),
(226,37,cs)
);
},
{
closed = 1;
nodes = (
(336,-16,o),
(421,71,o),
(421,190,c),
(446,331,l),
(446,455,o),
(389,516,o),
(273,516,cs),
(155,516,o),
(72,452,o),
(68,357,c),
(121,349,l),
(127,419,o),
(182,463,o),
(265,463,cs),
(334,463,o),
(382,431,o),
(388,381,cs),
(394,329,o),
(353,301,o),
(266,297,cs),
(135,291,o),
(55,230,o),
(55,135,cs),
(55,46,o),
(122,-16,o),
(220,-16,cs)
);
},
{
closed = 1;
nodes = (
(449,391,o),
(515,463,o),
(608,463,cs),
(700,463,o),
(764,392,o),
(764,288,c),
(449,288,l)
);
}
);
width = 867;
},
{
layerId = m004;
shapes = (
{
closed = 1;
nodes = (
(695,-16,o),
(777,42,o),
(817,144,c),
(741,154,l),
(712,92,o),
(658,57,o),
(595,57,cs),
(501,57,o),
(443,134,o),
(464,230,c),
(837,230,l),
(843,265,ls),
(868,410,o),
(787,516,o),
(652,516,cs),
(504,516,o),
(385,378,o),
(385,207,cs),
(385,70,o),
(465,-16,o),
(592,-16,cs)
);
},
{
closed = 1;
nodes = (
(146,57,o),
(108,86,o),
(108,134,cs),
(108,198,o),
(174,238,o),
(282,241,cs),
(367,244,o),
(410,269,o),
(420,323,c),
(398,313,l),
(384,243,ls),
(359,119,o),
(301,57,o),
(209,57,cs)
);
},
{
closed = 1;
nodes = (
(312,-16,o),
(408,74,o),
(412,190,c),
(475,323,l),
(497,438,o),
(427,516,o),
(303,516,cs),
(189,516,o),
(102,450,o),
(82,348,c),
(153,338,l),
(165,403,o),
(222,443,o),
(303,443,cs),
(369,443,o),
(406,416,o),
(408,368,cs),
(410,323,o),
(379,306,o),
(287,303,cs),
(118,297,o),
(31,240,o),
(31,135,cs),
(31,44,o),
(95,-16,o),
(192,-16,cs)
);
},
{
closed = 1;
nodes = (
(495,387,o),
(560,443,o),
(643,443,cs),
(732,443,o),
(789,379,o),
(772,298,c),
(477,298,l)
);
}
);
width = 881;
},
{
layerId = m008;
shapes = (
{
closed = 1;
nodes = (
(726,-16,o),
(816,43,o),
(852,147,c),
(717,157,l),
(693,118,o),
(654,97,o),
(608,97,cs),
(537,97,o),
(490,147,o),
(502,210,c),
(864,210,l),
(871,248,ls),
(898,392,o),
(794,516,o),
(647,516,cs),
(496,516,o),
(376,382,o),
(376,212,cs),
(376,70,o),
(462,-16,o),
(606,-16,cs)
);
},
{
closed = 1;
nodes = (
(180,97,o),
(159,112,o),
(159,141,cs),
(159,177,o),
(195,199,o),
(265,208,cs),
(350,218,o),
(397,250,o),
(403,303,c),
(386,303,l),
(374,243,ls),
(356,154,o),
(295,97,o),
(220,97,cs)
);
},
{
closed = 1;
nodes = (
(291,-16,o),
(403,61,o),
(417,180,c),
(518,291,l),
(544,423,o),
(464,516,o),
(325,516,cs),
(195,516,o),
(89,439,o),
(70,332,c),
(202,322,l),
(211,370,o),
(258,403,o),
(319,403,cs),
(366,403,o),
(395,382,o),
(396,346,cs),
(398,312,o),
(374,300,o),
(296,296,cs),
(113,285,o),
(18,226,o),
(18,124,cs),
(18,40,o),
(78,-16,o),
(167,-16,cs)
);
},
{
closed = 1;
nodes = (
(531,367,o),
(575,403,o),
(638,403,cs),
(707,403,o),
(755,360,o),
(744,308,c),
(521,308,l)
);
}
);
width = 902;
},
{
layerId = m006;
shapes = (
{
closed = 1;
nodes = (
(674,-16,o),
(748,38,o),
(793,135,c),
(736,145,l),
(702,78,o),
(645,37,o),
(585,37,cs),
(492,37,o),
(425,134,o),
(446,240,c),
(819,240,l),
(820,248,ls),
(840,406,o),
(765,516,o),
(637,516,cs),
(499,516,o),
(396,387,o),
(396,214,cs),
(396,71,o),
(467,-16,o),
(583,-16,cs)
);
},
{
closed = 1;
nodes = (
(131,37,o),
(92,72,o),
(92,128,cs),
(92,201,o),
(158,246,o),
(273,250,cs),
(365,253,o),
(414,282,o),
(424,339,c),
(400,299,l),
(387,233,ls),
(364,115,o),
(286,37,o),
(193,37,cs)
);
},
{
closed = 1;
nodes = (
(297,-16,o),
(389,68,o),
(412,190,c),
(463,339,l),
(483,446,o),
(419,516,o),
(303,516,cs),
(194,516,o),
(111,454,o),
(88,357,c),
(140,347,l),
(158,419,o),
(219,463,o),
(301,463,cs),
(371,463,o),
(414,431,o),
(414,377,cs),
(414,324,o),
(374,301,o),
(277,297,cs),
(121,291,o),
(35,231,o),
(35,129,cs),
(35,42,o),
(96,-16,o),
(187,-16,cs)
);
},
{
closed = 1;
nodes = (
(476,394,o),
(546,463,o),
(634,463,cs),
(723,463,o),
(779,391,o),
(770,288,c),
(455,288,l)
);
}
);
width = 866;
}
);
metricLeft = a;
metricRight = e;
unicode = 230;
},
{
glyphname = b;
kernLeft = l;
kernRight = o;
lastChange = "2022-12-31 10:59:07 +0000";
layers = (
{
layerId = m01;
shapes = (
{
closed = 1;
nodes = (
(444,-16,o),
(536,95,o),
(536,250,cs),
(536,405,o),
(444,516,o),
(314,516,cs),
(208,516,o),
(135,441,o),
(135,330,cs),
(135,170,ls),
(135,59,o),
(208,-16,o),
(314,-16,cs)
);
},
{
closed = 1;
nodes = (
(150,0,l),
(150,700,l),
(75,700,l),
(75,0,l)
);
},
{
closed = 1;
nodes = (
(212,57,o),
(150,135,o),
(150,250,cs),
(150,365,o),
(212,443,o),
(304,443,cs),
(396,443,o),
(458,365,o),
(458,250,cs),
(458,135,o),
(396,57,o),
(304,57,cs)
);
}
);
width = 581;
},
{
layerId = m005;
shapes = (
{
closed = 1;
nodes = (
(494,-16,o),
(586,95,o),
(586,250,cs),
(586,405,o),
(494,516,o),
(364,516,cs),
(249,516,o),
(175,428,o),
(175,290,cs),
(175,210,ls),
(175,72,o),
(249,-16,o),
(364,-16,cs)
);
},
{
closed = 1;
nodes = (
(200,0,l),
(200,700,l),
(65,700,l),
(65,0,l)
);
},
{
closed = 1;
nodes = (
(250,97,o),
(200,158,o),
(200,250,cs),
(200,342,o),
(250,403,o),
(324,403,cs),
(398,403,o),
(448,342,o),
(448,250,cs),
(448,158,o),
(398,97,o),
(324,97,cs)
);
}
);
width = 621;
},
{
layerId = m007;
shapes = (
{
closed = 1;
nodes = (
(436,-16,o),
(521,91,o),
(521,250,cs),
(521,409,o),
(436,516,o),
(309,516,cs),
(199,516,o),
(115,436,o),
(115,330,cs),
(115,170,ls),
(115,64,o),
(199,-16,o),
(309,-16,cs)
);
},
{
closed = 1;
nodes = (
(135,0,l),
(135,700,l),
(80,700,l),
(80,0,l)
);
},
{
closed = 1;
nodes = (
(201,37,o),
(135,123,o),
(135,250,cs),
(135,377,o),
(201,463,o),
(299,463,cs),
(397,463,o),
(463,377,o),
(463,250,cs),
(463,123,o),
(397,37,o),
(299,37,cs)
);
}
);
width = 571;
},
{
layerId = m004;
shapes = (
{
closed = 1;
nodes = (
(423,-16,o),
(539,119,o),
(539,291,cs),
(539,426,o),
(461,516,o),
(343,516,cs),
(241,516,o),
(170,446,o),
(146,323,cs),
(121,193,ls),
(96,67,o),
(158,-16,o),
(276,-16,cs)
);
},
{
closed = 1;
nodes = (
(101,0,l),
(237,700,l),
(162,700,l),
(26,0,l)
);
},
{
closed = 1;
nodes = (
(180,57,o),
(129,143,o),
(153,267,cs),
(176,381,o),
(234,443,o),
(319,443,cs),
(405,443,o),
(461,383,o),
(461,291,cs),
(461,160,o),
(381,57,o),
(279,57,cs)
);
}
);
width = 583;
},
{
layerId = m008;
shapes = (
{
closed = 1;
nodes = (
(470,-16,o),
(583,120,o),
(583,286,cs),
(583,422,o),
(509,516,o),
(403,516,cs),
(297,516,o),
(207,424,o),
(182,290,cs),
(167,210,ls),
(142,81,o),
(213,-16,o),
(331,-16,cs)
);
},
{
closed = 1;
nodes = (
(151,0,l),
(287,700,l),
(152,700,l),
(16,0,l)
);
},
{
closed = 1;
nodes = (
(223,97,o),
(182,163,o),
(201,256,cs),
(217,341,o),
(279,403,o),
(349,403,cs),
(411,403,o),
(447,354,o),
(447,272,cs),
(447,171,o),
(384,97,o),
(299,97,cs)
);
}
);
width = 618;
},
{
layerId = m006;
shapes = (
{
closed = 1;
nodes = (
(419,-16,o),
(524,118,o),
(524,295,cs),
(524,433,o),
(456,516,o),
(343,516,cs),
(235,516,o),
(152,441,o),
(127,321,cs),
(107,226,ls),
(78,90,o),
(154,-16,o),
(280,-16,cs)
);
},
{
closed = 1;
nodes = (
(86,0,l),
(222,700,l),
(167,700,l),
(31,0,l)
);
},
{
closed = 1;
nodes = (
(173,37,o),
(112,136,o),
(138,264,cs),
(161,380,o),
(242,463,o),
(333,463,cs),
(415,463,o),
(467,395,o),
(467,289,cs),
(467,148,o),
(383,37,o),
(276,37,cs)
);
}
);
width = 573;
}
);
metricLeft = l;
metricRight = o;
unicode = 98;
},
{
glyphname = c;
kernLeft = o;
kernRight = o;
lastChange = "2022-12-31 10:20:28 +0000";
layers = (
{
layerId = m01;
shapes = (
{
closed = 1;
nodes = (
(400,-16,o),
(491,64,o),
(501,177,c),
(423,187,l),
(417,108,o),
(361,57,o),
(281,57,cs),
(184,57,o),
(123,131,o),
(123,248,cs),
(123,365,o),
(186,443,o),
(281,443,cs),
(360,443,o),
(417,389,o),
(423,307,c),
(501,317,l),
(491,432,o),
(399,516,o),
(281,516,cs),
(143,516,o),
(45,405,o),
(45,248,cs),
(45,93,o),
(142,-16,o),
(281,-16,cs)
);
}
);
width = 546;
},
{
layerId = m005;
shapes = (
{
closed = 1;
nodes = (
(437,-16,o),
(529,59,o),
(543,183,c),
(397,193,l),
(384,127,o),
(352,97,o),
(296,97,cs),
(221,97,o),
(183,148,o),
(183,248,cs),
(183,349,o),
(223,403,o),
(296,403,cs),
(352,403,o),
(383,372,o),
(397,301,c),
(543,311,l),
(528,438,o),
(434,516,o),
(296,516,cs),
(136,516,o),
(35,412,o),
(35,247,cs),
(35,83,o),
(134,-16,o),
(296,-16,cs)
);
}
);
width = 578;
},
{
layerId = m007;
shapes = (
{
closed = 1;
nodes = (
(390,-16,o),
(471,59,o),
(485,178,c),
(427,186,l),
(416,92,o),
(360,37,o),
(276,37,cs),
(174,37,o),
(108,120,o),
(108,248,cs),
(108,377,o),
(175,463,o),
(276,463,cs),
(360,463,o),
(416,405,o),
(427,308,c),
(485,316,l),
(471,437,o),
(388,516,o),
(276,516,cs),
(141,516,o),
(50,408,o),
(50,248,cs),
(50,91,o),
(141,-16,o),
(276,-16,cs)
);
}
);
width = 535;
},
{
layerId = m004;
shapes = (
{
closed = 1;
nodes = (
(365,-16,o),
(445,52,o),
(481,177,c),
(405,187,l),
(382,103,o),
(329,57,o),
(255,57,cs),
(169,57,o),
(120,112,o),
(120,209,cs),
(120,337,o),
(202,443,o),
(300,443,cs),
(372,443,o),
(425,388,o),
(430,307,c),
(510,317,l),
(504,431,o),
(415,516,o),
(300,516,cs),
(159,516,o),
(44,379,o),
(44,212,cs),
(44,74,o),
(127,-16,o),
(255,-16,cs)
);
}
);
width = 542;
},
{
layerId = m008;
shapes = (
{
closed = 1;
nodes = (
(400,-16,o),
(502,62,o),
(534,181,c),
(399,191,l),
(382,135,o),
(332,97,o),
(277,97,cs),
(210,97,o),
(172,142,o),
(172,221,cs),
(172,322,o),
(238,403,o),
(320,403,cs),
(378,403,o),
(417,363,o),
(419,303,c),
(558,313,l),
(561,430,o),
(460,516,o),
(320,516,cs),
(157,516,o),
(37,394,o),
(37,228,cs),
(37,84,o),
(136,-16,o),
(277,-16,cs)
);
}
);
width = 582;
},
{
layerId = m006;
shapes = (
{
closed = 1;
nodes = (
(345,-16,o),
(426,52,o),
(464,166,c),
(408,176,l),
(380,89,o),
(320,37,o),
(248,37,cs),
(160,37,o),
(107,103,o),
(107,211,cs),
(107,352,o),
(190,463,o),
(297,463,cs),
(374,463,o),
(426,408,o),
(435,318,c),
(495,328,l),
(485,441,o),
(408,516,o),
(300,516,cs),
(158,516,o),
(50,384,o),
(50,211,cs),
(50,75,o),
(128,-16,o),
(246,-16,cs)
);
}
);
width = 530;
}
);
metricLeft = o;
metricRight = o;
unicode = 99;
},
{
glyphname = d;
kernLeft = o;
kernRight = l;
lastChange = "2022-12-31 10:20:28 +0000";
layers = (
{
layerId = m01;
shapes = (
{
closed = 1;
nodes = (
(373,-16,o),
(446,59,o),
(446,170,cs),
(446,330,ls),
(446,441,o),
(373,516,o),
(267,516,cs),
(137,516,o),
(45,406,o),
(45,250,cs),
(45,95,o),
(138,-16,o),
(267,-16,cs)
);
},
{
closed = 1;
nodes = (
(185,57,o),
(123,135,o),
(123,250,cs),
(123,365,o),
(185,443,o),
(277,443,cs),
(369,443,o),
(431,365,o),
(431,250,cs),
(431,135,o),
(369,57,o),
(277,57,cs)
);
},
{
closed = 1;
nodes = (
(506,0,l),
(506,700,l),
(431,700,l),
(431,0,l)
);
}
);
width = 581;
},
{
layerId = m005;
shapes = (
{
closed = 1;
nodes = (
(372,-16,o),
(446,73,o),
(446,210,cs),
(446,290,ls),
(446,427,o),
(372,516,o),
(257,516,cs),
(126,516,o),
(35,407,o),
(35,250,cs),
(35,95,o),
(128,-16,o),
(257,-16,cs)
);
},
{
closed = 1;
nodes = (
(223,97,o),
(173,158,o),
(173,250,cs),
(173,342,o),
(223,403,o),
(297,403,cs),
(371,403,o),
(421,342,o),
(421,250,cs),
(421,158,o),
(371,97,o),
(297,97,cs)
);
},
{
closed = 1;
nodes = (
(556,0,l),
(556,700,l),
(421,700,l),
(421,0,l)
);
}
);
width = 621;
},
{
layerId = m007;
shapes = (
{
closed = 1;
nodes = (
(373,-16,o),
(456,64,o),
(456,170,cs),
(456,330,ls),
(456,436,o),
(372,516,o),
(262,516,cs),
(135,516,o),
(50,409,o),
(50,250,cs),
(50,91,o),
(135,-16,o),
(262,-16,cs)
);
},
{
closed = 1;
nodes = (
(174,37,o),
(108,123,o),
(108,250,cs),
(108,377,o),
(174,463,o),
(272,463,cs),
(370,463,o),
(436,377,o),
(436,250,cs),
(436,123,o),
(370,37,o),
(272,37,cs)
);
},
{
closed = 1;
nodes = (
(491,0,l),
(491,700,l),
(436,700,l),
(436,0,l)
);
}
);
width = 571;
},
{
layerId = m004;
shapes = (
{
closed = 1;
nodes = (
(342,-16,o),
(413,54,o),
(437,177,cs),
(462,307,ls),
(487,433,o),
(425,516,o),
(307,516,cs),
(160,516,o),
(44,381,o),
(44,209,cs),
(44,74,o),
(122,-16,o),
(240,-16,cs)
);
},
{
closed = 1;
nodes = (
(178,57,o),
(122,117,o),
(122,209,cs),
(122,340,o),
(202,443,o),
(304,443,cs),
(403,443,o),
(454,357,o),
(430,233,cs),
(407,119,o),
(349,57,o),
(264,57,cs)
);
},
{
closed = 1;
nodes = (
(460,0,l),
(596,700,l),
(521,700,l),
(385,0,l)
);
}
);
width = 584;
},
{
layerId = m008;
shapes = (
{
closed = 1;
nodes = (
(321,-16,o),
(411,76,o),
(436,210,cs),
(451,290,ls),
(476,419,o),
(405,516,o),
(287,516,cs),
(148,516,o),
(35,380,o),
(35,214,cs),
(35,78,o),
(109,-16,o),
(215,-16,cs)
);
},
{
closed = 1;
nodes = (
(207,97,o),
(171,146,o),
(171,228,cs),
(171,329,o),
(234,403,o),
(319,403,cs),
(395,403,o),
(436,337,o),
(417,244,cs),
(401,159,o),
(339,97,o),
(269,97,cs)
);
},
{
closed = 1;
nodes = (
(505,0,l),
(641,700,l),
(506,700,l),
(370,0,l)
);
}
);
width = 619;
},
{
layerId = m006;
shapes = (
{
closed = 1;
nodes = (
(338,-16,o),
(421,59,o),
(446,179,cs),
(466,274,ls),
(495,410,o),
(419,516,o),
(293,516,cs),
(154,516,o),
(49,382,o),
(49,205,cs),
(49,67,o),
(117,-16,o),
(230,-16,cs)
);
},
{
closed = 1;
nodes = (
(158,37,o),
(106,105,o),
(106,211,cs),
(106,352,o),
(190,463,o),
(297,463,cs),
(400,463,o),
(461,364,o),
(435,236,cs),
(412,120,o),
(331,37,o),
(240,37,cs)
);
},
{
closed = 1;
nodes = (
(445,0,l),
(581,700,l),
(526,700,l),
(390,0,l)
);
}
);
width = 574;
}
);
metricLeft = o;
metricRight = l;
unicode = 100;
},
{
glyphname = eth;
kernLeft = o;
kernRight = O;
lastChange = "2022-12-31 10:59:23 +0000";
layers = (
{
layerId = m01;
shapes = (
{
closed = 1;
nodes = (
(438,-16,o),
(529,93,o),
(529,276,cs),
(529,526,o),
(372,716,o),
(166,716,c),
(166,648,l),
(342,648,o),
(459,501,o),
(459,280,c),
(474,270,l),
(474,389,o),
(401,465,o),
(286,465,cs),
(148,465,o),
(45,362,o),
(45,224,cs),
(45,82,o),
(144,-16,o),
(286,-16,cs)
);
},
{
closed = 1;
nodes = (
(192,57,o),
(123,128,o),
(123,226,cs),
(123,324,o),
(190,392,o),
(286,392,cs),
(383,392,o),
(452,323,o),
(452,226,cs),
(452,129,o),
(381,57,o),
(286,57,cs)
);
},
{
closed = 1;
nodes = (
(500,650,l),
(477,695,l),
(169,550,l),
(192,505,l)
);
}
);
width = 589;
},
{
layerId = m005;
shapes = (
{
closed = 1;
nodes = (
(465,-15,o),
(561,94,o),
(561,280,cs),
(561,530,o),
(393,715,o),
(168,715,c),
(168,605,l),
(336,605,o),
(447,495,o),
(447,329,c),
(468,287,l),
(468,395,o),
(395,465,o),
(280,465,cs),
(140,465,o),
(35,362,o),
(35,224,cs),
(35,82,o),
(144,-17,o),
(301,-16,cs)
);
},
{
closed = 1;
nodes = (
(231,97,o),
(183,150,o),
(183,226,cs),
(183,301,o),
(230,352,o),
(301,352,cs),
(373,352,o),
(422,301,o),
(422,226,cs),
(422,151,o),
(372,97,o),
(301,97,cs)
);
},
{
closed = 1;
nodes = (
(531,631,l),
(505,685,l),
(188,537,l),
(214,483,l)
);
}
);
width = 611;
},
{
layerId = m007;
shapes = (
{
closed = 1;
nodes = (
(428,-16,o),
(514,92,o),
(514,276,cs),
(514,520,o),
(366,706,o),
(171,706,c),
(171,658,l),
(330,658,o),
(464,488,o),
(464,285,c),
(468,289,l),
(468,386,o),
(391,454,o),
(281,454,cs),
(145,454,o),
(50,357,o),
(50,220,cs),
(50,80,o),
(144,-16,o),
(281,-16,cs)
);
},
{
closed = 1;
nodes = (
(180,37,o),
(108,114,o),
(108,220,cs),
(108,326,o),
(179,401,o),
(281,401,cs),
(384,401,o),
(457,325,o),
(457,220,cs),
(457,114,o),
(382,37,o),
(281,37,cs)
);
},
{
closed = 1;
nodes = (
(493,645,l),
(475,681,l),
(176,541,l),
(194,505,l)
);
}
);
width = 579;
},
{
layerId = m004;
shapes = (
{
closed = 1;
nodes = (
(403,-16,o),
(495,77,o),
(528,250,cs),
(578,510,o),
(458,716,o),
(256,716,c),
(243,648,l),
(404,648,o),
(503,483,o),
(464,280,c),
(467,260,l),
(498,376,o),
(421,465,o),
(290,465,cs),
(155,465,o),
(54,368,o),
(43,229,cs),
(32,85,o),
(125,-16,o),
(267,-16,cs)
);
},
{
closed = 1;
nodes = (
(181,57,o),
(120,124,o),
(120,220,cs),
(120,322,o),
(190,392,o),
(292,392,cs),
(400,392,o),
(465,314,o),
(444,208,cs),
(426,118,o),
(355,57,o),
(270,57,cs)
);
},
{
closed = 1;
nodes = (
(577,650,l),
(563,695,l),
(227,550,l),
(241,505,l)
);
}
);
width = 588;
},
{
layerId = m008;
shapes = (
{
closed = 1;
nodes = (
(418,-15,o),
(530,95,o),
(564,270,cs),
(612,517,o),
(475,715,o),
(258,715,c),
(237,605,l),
(392,605,o),
(492,483,o),
(462,329,c),
(477,276,l),
(491,387,o),
(415,465,o),
(294,465,cs),
(147,465,o),
(34,359,o),
(34,220,cs),
(34,84,o),
(136,-17,o),
(274,-16,cs)
);
},
{
closed = 1;
nodes = (
(215,98,o),
(170,142,o),
(170,208,cs),
(170,286,o),
(232,351,o),
(308,351,cs),
(373,351,o),
(416,306,o),
(416,238,cs),
(416,157,o),
(359,98,o),
(282,98,cs)
);
},
{
closed = 1;
nodes = (
(605,631,l),
(589,685,l),
(243,537,l),
(259,483,l)
);
}
);
width = 610;
},
{
layerId = m006;
shapes = (
{
closed = 1;
nodes = (
(391,-16,o),
(477,74,o),
(513,247,cs),
(567,511,o),
(459,706,o),
(259,706,c),
(250,658,l),
(421,658,o),
(513,502,o),
(470,285,c),
(470,231,l),
(493,365,o),
(423,454,o),
(296,454,cs),
(154,454,o),
(46,344,o),
(46,200,cs),
(46,70,o),
(131,-16,o),
(260,-16,cs)
);
},
{
closed = 1;
nodes = (
(164,37,o),
(102,103,o),
(102,205,cs),
(102,316,o),
(186,401,o),
(296,401,cs),
(389,401,o),
(448,336,o),
(448,233,cs),
(448,119,o),
(369,37,o),
(260,37,cs)
);
},
{
closed = 1;
nodes = (
(569,645,l),
(558,681,l),
(232,541,l),
(243,505,l)
);
}
);
width = 579;
}
);
metricLeft = d;
unicode = 240;
},
{
glyphname = dcroat;
kernLeft = o;
kernRight = l;
lastChange = "2022-12-31 10:20:28 +0000";
layers = (
{
layerId = m01;
shapes = (
{
closed = 1;
nodes = (
(604,573,l),
(604,627,l),
(244,627,l),
(244,573,l)
);
},
{
ref = d;
}
);
width = 589;
},
{
layerId = m005;
shapes = (
{
closed = 1;
nodes = (
(651,568,l),
(651,630,l),
(263,630,l),
(263,568,l)
);
},
{
ref = d;
}
);
width = 626;
},
{
layerId = m007;
shapes = (
{
closed = 1;
nodes = (
(594,583,l),
(594,617,l),
(254,617,l),
(254,583,l)
);
},
{
ref = d;
}
);
width = 584;
},
{
layerId = m004;
shapes = (
{
closed = 1;
nodes = (
(667,573,l),
(678,627,l),
(318,627,l),
(307,573,l)
);
},
{
ref = d;
}
);
width = 590;
},
{
layerId = m008;
shapes = (
{
closed = 1;
nodes = (
(713,568,l),
(725,630,l),
(337,630,l),
(325,568,l)
);
},
{
ref = d;
}
);
width = 626;
},
{
layerId = m006;
shapes = (
{
closed = 1;
nodes = (
(659,583,l),
(666,617,l),
(326,617,l),
(319,583,l)
);
},
{
ref = d;
}
);
width = 585;
}
);
metricLeft = d;
metricRight = "=l-90";
unicode = 273;
},
{
glyphname = e;
kernLeft = o;
kernRight = o;
lastChange = "2022-12-31 10:59:37 +0000";
layers = (
{
layerId = m01;
shapes = (
{
closed = 1;
nodes = (
(389,-16,o),
(473,47,o),
(493,144,c),
(415,154,l),
(401,95,o),
(348,57,o),
(280,57,cs),
(188,57,o),
(123,128,o),
(123,230,c),
(496,230,l),
(496,248,ls),
(496,410,o),
(407,516,o),
(272,516,cs),
(138,516,o),
(45,407,o),
(45,250,cs),
(45,91,o),
(141,-16,o),
(282,-16,cs)
);
},
{
closed = 1;
nodes = (
(123,387,o),
(181,443,o),
(271,443,cs),
(361,443,o),
(418,387,o),
(418,298,c),
(123,298,l)
);
}
);
width = 536;
},
{
layerId = m005;
shapes = (
{
closed = 1;
nodes = (
(427,-16,o),
(521,49,o),
(536,147,c),
(400,157,l),
(385,120,o),
(345,97,o),
(296,97,cs),
(225,97,o),
(174,144,o),
(174,210,c),
(536,210,l),
(536,248,ls),
(536,408,o),
(435,516,o),
(286,516,cs),
(137,516,o),
(35,407,o),
(35,250,cs),
(35,91,o),
(142,-16,o),
(302,-16,cs)
);
},
{
closed = 1;
nodes = (
(174,367,o),
(216,403,o),
(286,403,cs),
(356,403,o),
(397,368,o),
(397,308,c),
(174,308,l)
);
}
);
width = 566;
},
{
layerId = m007;
shapes = (
{
closed = 1;
nodes = (
(377,-16,o),
(452,41,o),
(476,135,c),
(417,143,l),
(398,77,o),
(344,37,o),
(276,37,cs),
(177,37,o),
(108,120,o),
(108,240,c),
(481,240,l),
(481,248,ls),
(481,416,o),
(403,516,o),
(272,516,cs),
(138,516,o),
(50,409,o),
(50,248,cs),
(50,88,o),
(139,-16,o),
(276,-16,cs)
);
},
{
closed = 1;
nodes = (
(108,394,o),
(172,463,o),
(272,463,cs),
(368,463,o),
(423,399,o),
(423,288,c),
(108,288,l)
);
}
);
width = 526;
},
{
layerId = m004;
shapes = (
{
closed = 1;
nodes = (
(353,-16,o),
(435,42,o),
(475,144,c),
(399,154,l),
(370,92,o),
(316,57,o),
(253,57,cs),
(159,57,o),
(101,134,o),
(122,230,c),
(495,230,l),
(501,265,ls),
(526,410,o),
(445,516,o),
(310,516,cs),
(162,516,o),
(43,378,o),
(43,207,cs),
(43,70,o),
(123,-16,o),
(250,-16,cs)
);
},
{
closed = 1;
nodes = (
(153,387,o),
(218,443,o),
(301,443,cs),
(390,443,o),
(447,379,o),
(430,298,c),
(135,298,l)
);
}
);
width = 539;
},
{
layerId = m008;
shapes = (
{
closed = 1;
nodes = (
(384,-16,o),
(474,43,o),
(510,147,c),
(375,157,l),
(351,118,o),
(312,97,o),
(266,97,cs),
(195,97,o),
(148,147,o),
(160,210,c),
(522,210,l),
(529,248,ls),
(556,392,o),
(452,516,o),
(305,516,cs),
(154,516,o),
(34,382,o),
(34,212,cs),
(34,70,o),
(120,-16,o),
(264,-16,cs)
);
},
{
closed = 1;
nodes = (
(189,367,o),
(233,403,o),
(296,403,cs),
(365,403,o),
(413,360,o),
(402,308,c),
(179,308,l)
);
}
);
width = 560;
},
{
layerId = m006;
shapes = (
{
closed = 1;
nodes = (
(330,-16,o),
(407,40,o),
(452,135,c),
(395,145,l),
(362,79,o),
(301,37,o),
(240,37,cs),
(149,37,o),
(84,135,o),
(105,240,c),
(478,240,l),
(479,248,ls),
(499,406,o),
(424,516,o),
(296,516,cs),
(158,516,o),
(50,383,o),
(50,215,cs),
(50,77,o),
(127,-16,o),
(242,-16,cs)
);
},
{
closed = 1;
nodes = (
(135,393,o),
(206,463,o),
(293,463,cs),
(381,463,o),
(438,389,o),
(429,288,c),
(114,288,l)
);
}
);
width = 525;
}
);
metricLeft = o;
metricRight = "=o-5";
unicode = 101;
},
{
glyphname = f;
kernLeft = f;
kernRight = f;
lastChange = "2022-12-31 10:59:43 +0000";
layers = (
{
layerId = m01;
shapes = (
{
closed = 1;
nodes = (
(203,0,l),
(203,577,ls),
(203,617,o),
(223,637,o),
(263,637,cs),
(353,637,l),
(353,710,l),
(268,710,ls),
(174,710,o),
(128,664,o),
(128,570,cs),
(128,0,l)
);
},
{
closed = 1;
nodes = (
(353,427,l),
(353,500,l),
(20,500,l),
(20,427,l)
);
}
);
width = 373;
},
{
layerId = m005;
shapes = (
{
closed = 1;
nodes = (
(253,0,l),
(253,537,ls),
(253,577,o),
(273,597,o),
(313,597,cs),
(403,597,l),
(403,710,l),
(288,710,ls),
(174,710,o),
(118,657,o),
(118,550,cs),
(118,0,l)
);
},
{
closed = 1;
nodes = (
(403,387,l),
(403,500,l),
(10,500,l),
(10,387,l)
);
}
);
width = 413;
},
{
layerId = m007;
shapes = (
{
closed = 1;
nodes = (
(188,0,l),
(188,587,ls),
(188,634,o),
(211,657,o),
(258,657,cs),
(338,657,l),
(338,710,l),
(263,710,ls),
(176,710,o),
(133,667,o),
(133,580,cs),
(133,0,l)
);
},
{
closed = 1;
nodes = (
(338,447,l),
(338,500,l),
(25,500,l),
(25,447,l)
);
}
);
width = 363;
},
{
layerId = m004;
shapes = (
{
closed = 1;
nodes = (
(155,0,l),
(267,577,ls),
(275,617,o),
(299,637,o),
(339,637,cs),
(429,637,l),
(443,710,l),
(358,710,ls),
(264,710,o),
(209,664,o),
(191,570,cs),
(80,0,l)
);
},
{
closed = 1;
nodes = (
(388,427,l),
(402,500,l),
(69,500,l),
(55,427,l)
);
}
);
width = 374;
},
{
layerId = m008;
shapes = (
{
closed = 1;
nodes = (
(205,0,l),
(309,537,ls),
(317,577,o),
(338,597,o),
(371,597,cs),
(471,597,l),
(493,710,l),
(358,710,ls),
(257,710,o),
(199,666,o),
(182,577,cs),
(70,0,l)
);
},
{
closed = 1;
nodes = (
(430,387,l),
(452,500,l),
(59,500,l),
(37,387,l)
);
}
);
width = 414;
},
{
layerId = m006;
shapes = (
{
closed = 1;
nodes = (
(140,0,l),
(254,587,ls),
(263,634,o),
(291,657,o),
(338,657,cs),
(418,657,l),
(428,710,l),
(353,710,ls),
(265,710,o),
(214,667,o),
(198,580,cs),
(85,0,l)
);
},
{
closed = 1;
nodes = (
(377,447,l),
(387,500,l),
(74,500,l),
(64,447,l)
);
}
);
width = 364;
}
);
unicode = 102;
},
{
glyphname = g;
kernLeft = o;
kernRight = g;
lastChange = "2022-12-31 10:59:50 +0000";
layers = (
{
layerId = m01;
shapes = (
{
closed = 1;
nodes = (
(415,-216,o),
(506,-122,o),
(506,19,cs),
(506,500,l),
(431,500,l),
(431,19,ls),
(431,-80,o),
(372,-143,o),
(277,-143,cs),
(201,-143,o),
(138,-101,o),
(138,-51,c),
(60,-61,l),
(60,-145,o),
(159,-216,o),
(277,-216,cs)
);
},
{
closed = 1;
nodes = (
(373,-16,o),
(446,59,o),
(446,170,cs),
(446,330,ls),
(446,441,o),
(373,516,o),
(267,516,cs),
(137,516,o),
(45,406,o),
(45,250,cs),
(45,95,o),
(138,-16,o),
(267,-16,cs)
);
},
{
closed = 1;
nodes = (
(185,57,o),
(123,135,o),
(123,250,cs),
(123,365,o),
(185,443,o),
(277,443,cs),
(369,443,o),
(431,365,o),
(431,250,cs),
(431,135,o),
(369,57,o),
(277,57,cs)
);
}
);
width = 581;
},
{
layerId = m005;
shapes = (
{
closed = 1;
nodes = (
(460,-216,o),
(556,-119,o),
(556,50,cs),
(556,500,l),
(421,500,l),
(421,20,ls),
(421,-58,o),
(374,-103,o),
(292,-103,cs),
(239,-103,o),
(208,-84,o),
(198,-45,c),
(50,-55,l),
(50,-148,o),
(152,-216,o),
(292,-216,cs)
);
},
{
closed = 1;
nodes = (
(372,-16,o),
(446,72,o),
(446,210,cs),
(446,290,ls),
(446,428,o),
(373,516,o),
(257,516,cs),
(127,516,o),
(35,405,o),
(35,250,cs),
(35,95,o),
(128,-16,o),
(257,-16,cs)
);
},
{
closed = 1;
nodes = (
(223,97,o),
(173,158,o),
(173,250,cs),
(173,342,o),
(223,403,o),
(297,403,cs),
(371,403,o),
(421,342,o),
(421,250,cs),
(421,158,o),
(371,97,o),
(297,97,cs)
);
}
);
width = 621;
},
{
layerId = m007;
shapes = (
{
closed = 1;
nodes = (
(404,-216,o),
(491,-127,o),
(491,9,cs),
(491,500,l),
(436,500,l),
(436,9,ls),
(436,-96,o),
(372,-163,o),
(272,-163,cs),
(196,-163,o),
(139,-124,o),
(125,-62,c),
(66,-70,l),
(77,-155,o),
(164,-216,o),
(272,-216,cs)
);
},
{
closed = 1;
nodes = (
(373,-16,o),
(456,64,o),
(456,170,cs),
(456,330,ls),
(456,436,o),
(372,516,o),
(262,516,cs),
(135,516,o),
(50,409,o),
(50,250,cs),
(50,91,o),
(135,-16,o),
(262,-16,cs)
);
},
{
closed = 1;
nodes = (
(174,37,o),
(108,123,o),
(108,250,cs),
(108,377,o),
(174,463,o),
(272,463,cs),
(370,463,o),
(436,377,o),
(436,250,cs),
(436,123,o),
(370,37,o),
(272,37,cs)
);
}
);
width = 571;
},
{
layerId = m004;
shapes = (
{
closed = 1;
nodes = (
(337,-216,o),
(435,-127,o),
(464,19,cs),
(557,500,l),
(482,500,l),
(389,19,ls),
(370,-80,o),
(298,-143,o),
(205,-143,cs),
(133,-143,o),
(82,-105,o),
(82,-51,c),
(2,-61,l),
(2,-150,o),
(89,-216,o),
(205,-216,cs)
);
},
{
closed = 1;
nodes = (
(342,-16,o),
(413,54,o),
(437,177,cs),
(462,307,ls),
(487,433,o),
(425,516,o),
(307,516,cs),
(160,516,o),
(44,381,o),
(44,209,cs),
(44,74,o),
(122,-16,o),
(240,-16,cs)
);
},
{
closed = 1;
nodes = (
(178,57,o),
(122,117,o),
(122,209,cs),
(122,340,o),
(202,443,o),
(304,443,cs),
(403,443,o),
(454,357,o),
(430,233,cs),
(407,119,o),
(349,57,o),
(264,57,cs)
);
}
);
width = 584;
},
{
layerId = m008;
shapes = (
{
closed = 1;
nodes = (
(375,-216,o),
(481,-128,o),
(509,20,cs),
(602,500,l),
(467,500,l),
(374,20,ls),
(358,-58,o),
(307,-103,o),
(234,-103,cs),
(178,-103,o),
(138,-79,o),
(138,-45,c),
(-12,-55,l),
(-12,-148,o),
(88,-216,o),
(224,-216,cs)
);
},
{
closed = 1;
nodes = (
(321,-16,o),
(411,76,o),
(436,210,cs),
(451,290,ls),
(476,419,o),
(405,516,o),
(287,516,cs),
(148,516,o),
(35,380,o),
(35,214,cs),
(35,78,o),
(109,-16,o),
(215,-16,cs)
);
},
{
closed = 1;
nodes = (
(207,97,o),
(171,146,o),
(171,228,cs),
(171,329,o),
(234,403,o),
(319,403,cs),
(395,403,o),
(436,337,o),
(417,244,cs),
(401,159,o),
(339,97,o),
(269,97,cs)
);
}
);
width = 619;
},
{
layerId = m006;
shapes = (
{
closed = 1;
nodes = (
(337,-216,o),
(418,-139,o),
(447,9,cs),
(542,500,l),
(487,500,l),
(392,9,ls),
(370,-104,o),
(310,-163,o),
(217,-163,cs),
(135,-163,o),
(70,-119,o),
(67,-62,c),
(6,-70,l),
(2,-151,o),
(95,-216,o),
(213,-216,cs)
);
},
{
closed = 1;
nodes = (
(338,-16,o),
(421,59,o),
(446,179,cs),
(466,274,ls),
(495,410,o),
(419,516,o),
(293,516,cs),
(154,516,o),
(49,382,o),
(49,205,cs),
(49,67,o),
(117,-16,o),
(230,-16,cs)
);
},
{
closed = 1;
nodes = (
(158,37,o),
(106,105,o),
(106,211,cs),
(106,352,o),
(190,463,o),
(297,463,cs),
(400,463,o),
(461,364,o),
(435,236,cs),
(412,120,o),
(331,37,o),
(240,37,cs)
);
}
);
width = 574;
}
);
metricLeft = o;
metricRight = l;
unicode = 103;
},
{
glyphname = h;
kernLeft = l;
kernRight = m;
lastChange = "2022-12-30 09:33:56 +0000";
layers = (
{
layerId = m01;
shapes = (
{
closed = 1;
nodes = (
(478,0,l),
(478,349,ls),
(478,455,o),
(423,516,o),
(325,516,cs),
(216,516,o),
(135,440,o),
(135,339,c),
(150,243,l),
(150,360,o),
(212,443,o),
(300,443,cs),
(365,443,o),
(403,398,o),
(403,319,cs),
(403,0,l)
);
},
{
closed = 1;
nodes = (
(150,0,l),
(150,700,l),
(75,700,l),
(75,0,l)
);
}
);
width = 548;
},
{
layerId = m005;
shapes = (
{
closed = 1;
nodes = (
(528,0,l),
(528,319,ls),
(528,444,o),
(471,516,o),
(372,516,cs),
(259,516,o),
(174,421,o),
(174,293,c),
(200,243,l),
(200,339,o),
(244,403,o),
(311,403,cs),
(362,403,o),
(393,365,o),
(393,303,cs),
(393,0,l)
);
},
{
closed = 1;
nodes = (
(200,0,l),
(200,700,l),
(65,700,l),
(65,0,l)
);
}
);
width = 588;
},
{
layerId = m007;
shapes = (
{
closed = 1;
nodes = (
(463,0,l),
(463,339,ls),
(463,450,o),
(406,516,o),
(309,516,cs),
(199,516,o),
(115,431,o),
(115,319,c),
(135,243,l),
(135,372,o),
(201,463,o),
(295,463,cs),
(368,463,o),
(408,409,o),
(408,309,cs),
(408,0,l)
);
},
{
closed = 1;
nodes = (
(135,0,l),
(135,700,l),
(80,700,l),
(80,0,l)
);
}
);
width = 538;
},
{
layerId = m004;
shapes = (
{
closed = 1;
nodes = (
(429,0,l),
(491,318,ls),
(513,435,o),
(455,516,o),
(348,516,cs),
(247,516,o),
(168,443,o),
(154,339,c),
(148,243,l),
(171,365,o),
(240,443,o),
(325,443,cs),
(396,443,o),
(429,389,o),
(412,300,cs),
(354,0,l)
);
},
{
closed = 1;
nodes = (
(101,0,l),
(237,700,l),
(162,700,l),
(26,0,l)
);
}
);
width = 548;
},
{
layerId = m008;
shapes = (
{
closed = 1;
nodes = (
(479,0,l),
(541,319,ls),
(562,426,o),
(502,516,o),
(390,516,cs),
(271,516,o),
(205,413,o),
(182,293,c),
(198,243,l),
(214,327,o),
(255,403,o),
(332,403,cs),
(393,403,o),
(413,355,o),
(403,303,cs),
(344,0,l)
);
},
{
closed = 1;
nodes = (
(151,0,l),
(287,700,l),
(152,700,l),
(16,0,l)
);
}
);
width = 588;
},
{
layerId = m006;
shapes = (
{
closed = 1;
nodes = (
(414,0,l),
(480,339,ls),
(500,441,o),
(445,516,o),
(343,516,cs),
(239,516,o),
(151,438,o),
(128,319,c),
(133,243,l),
(161,382,o),
(235,463,o),
(326,463,cs),
(405,463,o),
(437,403,o),
(419,309,cs),
(359,0,l)
);
},
{
closed = 1;
nodes = (
(86,0,l),
(222,700,l),
(167,700,l),
(31,0,l)
);
}
);
width = 538;
}
);
metricLeft = m;
metricRight = m;
unicode = 104;
},
{
glyphname = hbar;
kernLeft = l;
kernRight = m;
lastChange = "2022-12-30 09:33:56 +0000";
layers = (
{
layerId = m01;
shapes = (
{
closed = 1;
nodes = (
(345,573,l),
(345,627,l),
(-15,627,l),
(-15,573,l)
);
},
{
pos = (5,0);
ref = h;
}
);
width = 553;
},
{
layerId = m005;
shapes = (
{
closed = 1;
nodes = (
(363,568,l),
(363,630,l),
(-25,630,l),
(-25,568,l)
);
},
{
pos = (5,0);
ref = h;
}
);
width = 593;
},
{
layerId = m007;
shapes = (
{
closed = 1;
nodes = (
(330,583,l),
(330,617,l),
(-10,617,l),
(-10,583,l)
);
},
{
ref = h;
}
);
width = 538;
},
{
layerId = m004;
shapes = (
{
closed = 1;
nodes = (
(408,573,l),
(419,627,l),
(59,627,l),
(48,573,l)
);
},
{
pos = (5,0);
ref = h;
}
);
width = 553;
},
{
layerId = m008;
shapes = (
{
closed = 1;
nodes = (
(425,568,l),
(437,630,l),
(49,630,l),
(37,568,l)
);
},
{
pos = (5,0);
ref = h;
}
);
width = 593;
},
{
layerId = m006;
shapes = (
{
closed = 1;
nodes = (
(395,583,l),
(402,617,l),
(62,617,l),
(55,583,l)
);
},
{
ref = h;
}
);
width = 538;
}
);
metricLeft = "=h-90";
metricRight = h;
unicode = 295;
},
{
glyphname = idotless;
kernLeft = i;
kernRight = i;
lastChange = "2022-12-30 09:33:56 +0000";
layers = (
{
layerId = m01;
shapes = (
{
closed = 1;
nodes = (
(150,0,l),
(150,500,l),
(75,500,l),
(75,0,l)
);
}
);
width = 225;
},
{
layerId = m005;
shapes = (
{
closed = 1;
nodes = (
(200,0,l),
(200,500,l),
(65,500,l),
(65,0,l)
);
}
);
width = 265;
},
{
layerId = m007;
shapes = (
{
closed = 1;
nodes = (
(135,0,l),
(135,500,l),
(80,500,l),
(80,0,l)
);
}
);
width = 215;
},
{
layerId = m004;
shapes = (
{
closed = 1;
nodes = (
(102,0,l),
(199,500,l),
(124,500,l),
(27,0,l)
);
}
);
width = 226;
},
{
layerId = m008;
shapes = (
{
closed = 1;
nodes = (
(152,0,l),
(249,500,l),
(114,500,l),
(17,0,l)
);
}
);
width = 266;
},
{
layerId = m006;
shapes = (
{
closed = 1;
nodes = (
(87,0,l),
(184,500,l),
(129,500,l),
(32,0,l)
);
}
);
width = 216;
}
);
metricLeft = l;
metricRight = l;
unicode = 305;
},
{
glyphname = ibreve;
kernLeft = i;
kernRight = i;
lastChange = "2022-12-30 09:33:56 +0000";
layers = (
{
layerId = m01;
shapes = (
{
closed = 1;
nodes = (
(168,580,o),
(205,646,o),
(205,730,c),
(141,730,l),
(140,672,o),
(122,644,o),
(85,644,cs),
(48,644,o),
(30,672,o),
(29,730,c),
(-35,730,l),
(-35,646,o),
(1,580,o),
(85,580,cs)
);
},
{
pos = (-27,0);
ref = idotless;
}
);
width = 170;
},
{
layerId = m005;
shapes = (
{
closed = 1;
nodes = (
(217,580,o),
(243,672,o),
(243,750,c),
(130,750,l),
(130,707,o),
(124,684,o),
(99,684,cs),
(74,684,o),
(68,707,o),
(68,750,c),
(-45,750,l),
(-45,673,o),
(-20,580,o),
(99,580,cs)
);
},
{
pos = (-33,0);
ref = idotless;
}
);
width = 198;
},
{
layerId = m007;
shapes = (
{
closed = 1;
nodes = (
(154,590,o),
(187,644,o),
(190,720,c),
(146,720,l),
(143,664,o),
(121,634,o),
(80,634,cs),
(39,634,o),
(17,664,o),
(14,720,c),
(-30,720,l),
(-27,644,o),
(5,590,o),
(80,590,cs)
);
},
{
pos = (-27,0);
ref = idotless;
}
);
width = 160;
},
{
layerId = m004;
shapes = (
{
closed = 1;
nodes = (
(232,580,o),
(282,646,o),
(298,730,c),
(234,730,l),
(222,672,o),
(198,644,o),
(161,644,cs),
(124,644,o),
(112,672,o),
(122,730,c),
(58,730,l),
(42,646,o),
(65,580,o),
(149,580,cs)
);
},
{
pos = (-9,0);
ref = idotless;
}
);
width = 170;
},
{
layerId = m008;
shapes = (
{
closed = 1;
nodes = (
(281,580,o),
(325,672,o),
(340,750,c),
(227,750,l),
(218,707,o),
(208,684,o),
(183,684,cs),
(158,684,o),
(156,707,o),
(165,750,c),
(52,750,l),
(37,673,o),
(44,580,o),
(163,580,cs)
);
},
{
pos = (-14,0);
ref = idotless;
}
);
width = 198;
},
{
layerId = m006;
shapes = (
{
closed = 1;
nodes = (
(220,590,o),
(263,644,o),
(281,720,c),
(237,720,l),
(223,664,o),
(195,634,o),
(154,634,cs),
(113,634,o),
(97,664,o),
(105,720,c),
(61,720,l),
(49,644,o),
(71,590,o),
(146,590,cs)
);
},
{
pos = (-8,0);
ref = idotless;
}
);
width = 160;
}
);
metricLeft = "=idotless-110";
metricRight = "=idotless-110";
unicode = 301;
},
{
glyphname = jdotless;
kernLeft = j;
kernRight = g;
lastChange = "2022-12-30 13:09:20 +0000";
layers = (
{
layerId = m01;
shapes = (
{
closed = 1;
nodes = (
(25,-200,ls),
(119,-200,o),
(165,-154,o),
(165,-60,cs),
(165,500,l),
(90,500,l),
(90,-67,ls),
(90,-107,o),
(70,-127,o),
(30,-127,cs),
(-60,-127,l),
(-60,-200,l)
);
}
);
width = 245;
},
{
layerId = m005;
shapes = (
{
closed = 1;
nodes = (
(45,-200,ls),
(159,-200,o),
(215,-147,o),
(215,-40,cs),
(215,500,l),
(80,500,l),
(80,-27,ls),
(80,-67,o),
(60,-87,o),
(20,-87,cs),
(-70,-87,l),
(-70,-200,l)
);
}
);
width = 280;
},
{
layerId = m007;
shapes = (
{
closed = 1;
nodes = (
(25,-200,ls),
(112,-200,o),
(155,-157,o),
(155,-70,cs),
(155,500,l),
(100,500,l),
(100,-77,ls),
(100,-124,o),
(77,-147,o),
(30,-147,cs),
(-50,-147,l),
(-50,-200,l)
);
}
);
width = 240;
},
{
layerId = m004;
shapes = (
{
closed = 1;
nodes = (
(-43,-200,ls),
(25,-200,o),
(89,-146,o),
(105,-60,cs),
(214,500,l),
(139,500,l),
(29,-67,ls),
(22,-104,o),
(-6,-127,o),
(-43,-127,cs),
(-133,-127,l),
(-147,-200,l)
);
}
);
width = 245;
},
{
layerId = m008;
shapes = (
{
closed = 1;
nodes = (
(-35,-200,ls),
(66,-200,o),
(139,-149,o),
(154,-67,cs),
(264,500,l),
(129,500,l),
(27,-27,ls),
(19,-64,o),
(-4,-87,o),
(-35,-87,cs),
(-135,-87,l),
(-157,-200,l)
);
}
);
width = 281;
},
{
layerId = m006;
shapes = (
{
closed = 1;
nodes = (
(-47,-200,ls),
(24,-200,o),
(78,-150,o),
(93,-70,cs),
(204,500,l),
(149,500,l),
(37,-77,ls),
(29,-120,o),
(-3,-147,o),
(-47,-147,cs),
(-127,-147,l),
(-137,-200,l)
);
}
);
width = 240;
}
);
unicode = 567;
},
{
glyphname = k;
kernLeft = l;
kernRight = k;
lastChange = "2022-12-30 09:33:56 +0000";
layers = (
{
layerId = m01;
shapes = (
{
closed = 1;
nodes = (
(479,500,l),
(384,500,l),
(93,201,l),
(145,154,l)
);
},
{
closed = 1;
nodes = (
(150,0,l),
(150,700,l),
(75,700,l),
(75,0,l)
);
},
{
closed = 1;
nodes = (
(491,0,l),
(273,363,l),
(233,290,l),
(403,0,l)
);
}
);
width = 516;
},
{
layerId = m005;
shapes = (
{
closed = 1;
nodes = (
(566,500,l),
(388,500,l),
(102,240,l),
(188,146,l)
);
},
{
closed = 1;
nodes = (
(200,0,l),
(200,700,l),
(65,700,l),
(65,0,l)
);
},
{
closed = 1;
nodes = (
(564,0,l),
(336,362,l),
(227,290,l),
(404,0,l)
);
}
);
width = 581;
},
{
layerId = m007;
shapes = (
{
closed = 1;
nodes = (
(450,500,l),
(383,500,l),
(102,201,l),
(102,127,l)
);
},
{
closed = 1;
nodes = (
(135,0,l),
(135,700,l),
(80,700,l),
(80,0,l)
);
},
{
closed = 1;
nodes = (
(468,0,l),
(268,343,l),
(239,290,l),
(404,0,l)
);
}
);
width = 498;
},
{
layerId = m004;
shapes = (
{
closed = 1;
nodes = (
(527,500,l),
(427,500,l),
(78,201,l),
(126,154,l)
);
},
{
closed = 1;
nodes = (
(101,0,l),
(237,700,l),
(162,700,l),
(26,0,l)
);
},
{
closed = 1;
nodes = (
(442,0,l),
(295,363,l),
(250,290,l),
(364,0,l)
);
}
);
width = 516;
},
{
layerId = m008;
shapes = (
{
closed = 1;
nodes = (
(614,500,l),
(431,500,l),
(95,240,l),
(167,146,l)
);
},
{
closed = 1;
nodes = (
(151,0,l),
(287,700,l),
(152,700,l),
(16,0,l)
);
},
{
closed = 1;
nodes = (
(515,0,l),
(357,362,l),
(239,290,l),
(360,0,l)
);
}
);
width = 580;
},
{
layerId = m006;
shapes = (
{
closed = 1;
nodes = (
(498,500,l),
(425,500,l),
(86,201,l),
(78,127,l)
);
},
{
closed = 1;
nodes = (
(86,0,l),
(222,700,l),
(167,700,l),
(31,0,l)
);
},
{
closed = 1;
nodes = (
(419,0,l),
(286,343,l),
(251,290,l),
(360,0,l)
);
}
);
width = 498;
}
);
metricLeft = h;
unicode = 107;
},
{
glyphname = l;
kernLeft = l;
kernRight = l;
lastChange = "2022-12-30 09:33:56 +0000";
layers = (
{
layerId = m01;
shapes = (
{
closed = 1;
nodes = (
(150,0,l),
(150,710,l),
(75,710,l),
(75,0,l)
);
}
);
width = 225;
},
{
layerId = m005;
shapes = (
{
closed = 1;
nodes = (
(200,0,l),
(200,710,l),
(65,710,l),
(65,0,l)
);
}
);
width = 265;
},
{
layerId = m007;
shapes = (
{
closed = 1;
nodes = (
(135,0,l),
(135,710,l),
(80,710,l),
(80,0,l)
);
}
);
width = 215;
},
{
layerId = m004;
shapes = (
{
closed = 1;
nodes = (
(101,0,l),
(239,710,l),
(164,710,l),
(26,0,l)
);
}
);
width = 225;
},
{
layerId = m008;
shapes = (
{
closed = 1;
nodes = (
(151,0,l),
(289,710,l),
(154,710,l),
(16,0,l)
);
}
);
width = 265;
},
{
layerId = m006;
shapes = (
{
closed = 1;
nodes = (
(86,0,l),
(224,710,l),
(169,710,l),
(31,0,l)
);
}
);
width = 215;
}
);
unicode = 108;
},
{
glyphname = lslash;
kernLeft = l;
kernRight = l;
lastChange = "2022-12-31 21:39:20 +0000";
layers = (
{
layerId = m01;
shapes = (
{
closed = 1;
nodes = (
(215,385,l),
(215,445,l),
(15,325,l),
(15,265,l)
);
},
{
pos = (3,0);
ref = l;
}
);
width = 230;
},
{
layerId = m005;
shapes = (
{
closed = 1;
nodes = (
(285,369,l),
(285,473,l),
(5,341,l),
(5,237,l)
);
},
{
pos = (13,0);
ref = l;
}
);
width = 290;
},
{
layerId = m007;
shapes = (
{
closed = 1;
nodes = (
(200,391,l),
(200,427,l),
(20,319,l),
(20,283,l)
);
},
{
pos = (3,0);
ref = l;
}
);
width = 220;
},
{
layerId = m004;
shapes = (
{
closed = 1;
nodes = (
(242,385,l),
(253,445,l),
(30,325,l),
(18,265,l)
);
},
{
pos = (3,0);
ref = l;
}
);
width = 231;
},
{
layerId = m008;
shapes = (
{
closed = 1;
nodes = (
(309,369,l),
(329,473,l),
(23,341,l),
(3,237,l)
);
},
{
pos = (14,0);
ref = l;
}
);
width = 291;
},
{
layerId = m006;
shapes = (
{
closed = 1;
nodes = (
(227,391,l),
(234,427,l),
(33,319,l),
(26,283,l)
);
},
{
pos = (3,0);
ref = l;
}
);
width = 220;
}
);
metricLeft = "=l-60";
metricRight = "=l-60";
unicode = 322;
},
{
glyphname = m;
kernLeft = m;
kernRight = m;
lastChange = "2022-12-30 09:33:56 +0000";
layers = (
{
layerId = m01;
shapes = (
{
closed = 1;
nodes = (
(786,0,l),
(786,349,ls),
(786,454,o),
(730,516,o),
(633,516,cs),
(526,516,o),
(448,442,o),
(448,339,c),
(468,243,l),
(468,363,o),
(524,443,o),
(608,443,cs),
(672,443,o),
(711,397,o),
(711,319,cs),
(711,0,l)
);
},
{
closed = 1;
nodes = (
(150,0,l),
(150,500,l),
(75,500,l),
(75,0,l)
);
},
{
closed = 1;
nodes = (
(468,0,l),
(468,349,ls),
(468,453,o),
(411,516,o),
(315,516,cs),
(210,516,o),
(135,442,o),
(135,339,c),
(150,243,l),
(150,363,o),
(206,443,o),
(290,443,cs),
(354,443,o),
(393,397,o),
(393,319,cs),
(393,0,l)
);
}
);
width = 856;
},
{
layerId = m005;
shapes = (
{
closed = 1;
nodes = (
(836,0,l),
(836,319,ls),
(836,445,o),
(781,516,o),
(685,516,cs),
(574,516,o),
(492,422,o),
(492,293,c),
(518,243,l),
(518,340,o),
(560,403,o),
(624,403,cs),
(673,403,o),
(701,366,o),
(701,303,cs),
(701,0,l)
);
},
{
closed = 1;
nodes = (
(200,0,l),
(200,500,l),
(65,500,l),
(65,0,l)
);
},
{
closed = 1;
nodes = (
(518,0,l),
(518,319,ls),
(518,445,o),
(463,516,o),
(367,516,cs),
(256,516,o),
(174,422,o),
(174,293,c),
(200,243,l),
(200,340,o),
(242,403,o),
(306,403,cs),
(355,403,o),
(383,366,o),
(383,303,cs),
(383,0,l)
);
}
);
width = 896;
},
{
layerId = m007;
shapes = (
{
closed = 1;
nodes = (
(771,0,l),
(771,339,ls),
(771,448,o),
(712,516,o),
(617,516,cs),
(511,516,o),
(433,433,o),
(433,319,c),
(453,243,l),
(453,375,o),
(513,463,o),
(603,463,cs),
(675,463,o),
(716,407,o),
(716,309,cs),
(716,0,l)
);
},
{
closed = 1;
nodes = (
(135,0,l),
(135,500,l),
(80,500,l),
(80,0,l)
);
},
{
closed = 1;
nodes = (
(453,0,l),
(453,339,ls),
(453,448,o),
(394,516,o),
(299,516,cs),
(193,516,o),
(115,433,o),
(115,319,c),
(135,243,l),
(135,375,o),
(195,463,o),
(285,463,cs),
(357,463,o),
(398,407,o),
(398,309,cs),
(398,0,l)
);
}
);
width = 846;
},
{
layerId = m004;
shapes = (
{
closed = 1;
nodes = (
(738,0,l),
(800,318,ls),
(823,437,o),
(769,516,o),
(663,516,cs),
(560,516,o),
(478,442,o),
(468,339,c),
(467,243,l),
(490,366,o),
(558,443,o),
(643,443,cs),
(712,443,o),
(739,393,o),
(721,300,cs),
(663,0,l)
);
},
{
closed = 1;
nodes = (
(102,0,l),
(199,500,l),
(124,500,l),
(27,0,l)
);
},
{
closed = 1;
nodes = (
(420,0,l),
(482,318,ls),
(505,435,o),
(450,516,o),
(347,516,cs),
(248,516,o),
(169,443,o),
(155,339,c),
(149,243,l),
(172,366,o),
(240,443,o),
(325,443,cs),
(394,443,o),
(421,393,o),
(403,300,cs),
(345,0,l)
);
}
);
width = 857;
},
{
layerId = m008;
shapes = (
{
closed = 1;
nodes = (
(788,0,l),
(850,319,ls),
(871,424,o),
(819,516,o),
(708,516,cs),
(590,516,o),
(524,413,o),
(501,293,c),
(517,243,l),
(534,325,o),
(566,403,o),
(642,403,cs),
(702,403,o),
(722,355,o),
(712,303,cs),
(653,0,l)
);
},
{
closed = 1;
nodes = (
(152,0,l),
(249,500,l),
(114,500,l),
(17,0,l)
);
},
{
closed = 1;
nodes = (
(470,0,l),
(532,319,ls),
(553,424,o),
(501,516,o),
(390,516,cs),
(272,516,o),
(206,413,o),
(183,293,c),
(199,243,l),
(216,325,o),
(248,403,o),
(324,403,cs),
(384,403,o),
(404,355,o),
(394,303,cs),
(335,0,l)
);
}
);
width = 897;
},
{
layerId = m006;
shapes = (
{
closed = 1;
nodes = (
(723,0,l),
(789,339,ls),
(809,441,o),
(754,516,o),
(654,516,cs),
(552,516,o),
(470,439,o),
(447,319,c),
(452,243,l),
(479,384,o),
(549,463,o),
(637,463,cs),
(714,463,o),
(746,403,o),
(728,309,cs),
(668,0,l)
);
},
{
closed = 1;
nodes = (
(87,0,l),
(184,500,l),
(129,500,l),
(32,0,l)
);
},
{
closed = 1;
nodes = (
(405,0,l),
(471,339,ls),
(491,441,o),
(436,516,o),
(336,516,cs),
(234,516,o),
(152,439,o),
(129,319,c),
(134,243,l),
(161,384,o),
(231,463,o),
(319,463,cs),
(396,463,o),
(428,403,o),
(410,309,cs),
(350,0,l)
);
}
);
width = 847;
}
);
unicode = 109;
},
{
glyphname = n;
kernLeft = m;
kernRight = m;
lastChange = "2022-12-30 11:07:56 +0000";
layers = (
{
layerId = m01;
shapes = (
{
closed = 1;
nodes = (
(478,0,l),
(478,349,ls),
(478,455,o),
(423,516,o),
(325,516,cs),
(216,516,o),
(135,440,o),
(135,339,c),
(150,243,l),
(150,360,o),
(212,443,o),
(300,443,cs),
(365,443,o),
(403,398,o),
(403,319,cs),
(403,0,l)
);
},
{
closed = 1;
nodes = (
(150,0,l),
(150,500,l),
(75,500,l),
(75,0,l)
);
}
);
width = 548;
},
{
layerId = m005;
shapes = (
{
closed = 1;
nodes = (
(528,0,l),
(528,319,ls),
(528,444,o),
(471,516,o),
(372,516,cs),
(259,516,o),
(174,421,o),
(174,293,c),
(200,243,l),
(200,339,o),
(244,403,o),
(311,403,cs),
(362,403,o),
(393,365,o),
(393,303,cs),
(393,0,l)
);
},
{
closed = 1;
nodes = (
(200,0,l),
(200,500,l),
(65,500,l),
(65,0,l)
);
}
);
width = 588;
},
{
layerId = m007;
shapes = (
{
closed = 1;
nodes = (
(463,0,l),
(463,339,ls),
(463,450,o),
(406,516,o),
(309,516,cs),
(199,516,o),
(115,431,o),
(115,319,c),
(135,243,l),
(135,372,o),
(201,463,o),
(295,463,cs),
(368,463,o),
(408,409,o),
(408,309,cs),
(408,0,l)
);
},
{
closed = 1;
nodes = (
(135,0,l),
(135,500,l),
(80,500,l),
(80,0,l)
);
}
);
width = 538;
},
{
layerId = m004;
shapes = (
{
closed = 1;
nodes = (
(430,0,l),
(492,318,ls),
(514,435,o),
(456,516,o),
(349,516,cs),
(248,516,o),
(169,443,o),
(155,339,c),
(149,243,l),
(172,365,o),
(241,443,o),
(326,443,cs),
(397,443,o),
(430,389,o),
(413,300,cs),
(355,0,l)
);
},
{
closed = 1;
nodes = (
(102,0,l),
(199,500,l),
(124,500,l),
(27,0,l)
);
}
);
width = 549;
},
{
layerId = m008;
shapes = (
{
closed = 1;
nodes = (
(480,0,l),
(542,319,ls),
(563,426,o),
(503,516,o),
(391,516,cs),
(272,516,o),
(206,413,o),
(183,293,c),
(199,243,l),
(215,327,o),
(256,403,o),
(333,403,cs),
(394,403,o),
(414,355,o),
(404,303,cs),
(345,0,l)
);
},
{
closed = 1;
nodes = (
(152,0,l),
(249,500,l),
(114,500,l),
(17,0,l)
);
}
);
width = 589;
},
{
layerId = m006;
shapes = (
{
closed = 1;
nodes = (
(415,0,l),
(481,339,ls),
(501,441,o),
(446,516,o),
(344,516,cs),
(240,516,o),
(152,438,o),
(129,319,c),
(134,243,l),
(162,382,o),
(236,463,o),
(327,463,cs),
(406,463,o),
(438,403,o),
(420,309,cs),
(360,0,l)
);
},
{
closed = 1;
nodes = (
(87,0,l),
(184,500,l),
(129,500,l),
(32,0,l)
);
}
);
width = 539;
}
);
metricLeft = m;
metricRight = m;
unicode = 110;
},
{
glyphname = eng;
kernLeft = m;
kernRight = m;
lastChange = "2022-12-30 13:23:36 +0000";
layers = (
{
layerId = m01;
shapes = (
{
closed = 1;
nodes = (
(338,-200,ls),
(432,-200,o),
(478,-154,o),
(478,-60,cs),
(478,0,l),
(403,0,l),
(403,-67,ls),
(403,-107,o),
(383,-127,o),
(343,-127,cs),
(253,-127,l),
(253,-200,l)
);
},
{
ref = n;
}
);
width = 558;
},
{
layerId = m005;
shapes = (
{
closed = 1;
nodes = (
(358,-200,ls),
(472,-200,o),
(528,-147,o),
(528,-40,cs),
(528,0,l),
(393,0,l),
(393,-27,ls),
(393,-67,o),
(373,-87,o),
(333,-87,cs),
(243,-87,l),
(243,-200,l)
);
},
{
ref = n;
}
);
width = 593;
},
{
layerId = m007;
shapes = (
{
closed = 1;
nodes = (
(333,-200,ls),
(420,-200,o),
(463,-157,o),
(463,-70,cs),
(463,0,l),
(408,0,l),
(408,-77,ls),
(408,-124,o),
(385,-147,o),
(338,-147,cs),
(258,-147,l),
(258,-200,l)
);
},
{
ref = n;
}
);
width = 548;
},
{
layerId = m004;
shapes = (
{
closed = 1;
nodes = (
(270,-200,ls),
(339,-200,o),
(401,-141,o),
(418,-60,cs),
(430,0,l),
(355,0,l),
(342,-67,ls),
(334,-105,o),
(308,-127,o),
(270,-127,cs),
(180,-127,l),
(166,-200,l)
);
},
{
ref = n;
}
);
width = 559;
},
{
layerId = m008;
shapes = (
{
closed = 1;
nodes = (
(278,-200,ls),
(379,-200,o),
(452,-149,o),
(467,-67,cs),
(480,0,l),
(345,0,l),
(340,-27,ls),
(332,-64,o),
(309,-87,o),
(278,-87,cs),
(178,-87,l),
(156,-200,l)
);
},
{
ref = n;
}
);
width = 594;
},
{
layerId = m006;
shapes = (
{
closed = 1;
nodes = (
(261,-200,ls),
(331,-200,o),
(385,-150,o),
(401,-70,cs),
(415,0,l),
(360,0,l),
(345,-77,ls),
(337,-120,o),
(304,-147,o),
(261,-147,cs),
(181,-147,l),
(171,-200,l)
);
},
{
ref = n;
}
);
width = 549;
}
);
metricLeft = m;
metricRight = j;
unicode = 331;
},
{
glyphname = o;
kernLeft = o;
kernRight = o;
lastChange = "2022-12-31 10:17:15 +0000";
layers = (
{
layerId = m01;
shapes = (
{
closed = 1;
nodes = (
(420,-16,o),
(516,91,o),
(516,248,cs),
(516,406,o),
(419,516,o),
(281,516,cs),
(142,516,o),
(45,405,o),
(45,248,cs),
(45,92,o),
(141,-16,o),
(281,-16,cs)
);
},
{
closed = 1;
nodes = (
(186,57,o),
(123,133,o),
(123,248,cs),
(123,365,o),
(187,443,o),
(281,443,cs),
(375,443,o),
(439,365,o),
(439,248,cs),
(439,133,o),
(376,57,o),
(281,57,cs)
);
}
);
width = 561;
},
{
layerId = m005;
shapes = (
{
closed = 1;
nodes = (
(448,-16,o),
(556,95,o),
(556,250,cs),
(556,405,o),
(448,516,o),
(296,516,cs),
(144,516,o),
(35,405,o),
(35,250,cs),
(35,95,o),
(144,-16,o),
(296,-16,cs)
);
},
{
closed = 1;
nodes = (
(221,97,o),
(173,157,o),
(173,250,cs),
(173,343,o),
(221,403,o),
(296,403,cs),
(371,403,o),
(419,343,o),
(419,250,cs),
(419,157,o),
(371,97,o),
(296,97,cs)
);
}
);
width = 591;
},
{
layerId = m007;
shapes = (
{
closed = 1;
nodes = (
(410,-16,o),
(502,92,o),
(502,250,cs),
(502,408,o),
(410,516,o),
(276,516,cs),
(142,516,o),
(50,408,o),
(50,250,cs),
(50,92,o),
(142,-16,o),
(276,-16,cs)
);
},
{
closed = 1;
nodes = (
(174,37,o),
(108,121,o),
(108,250,cs),
(108,379,o),
(174,463,o),
(276,463,cs),
(378,463,o),
(444,379,o),
(444,250,cs),
(444,121,o),
(378,37,o),
(276,37,cs)
);
}
);
width = 552;
},
{
layerId = m004;
shapes = (
{
closed = 1;
nodes = (
(394,-16,o),
(511,115,o),
(511,277,cs),
(511,418,o),
(428,516,o),
(308,516,cs),
(164,516,o),
(45,382,o),
(45,219,cs),
(45,79,o),
(128,-16,o),
(250,-16,cs)
);
},
{
closed = 1;
nodes = (
(167,57,o),
(122,115,o),
(122,222,cs),
(122,348,o),
(202,443,o),
(308,443,cs),
(387,443,o),
(434,379,o),
(434,274,cs),
(434,149,o),
(356,57,o),
(250,57,cs)
);
}
);
width = 557;
},
{
layerId = m008;
shapes = (
{
closed = 1;
nodes = (
(420,-16,o),
(553,113,o),
(553,273,cs),
(553,422,o),
(467,516,o),
(331,516,cs),
(166,516,o),
(36,387,o),
(36,224,cs),
(36,77,o),
(122,-16,o),
(257,-16,cs)
);
},
{
closed = 1;
nodes = (
(207,97,o),
(173,143,o),
(173,226,cs),
(173,323,o),
(239,403,o),
(320,403,cs),
(380,403,o),
(416,355,o),
(416,273,cs),
(416,173,o),
(353,97,o),
(270,97,cs)
);
}
);
width = 589;
},
{
layerId = m006;
shapes = (
{
closed = 1;
nodes = (
(382,-16,o),
(496,117,o),
(496,277,cs),
(496,418,o),
(417,516,o),
(303,516,cs),
(165,516,o),
(50,381,o),
(50,219,cs),
(50,80,o),
(130,-16,o),
(245,-16,cs)
);
},
{
closed = 1;
nodes = (
(158,37,o),
(107,106,o),
(107,222,cs),
(107,355,o),
(195,463,o),
(303,463,cs),
(385,463,o),
(439,388,o),
(439,274,cs),
(439,141,o),
(354,37,o),
(245,37,cs)
);
}
);
width = 547;
}
);
unicode = 111;
},
{
glyphname = oslash;
kernLeft = o;
kernRight = o;
lastChange = "2022-12-31 10:50:50 +0000";
layers = (
{
layerId = m01;
shapes = (
{
closed = 1;
nodes = (
(98,-66,l),
(571,566,l),
(493,566,l),
(20,-66,l)
);
},
{
pos = (15,0);
ref = o;
}
);
width = 591;
},
{
layerId = m005;
shapes = (
{
closed = 1;
nodes = (
(109,-66,l),
(573,566,l),
(474,566,l),
(10,-66,l)
);
},
{
pos = (-4,0);
ref = o;
}
);
width = 583;
},
{
layerId = m007;
shapes = (
{
closed = 1;
nodes = (
(77,-56,l),
(534,556,l),
(482,556,l),
(25,-56,l)
);
},
{
pos = (3,0);
ref = o;
}
);
width = 559;
},
{
layerId = m004;
shapes = (
{
closed = 1;
nodes = (
(37,-66,l),
(633,566,l),
(555,566,l),
(-41,-66,l)
);
},
{
pos = (18,0);
ref = o;
}
);
width = 592;
},
{
layerId = m008;
shapes = (
{
closed = 1;
nodes = (
(48,-66,l),
(635,566,l),
(536,566,l),
(-51,-66,l)
);
},
{
pos = (-3,0);
ref = o;
}
);
width = 584;
},
{
layerId = m006;
shapes = (
{
closed = 1;
nodes = (
(18,-56,l),
(594,556,l),
(542,556,l),
(-34,-56,l)
);
},
{
pos = (7,0);
ref = o;
}
);
width = 560;
}
);
metricLeft = "=o-25";
metricRight = "=o-25";
unicode = 248;
},
{
glyphname = p;
kernLeft = p;
kernRight = o;
lastChange = "2022-12-31 10:20:28 +0000";
layers = (
{
layerId = m01;
shapes = (
{
closed = 1;
nodes = (
(444,-16,o),
(536,95,o),
(536,250,cs),
(536,405,o),
(444,516,o),
(314,516,cs),
(208,516,o),
(135,441,o),
(135,330,cs),
(135,170,ls),
(135,59,o),
(208,-16,o),
(314,-16,cs)
);
},
{
closed = 1;
nodes = (
(150,-200,l),
(150,500,l),
(75,500,l),
(75,-200,l)
);
},
{
closed = 1;
nodes = (
(212,57,o),
(150,135,o),
(150,250,cs),
(150,365,o),
(212,443,o),
(304,443,cs),
(396,443,o),
(458,365,o),
(458,250,cs),
(458,135,o),
(396,57,o),
(304,57,cs)
);
}
);
width = 581;
},
{
layerId = m005;
shapes = (
{
closed = 1;
nodes = (
(494,-16,o),
(586,94,o),
(586,250,cs),
(586,406,o),
(494,516,o),
(364,516,cs),
(249,516,o),
(175,427,o),
(175,290,cs),
(175,210,ls),
(175,73,o),
(249,-16,o),
(364,-16,cs)
);
},
{
closed = 1;
nodes = (
(200,-200,l),
(200,500,l),
(65,500,l),
(65,-200,l)
);
},
{
closed = 1;
nodes = (
(250,97,o),
(200,158,o),
(200,250,cs),
(200,342,o),
(250,403,o),
(324,403,cs),
(398,403,o),
(448,342,o),
(448,250,cs),
(448,158,o),
(398,97,o),
(324,97,cs)
);
}
);
width = 621;
},
{
layerId = m007;
shapes = (
{
closed = 1;
nodes = (
(434,-16,o),
(521,93,o),
(521,250,cs),
(521,407,o),
(434,516,o),
(309,516,cs),
(202,516,o),
(125,438,o),
(125,330,cs),
(125,170,ls),
(125,62,o),
(202,-16,o),
(309,-16,cs)
);
},
{
closed = 1;
nodes = (
(135,-200,l),
(135,500,l),
(80,500,l),
(80,-200,l)
);
},
{
closed = 1;
nodes = (
(201,37,o),
(135,123,o),
(135,250,cs),
(135,377,o),
(201,463,o),
(299,463,cs),
(397,463,o),
(463,377,o),
(463,250,cs),
(463,123,o),
(397,37,o),
(299,37,cs)
);
}
);
width = 571;
},
{
layerId = m004;
shapes = (
{
closed = 1;
nodes = (
(424,-16,o),
(540,119,o),
(540,291,cs),
(540,426,o),
(462,516,o),
(344,516,cs),
(242,516,o),
(171,446,o),
(147,323,cs),
(122,193,ls),
(97,67,o),
(159,-16,o),
(277,-16,cs)
);
},
{
closed = 1;
nodes = (
(63,-200,l),
(199,500,l),
(124,500,l),
(-12,-200,l)
);
},
{
closed = 1;
nodes = (
(181,57,o),
(130,143,o),
(154,267,cs),
(177,381,o),
(235,443,o),
(320,443,cs),
(406,443,o),
(462,383,o),
(462,291,cs),
(462,160,o),
(382,57,o),
(280,57,cs)
);
}
);
width = 584;
},
{
layerId = m008;
shapes = (
{
closed = 1;
nodes = (
(471,-16,o),
(584,120,o),
(584,286,cs),
(584,422,o),
(510,516,o),
(404,516,cs),
(298,516,o),
(208,424,o),
(183,290,cs),
(168,210,ls),
(143,81,o),
(214,-16,o),
(332,-16,cs)
);
},
{
closed = 1;
nodes = (
(113,-200,l),
(249,500,l),
(114,500,l),
(-22,-200,l)
);
},
{
closed = 1;
nodes = (
(224,97,o),
(183,163,o),
(202,256,cs),
(218,341,o),
(280,403,o),
(350,403,cs),
(412,403,o),
(448,354,o),
(448,272,cs),
(448,171,o),
(385,97,o),
(300,97,cs)
);
}
);
width = 619;
},
{
layerId = m006;
shapes = (
{
closed = 1;
nodes = (
(420,-16,o),
(525,118,o),
(525,295,cs),
(525,433,o),
(457,516,o),
(344,516,cs),
(236,516,o),
(153,441,o),
(128,321,cs),
(108,226,ls),
(79,90,o),
(155,-16,o),
(281,-16,cs)
);
},
{
closed = 1;
nodes = (
(48,-200,l),
(184,500,l),
(129,500,l),
(-7,-200,l)
);
},
{
closed = 1;
nodes = (
(174,37,o),
(113,136,o),
(139,264,cs),
(162,380,o),
(243,463,o),
(334,463,cs),
(416,463,o),
(468,395,o),
(468,289,cs),
(468,148,o),
(384,37,o),
(277,37,cs)
);
}
);
width = 574;
}
);
metricLeft = b;
metricRight = o;
unicode = 112;
},
{
glyphname = thorn;
kernLeft = h;
kernRight = o;
lastChange = "2022-12-31 10:20:28 +0000";
layers = (
{
layerId = m01;
shapes = (
{
closed = 1;
nodes = (
(444,-16,o),
(536,95,o),
(536,250,cs),
(536,405,o),
(444,516,o),
(314,516,cs),
(208,516,o),
(135,441,o),
(135,330,cs),
(135,170,ls),
(135,59,o),
(208,-16,o),
(314,-16,cs)
);
},
{
closed = 1;
nodes = (
(150,-200,l),
(150,700,l),
(75,700,l),
(75,-200,l)
);
},
{
closed = 1;
nodes = (
(212,57,o),
(150,135,o),
(150,250,cs),
(150,365,o),
(212,443,o),
(304,443,cs),
(396,443,o),
(458,365,o),
(458,250,cs),
(458,135,o),
(396,57,o),
(304,57,cs)
);
}
);
width = 581;
},
{
layerId = m005;
shapes = (
{
closed = 1;
nodes = (
(494,-16,o),
(586,94,o),
(586,250,cs),
(586,406,o),
(494,516,o),
(364,516,cs),
(249,516,o),
(175,427,o),
(175,290,cs),
(175,210,ls),
(175,73,o),
(249,-16,o),
(364,-16,cs)
);
},
{
closed = 1;
nodes = (
(200,-200,l),
(200,700,l),
(65,700,l),
(65,-200,l)
);
},
{
closed = 1;
nodes = (
(250,97,o),
(200,158,o),
(200,250,cs),
(200,342,o),
(250,403,o),
(324,403,cs),
(398,403,o),
(448,342,o),
(448,250,cs),
(448,158,o),
(398,97,o),
(324,97,cs)
);
}
);
width = 621;
},
{
layerId = m007;
shapes = (
{
closed = 1;
nodes = (
(434,-16,o),
(521,93,o),
(521,250,cs),
(521,407,o),
(434,516,o),
(309,516,cs),
(202,516,o),
(125,438,o),
(125,330,cs),
(125,170,ls),
(125,62,o),
(202,-16,o),
(309,-16,cs)
);
},
{
closed = 1;
nodes = (
(135,-200,l),
(135,700,l),
(80,700,l),
(80,-200,l)
);
},
{
closed = 1;
nodes = (
(201,37,o),
(135,123,o),
(135,250,cs),
(135,377,o),
(201,463,o),
(299,463,cs),
(397,463,o),
(463,377,o),
(463,250,cs),
(463,123,o),
(397,37,o),
(299,37,cs)
);
}
);
width = 571;
},
{
layerId = m004;
shapes = (
{
closed = 1;
nodes = (
(424,-16,o),
(540,119,o),
(540,291,cs),
(540,426,o),
(462,516,o),
(344,516,cs),
(242,516,o),
(171,446,o),
(147,323,cs),
(122,193,ls),
(97,67,o),
(159,-16,o),
(277,-16,cs)
);
},
{
closed = 1;
nodes = (
(63,-200,l),
(238,700,l),
(163,700,l),
(-12,-200,l)
);
},
{
closed = 1;
nodes = (
(181,57,o),
(130,143,o),
(154,267,cs),
(177,381,o),
(235,443,o),
(320,443,cs),
(406,443,o),
(462,383,o),
(462,291,cs),
(462,160,o),
(382,57,o),
(280,57,cs)
);
}
);
width = 584;
},
{
layerId = m008;
shapes = (
{
closed = 1;
nodes = (
(471,-16,o),
(584,120,o),
(584,286,cs),
(584,422,o),
(510,516,o),
(404,516,cs),
(298,516,o),
(208,424,o),
(183,290,cs),
(168,210,ls),
(143,81,o),
(214,-16,o),
(332,-16,cs)
);
},
{
closed = 1;
nodes = (
(113,-200,l),
(288,700,l),
(153,700,l),
(-22,-200,l)
);
},
{
closed = 1;
nodes = (
(224,97,o),
(183,163,o),
(202,256,cs),
(218,341,o),
(280,403,o),
(350,403,cs),
(412,403,o),
(448,354,o),
(448,272,cs),
(448,171,o),
(385,97,o),
(300,97,cs)
);
}
);
width = 619;
},
{
layerId = m006;
shapes = (
{
closed = 1;
nodes = (
(420,-16,o),
(525,118,o),
(525,295,cs),
(525,433,o),
(457,516,o),
(344,516,cs),
(236,516,o),
(153,441,o),
(128,321,cs),
(108,226,ls),
(79,90,o),
(155,-16,o),
(281,-16,cs)
);
},
{
closed = 1;
nodes = (
(48,-200,l),
(223,700,l),
(168,700,l),
(-7,-200,l)
);
},
{
closed = 1;
nodes = (
(174,37,o),
(113,136,o),
(139,264,cs),
(162,380,o),
(243,463,o),
(334,463,cs),
(416,463,o),
(468,395,o),
(468,289,cs),
(468,148,o),
(384,37,o),
(277,37,cs)
);
}
);
width = 574;
}
);
metricLeft = h;
metricRight = b;
unicode = 254;
},
{
glyphname = q;
kernLeft = o;
kernRight = g;
lastChange = "2022-12-31 10:20:28 +0000";
layers = (
{
layerId = m01;
shapes = (
{
closed = 1;
nodes = (
(373,-16,o),
(446,59,o),
(446,170,cs),
(446,330,ls),
(446,441,o),
(373,516,o),
(267,516,cs),
(137,516,o),
(45,406,o),
(45,250,cs),
(45,95,o),
(138,-16,o),
(267,-16,cs)
);
},
{
closed = 1;
nodes = (
(185,57,o),
(123,135,o),
(123,250,cs),
(123,365,o),
(185,443,o),
(277,443,cs),
(369,443,o),
(431,365,o),
(431,250,cs),
(431,135,o),
(369,57,o),
(277,57,cs)
);
},
{
closed = 1;
nodes = (
(506,-200,l),
(506,500,l),
(431,500,l),
(431,-200,l)
);
}
);
width = 581;
},
{
layerId = m005;
shapes = (
{
closed = 1;
nodes = (
(372,-16,o),
(446,73,o),
(446,210,cs),
(446,290,ls),
(446,427,o),
(372,516,o),
(257,516,cs),
(126,516,o),
(35,407,o),
(35,250,cs),
(35,95,o),
(128,-16,o),
(257,-16,cs)
);
},
{
closed = 1;
nodes = (
(223,97,o),
(173,158,o),
(173,250,cs),
(173,342,o),
(223,403,o),
(297,403,cs),
(371,403,o),
(421,342,o),
(421,250,cs),
(421,158,o),
(371,97,o),
(297,97,cs)
);
},
{
closed = 1;
nodes = (
(556,-200,l),
(556,500,l),
(421,500,l),
(421,-200,l)
);
}
);
width = 621;
},
{
layerId = m007;
shapes = (
{
closed = 1;
nodes = (
(373,-16,o),
(456,64,o),
(456,170,cs),
(456,330,ls),
(456,436,o),
(372,516,o),
(262,516,cs),
(135,516,o),
(50,409,o),
(50,250,cs),
(50,91,o),
(135,-16,o),
(262,-16,cs)
);
},
{
closed = 1;
nodes = (
(174,37,o),
(108,123,o),
(108,250,cs),
(108,377,o),
(174,463,o),
(272,463,cs),
(370,463,o),
(436,377,o),
(436,250,cs),
(436,123,o),
(370,37,o),
(272,37,cs)
);
},
{
closed = 1;
nodes = (
(491,-200,l),
(491,500,l),
(436,500,l),
(436,-200,l)
);
}
);
width = 571;
},
{
layerId = m004;
shapes = (
{
closed = 1;
nodes = (
(342,-16,o),
(413,54,o),
(437,177,cs),
(462,307,ls),
(487,433,o),
(425,516,o),
(307,516,cs),
(160,516,o),
(44,381,o),
(44,209,cs),
(44,74,o),
(122,-16,o),
(240,-16,cs)
);
},
{
closed = 1;
nodes = (
(178,57,o),
(122,117,o),
(122,209,cs),
(122,340,o),
(202,443,o),
(304,443,cs),
(403,443,o),
(454,357,o),
(430,233,cs),
(407,119,o),
(349,57,o),
(264,57,cs)
);
},
{
closed = 1;
nodes = (
(421,-200,l),
(557,500,l),
(482,500,l),
(346,-200,l)
);
}
);
width = 583;
},
{
layerId = m008;
shapes = (
{
closed = 1;
nodes = (
(321,-16,o),
(411,76,o),
(436,210,cs),
(451,290,ls),
(476,419,o),
(405,516,o),
(287,516,cs),
(148,516,o),
(35,380,o),
(35,214,cs),
(35,78,o),
(109,-16,o),
(215,-16,cs)
);
},
{
closed = 1;
nodes = (
(207,97,o),
(171,146,o),
(171,228,cs),
(171,329,o),
(234,403,o),
(319,403,cs),
(395,403,o),
(436,337,o),
(417,244,cs),
(401,159,o),
(339,97,o),
(269,97,cs)
);
},
{
closed = 1;
nodes = (
(466,-200,l),
(602,500,l),
(467,500,l),
(331,-200,l)
);
}
);
width = 618;
},
{
layerId = m006;
shapes = (
{
closed = 1;
nodes = (
(338,-16,o),
(421,59,o),
(446,179,cs),
(466,274,ls),
(495,410,o),
(419,516,o),
(293,516,cs),
(154,516,o),
(49,382,o),
(49,205,cs),
(49,67,o),
(117,-16,o),
(230,-16,cs)
);
},
{
closed = 1;
nodes = (
(158,37,o),
(106,105,o),
(106,211,cs),
(106,352,o),
(190,463,o),
(297,463,cs),
(400,463,o),
(461,364,o),
(435,236,cs),
(412,120,o),
(331,37,o),
(240,37,cs)
);
},
{
closed = 1;
nodes = (
(406,-200,l),
(542,500,l),
(487,500,l),
(351,-200,l)
);
}
);
width = 573;
}
);
metricLeft = o;
metricRight = l;
unicode = 113;
},
{
glyphname = r;
kernLeft = m;
kernRight = r;
lastChange = "2022-12-31 11:00:00 +0000";
layers = (
{
layerId = m01;
shapes = (
{
closed = 1;
nodes = (
(150,0,l),
(150,228,ls),
(150,359,o),
(191,427,o),
(271,427,cs),
(353,427,l),
(353,500,l),
(261,500,ls),
(187,500,o),
(142,415,o),
(142,275,c),
(150,335,l),
(150,500,l),
(75,500,l),
(75,0,l)
);
}
);
width = 373;
},
{
layerId = m005;
shapes = (
{
closed = 1;
nodes = (
(200,0,l),
(200,208,ls),
(200,340,o),
(232,387,o),
(321,387,cs),
(403,387,l),
(403,500,l),
(311,500,ls),
(228,500,o),
(182,409,o),
(182,245,c),
(200,314,l),
(200,500,l),
(65,500,l),
(65,0,l)
);
}
);
width = 413;
},
{
layerId = m007;
shapes = (
{
closed = 1;
nodes = (
(135,0,l),
(135,238,ls),
(135,374,o),
(181,447,o),
(266,447,cs),
(338,447,l),
(338,500,l),
(256,500,ls),
(181,500,o),
(127,410,o),
(127,285,c),
(135,346,l),
(135,500,l),
(80,500,l),
(80,0,l)
);
}
);
width = 363;
},
{
layerId = m004;
shapes = (
{
closed = 1;
nodes = (
(102,0,l),
(146,228,ls),
(172,359,o),
(227,427,o),
(306,427,cs),
(388,427,l),
(402,500,l),
(310,500,ls),
(236,500,o),
(175,416,o),
(147,275,c),
(167,335,l),
(199,500,l),
(124,500,l),
(27,0,l)
);
}
);
width = 374;
},
{
layerId = m008;
shapes = (
{
closed = 1;
nodes = (
(152,0,l),
(192,208,ls),
(218,340,o),
(259,387,o),
(348,387,cs),
(430,387,l),
(452,500,l),
(360,500,ls),
(277,500,o),
(214,410,o),
(182,245,c),
(213,314,l),
(249,500,l),
(114,500,l),
(17,0,l)
);
}
);
width = 413;
},
{
layerId = m006;
shapes = (
{
closed = 1;
nodes = (
(87,0,l),
(133,238,ls),
(159,374,o),
(219,447,o),
(305,447,cs),
(377,447,l),
(387,500,l),
(305,500,ls),
(230,500,o),
(158,410,o),
(134,285,c),
(154,346,l),
(184,500,l),
(129,500,l),
(32,0,l)
);
}
);
width = 364;
}
);
metricLeft = m;
unicode = 114;
},
{
glyphname = s;
kernLeft = s;
kernRight = s;
lastChange = "2022-12-31 11:00:07 +0000";
layers = (
{
layerId = m01;
shapes = (
{
closed = 1;
nodes = (
(373,-16,o),
(463,55,o),
(463,147,cs),
(463,370,o),
(144,242,o),
(144,368,cs),
(144,413,o),
(188,443,o),
(253,443,cs),
(321,443,o),
(369,410,o),
(369,362,c),
(442,372,l),
(442,454,o),
(361,516,o),
(256,516,cs),
(149,516,o),
(66,451,o),
(66,368,cs),
(66,162,o),
(385,288,o),
(385,147,cs),
(385,94,o),
(334,57,o),
(261,57,cs),
(175,57,o),
(113,108,o),
(113,180,c),
(40,170,l),
(40,64,o),
(133,-16,o),
(257,-16,cs)
);
}
);
width = 508;
},
{
layerId = m005;
shapes = (
{
closed = 1;
nodes = (
(418,-16,o),
(512,51,o),
(512,151,cs),
(512,361,o),
(193,269,o),
(193,359,cs),
(193,387,o),
(220,403,o),
(269,403,cs),
(325,403,o),
(357,383,o),
(357,347,c),
(491,357,l),
(491,452,o),
(403,516,o),
(270,516,cs),
(140,516,o),
(55,454,o),
(55,359,cs),
(55,149,o),
(374,261,o),
(374,151,cs),
(374,117,o),
(340,97,o),
(282,97,cs),
(209,97,o),
(163,128,o),
(163,176,c),
(30,166,l),
(30,58,o),
(130,-16,o),
(278,-16,cs)
);
}
);
width = 547;
},
{
layerId = m007;
shapes = (
{
closed = 1;
nodes = (
(364,-16,o),
(448,49,o),
(448,137,cs),
(448,347,o),
(129,235,o),
(129,378,cs),
(129,429,o),
(178,463,o),
(248,463,cs),
(315,463,o),
(366,431,o),
(373,383,c),
(427,391,l),
(421,464,o),
(348,516,o),
(251,516,cs),
(148,516,o),
(71,457,o),
(71,378,cs),
(71,177,o),
(390,293,o),
(390,137,cs),
(390,79,o),
(334,37,o),
(256,37,cs),
(170,37,o),
(105,87,o),
(98,159,c),
(45,151,l),
(50,53,o),
(136,-16,o),
(252,-16,cs)
);
}
);
width = 498;
},
{
layerId = m004;
shapes = (
{
closed = 1;
nodes = (
(360,-16,o),
(443,54,o),
(443,153,cs),
(443,331,o),
(176,268,o),
(176,375,cs),
(176,416,o),
(215,443,o),
(276,443,cs),
(343,443,o),
(391,411,o),
(396,362,c),
(471,372,l),
(465,458,o),
(388,516,o),
(282,516,cs),
(174,516,o),
(98,455,o),
(98,369,cs),
(98,207,o),
(365,272,o),
(365,150,cs),
(365,97,o),
(315,57,o),
(244,57,cs),
(165,57,o),
(105,107,o),
(99,180,c),
(24,170,l),
(30,60,o),
(120,-16,o),
(242,-16,cs)
);
}
);
width = 510;
},
{
layerId = m008;
shapes = (
{
closed = 1;
nodes = (
(400,-16,o),
(493,50,o),
(493,154,cs),
(493,332,o),
(220,267,o),
(220,354,cs),
(220,383,o),
(249,403,o),
(297,403,cs),
(348,403,o),
(381,381,o),
(381,347,c),
(517,357,l),
(517,452,o),
(429,516,o),
(294,516,cs),
(169,516,o),
(82,461,o),
(82,359,cs),
(82,177,o),
(355,245,o),
(355,156,cs),
(355,123,o),
(317,97,o),
(257,97,cs),
(191,97,o),
(149,128,o),
(149,176,c),
(14,166,l),
(14,58,o),
(102,-16,o),
(255,-16,cs)
);
}
);
width = 550;
},
{
layerId = m006;
shapes = (
{
closed = 1;
nodes = (
(344,-16,o),
(428,54,o),
(428,148,cs),
(428,319,o),
(153,253,o),
(153,374,cs),
(153,426,o),
(206,463,o),
(280,463,cs),
(355,463,o),
(403,426,o),
(403,371,c),
(459,381,l),
(459,461,o),
(386,516,o),
(282,516,cs),
(173,516,o),
(95,456,o),
(95,368,cs),
(95,203,o),
(370,277,o),
(370,142,cs),
(370,81,o),
(314,37,o),
(235,37,cs),
(146,37,o),
(83,92,o),
(83,171,c),
(28,161,l),
(28,58,o),
(114,-16,o),
(231,-16,cs)
);
}
);
width = 501;
}
);
unicode = 115;
},
{
glyphname = germandbls;
kernLeft = l;
kernRight = o;
lastChange = "2022-12-31 10:20:28 +0000";
layers = (
{
layerId = m01;
shapes = (
{
closed = 1;
nodes = (
(150,0,l),
(150,500,ls),
(150,585,o),
(203,643,o),
(281,643,cs),
(352,643,o),
(400,596,o),
(400,528,cs),
(400,456,o),
(347,402,o),
(275,402,cs),
(240,402,l),
(240,329,l),
(290,329,ls),
(375,329,o),
(434,277,o),
(434,201,cs),
(434,125,o),
(375,73,o),
(290,73,cs),
(240,73,l),
(240,0,l),
(280,0,ls),
(416,0,o),
(512,82,o),
(512,198,cs),
(512,293,o),
(449,362,o),
(349,377,c),
(351,360,l),
(428,379,o),
(478,445,o),
(478,530,cs),
(478,639,o),
(396,716,o),
(280,716,cs),
(158,716,o),
(75,628,o),
(75,500,cs),
(75,0,l)
);
}
);
width = 557;
},
{
layerId = m005;
shapes = (
{
closed = 1;
nodes = (
(200,0,l),
(200,480,ls),
(200,552,o),
(247,603,o),
(313,603,cs),
(369,603,o),
(409,566,o),
(409,513,cs),
(409,458,o),
(365,422,o),
(299,422,cs),
(279,422,l),
(279,306,l),
(339,306,ls),
(401,306,o),
(443,267,o),
(443,211,cs),
(443,155,o),
(401,116,o),
(339,116,cs),
(279,116,l),
(279,0,l),
(329,0,ls),
(479,0,o),
(581,79,o),
(581,197,cs),
(581,295,o),
(510,364,o),
(399,375,c),
(400,363,l),
(488,376,o),
(547,444,o),
(547,533,cs),
(547,642,o),
(457,716,o),
(322,716,cs),
(169,716,o),
(65,620,o),
(65,480,cs),
(65,0,l)
);
}
);
width = 616;
},
{
layerId = m007;
shapes = (
{
closed = 1;
nodes = (
(135,0,l),
(135,510,l),
(138,602,o),
(194,663,o),
(276,663,cs),
(353,663,o),
(405,610,o),
(405,533,cs),
(405,452,o),
(347,392,o),
(270,392,cs),
(245,392,l),
(245,339,l),
(285,339,ls),
(375,339,o),
(439,280,o),
(439,196,cs),
(439,112,o),
(375,53,o),
(285,53,cs),
(245,53,l),
(245,0,l),
(275,0,ls),
(406,0,o),
(497,80,o),
(497,194,cs),
(497,299,o),
(420,372,o),
(311,371,c),
(312,366,l),
(399,365,o),
(463,436,o),
(463,533,cs),
(463,640,o),
(386,716,o),
(276,716,cs),
(162,716,o),
(83,633,o),
(80,510,cs),
(80,0,l)
);
}
);
width = 547;
},
{
layerId = m004;
shapes = (
{
closed = 1;
nodes = (
(102,0,l),
(199,500,ls),
(217,593,o),
(268,643,o),
(343,643,cs),
(411,643,o),
(453,601,o),
(453,534,cs),
(453,454,o),
(394,402,o),
(305,402,cs),
(270,402,l),
(256,329,l),
(306,329,ls),
(377,329,o),
(423,283,o),
(423,210,cs),
(423,124,o),
(361,73,o),
(256,73,cs),
(206,73,l),
(192,0,l),
(256,0,ls),
(399,0,o),
(500,86,o),
(500,207,cs),
(500,305,o),
(434,376,o),
(344,376,c),
(344,360,l),
(450,360,o),
(531,438,o),
(531,538,cs),
(531,639,o),
(449,716,o),
(342,716,cs),
(232,716,o),
(150,635,o),
(124,500,cs),
(27,0,l)
);
}
);
width = 557;
},
{
layerId = m008;
shapes = (
{
closed = 1;
nodes = (
(152,0,l),
(245,480,ls),
(259,553,o),
(311,603,o),
(372,603,cs),
(423,603,o),
(460,566,o),
(460,517,cs),
(460,460,o),
(409,422,o),
(333,422,cs),
(313,422,l),
(290,306,l),
(330,306,ls),
(393,306,o),
(435,271,o),
(435,220,cs),
(435,161,o),
(382,116,o),
(314,116,cs),
(254,116,l),
(231,0,l),
(314,0,ls),
(462,0,o),
(567,84,o),
(567,202,cs),
(567,303,o),
(490,376,o),
(382,376,c),
(382,363,l),
(511,363,o),
(599,433,o),
(599,535,cs),
(599,638,o),
(502,716,o),
(375,716,cs),
(239,716,o),
(138,626,o),
(110,480,cs),
(17,0,l)
);
}
);
width = 615;
},
{
layerId = m006;
shapes = (
{
closed = 1;
nodes = (
(87,0,l),
(186,510,ls),
(204,602,o),
(267,663,o),
(345,663,cs),
(413,663,o),
(458,613,o),
(458,539,cs),
(458,451,o),
(393,392,o),
(298,392,cs),
(273,392,l),
(263,339,l),
(293,339,ls),
(373,339,o),
(427,285,o),
(427,203,cs),
(427,111,o),
(357,53,o),
(247,53,cs),
(207,53,l),
(197,0,l),
(247,0,ls),
(390,0,o),
(484,81,o),
(484,204,cs),
(484,305,o),
(422,374,o),
(334,369,c),
(335,365,l),
(442,367,o),
(517,441,o),
(517,545,cs),
(517,646,o),
(447,716,o),
(345,716,cs),
(237,716,o),
(155,637,o),
(131,510,cs),
(32,0,l)
);
}
);
width = 547;
}
);
metricLeft = l;
metricRight = o;
unicode = 223;
},
{
glyphname = t;
kernLeft = t;
kernRight = t;
lastChange = "2022-12-30 09:33:56 +0000";
layers = (
{
layerId = m01;
shapes = (
{
closed = 1;
nodes = (
(348,0,l),
(348,73,l),
(258,73,ls),
(218,73,o),
(198,93,o),
(198,133,cs),
(198,660,l),
(123,660,l),
(123,140,ls),
(123,46,o),
(169,0,o),
(263,0,cs)
);
},
{
closed = 1;
nodes = (
(348,427,l),
(348,500,l),
(15,500,l),
(15,427,l)
);
}
);
width = 378;
},
{
layerId = m005;
shapes = (
{
closed = 1;
nodes = (
(398,0,l),
(398,113,l),
(308,113,ls),
(268,113,o),
(248,133,o),
(248,173,cs),
(248,661,l),
(113,661,l),
(113,160,ls),
(113,53,o),
(169,0,o),
(283,0,cs)
);
},
{
closed = 1;
nodes = (
(398,387,l),
(398,500,l),
(5,500,l),
(5,387,l)
);
}
);
width = 418;
},
{
layerId = m007;
shapes = (
{
closed = 1;
nodes = (
(333,0,l),
(333,53,l),
(253,53,ls),
(206,53,o),
(183,76,o),
(183,123,cs),
(183,660,l),
(128,660,l),
(128,130,ls),
(128,43,o),
(171,0,o),
(258,0,cs)
);
},
{
closed = 1;
nodes = (
(333,447,l),
(333,500,l),
(20,500,l),
(20,447,l)
);
}
);
width = 368;
},
{
layerId = m004;
shapes = (
{
closed = 1;
nodes = (
(300,0,l),
(314,73,l),
(224,73,ls),
(184,73,o),
(168,93,o),
(176,133,cs),
(278,660,l),
(203,660,l),
(102,140,ls),
(84,46,o),
(125,0,o),
(225,0,cs)
);
},
{
closed = 1;
nodes = (
(383,427,l),
(397,500,l),
(64,500,l),
(50,427,l)
);
}
);
width = 379;
},
{
layerId = m008;
shapes = (
{
closed = 1;
nodes = (
(350,0,l),
(372,113,l),
(282,113,ls),
(242,113,o),
(226,133,o),
(234,173,cs),
(328,661,l),
(193,661,l),
(96,160,ls),
(76,53,o),
(122,0,o),
(235,0,cs)
);
},
{
closed = 1;
nodes = (
(425,387,l),
(447,500,l),
(54,500,l),
(32,387,l)
);
}
);
width = 419;
},
{
layerId = m006;
shapes = (
{
closed = 1;
nodes = (
(285,0,l),
(295,53,l),
(215,53,ls),
(170,53,o),
(150,78,o),
(159,123,cs),
(263,660,l),
(208,660,l),
(105,130,ls),
(89,44,o),
(124,0,o),
(210,0,cs)
);
},
{
closed = 1;
nodes = (
(372,447,l),
(382,500,l),
(69,500,l),
(59,447,l)
);
}
);
width = 369;
}
);
unicode = 116;
},
{
glyphname = tbar;
kernLeft = t;
kernRight = t;
lastChange = "2022-12-30 09:33:56 +0000";
layers = (
{
layerId = m01;
shapes = (
{
closed = 1;
nodes = (
(348,260,l),
(348,320,l),
(15,320,l),
(15,260,l)
);
},
{
ref = t;
}
);
width = 378;
},
{
layerId = m005;
shapes = (
{
closed = 1;
nodes = (
(398,220,l),
(398,310,l),
(5,310,l),
(5,220,l)
);
},
{
ref = t;
}
);
width = 418;
},
{
layerId = m007;
shapes = (
{
closed = 1;
nodes = (
(333,270,l),
(333,310,l),
(20,310,l),
(20,270,l)
);
},
{
ref = t;
}
);
width = 368;
},
{
layerId = m004;
shapes = (
{
closed = 1;
nodes = (
(351,260,l),
(362,320,l),
(29,320,l),
(18,260,l)
);
},
{
pos = (20,0);
ref = t;
}
);
width = 399;
},
{
layerId = m008;
shapes = (
{
closed = 1;
nodes = (
(393,220,l),
(410,310,l),
(17,310,l),
(0,220,l)
);
},
{
pos = (20,0);
ref = t;
}
);
width = 439;
},
{
layerId = m006;
shapes = (
{
closed = 1;
nodes = (
(337,270,l),
(345,310,l),
(32,310,l),
(24,270,l)
);
},
{
pos = (20,0);
ref = t;
}
);
width = 389;
}
);
metricLeft = t;
metricRight = t;
unicode = 359;
},
{
glyphname = u;
kernLeft = u;
kernRight = u;
lastChange = "2022-12-30 09:33:56 +0000";
layers = (
{
layerId = m01;
shapes = (
{
closed = 1;
nodes = (
(327,-16,o),
(408,60,o),
(408,161,c),
(393,257,l),
(393,140,o),
(331,57,o),
(243,57,cs),
(178,57,o),
(140,102,o),
(140,181,cs),
(140,500,l),
(65,500,l),
(65,151,ls),
(65,45,o),
(120,-16,o),
(218,-16,cs)
);
},
{
closed = 1;
nodes = (
(468,0,l),
(468,500,l),
(393,500,l),
(393,0,l)
);
}
);
width = 543;
},
{
layerId = m005;
shapes = (
{
closed = 1;
nodes = (
(324,-16,o),
(409,79,o),
(409,207,c),
(383,257,l),
(383,161,o),
(339,97,o),
(272,97,cs),
(221,97,o),
(190,135,o),
(190,197,cs),
(190,500,l),
(55,500,l),
(55,181,ls),
(55,56,o),
(112,-16,o),
(211,-16,cs)
);
},
{
closed = 1;
nodes = (
(518,0,l),
(518,500,l),
(383,500,l),
(383,0,l)
);
}
);
width = 583;
},
{
layerId = m007;
shapes = (
{
closed = 1;
nodes = (
(334,-16,o),
(418,69,o),
(418,181,c),
(398,257,l),
(398,128,o),
(332,37,o),
(238,37,cs),
(165,37,o),
(125,91,o),
(125,191,cs),
(125,500,l),
(70,500,l),
(70,161,ls),
(70,50,o),
(127,-16,o),
(224,-16,cs)
);
},
{
closed = 1;
nodes = (
(453,0,l),
(453,500,l),
(398,500,l),
(398,0,l)
);
}
);
width = 533;
},
{
layerId = m004;
shapes = (
{
closed = 1;
nodes = (
(289,-16,o),
(375,59,o),
(389,161,c),
(395,257,l),
(373,140,o),
(295,57,o),
(206,57,cs),
(138,57,o),
(112,106,o),
(131,200,cs),
(189,500,l),
(114,500,l),
(52,182,ls),
(29,62,o),
(82,-16,o),
(186,-16,cs)
);
},
{
closed = 1;
nodes = (
(420,0,l),
(517,500,l),
(442,500,l),
(345,0,l)
);
}
);
width = 544;
},
{
layerId = m008;
shapes = (
{
closed = 1;
nodes = (
(309,-16,o),
(378,87,o),
(401,207,c),
(385,257,l),
(369,173,o),
(320,97,o),
(243,97,cs),
(182,97,o),
(170,145,o),
(180,197,cs),
(239,500,l),
(104,500,l),
(42,181,ls),
(21,74,o),
(78,-16,o),
(190,-16,cs)
);
},
{
closed = 1;
nodes = (
(470,0,l),
(567,500,l),
(432,500,l),
(335,0,l)
);
}
);
width = 584;
},
{
layerId = m006;
shapes = (
{
closed = 1;
nodes = (
(287,-16,o),
(382,62,o),
(405,181,c),
(400,257,l),
(372,118,o),
(288,37,o),
(197,37,cs),
(118,37,o),
(96,97,o),
(114,191,cs),
(174,500,l),
(119,500,l),
(53,161,ls),
(33,59,o),
(81,-16,o),
(183,-16,cs)
);
},
{
closed = 1;
nodes = (
(405,0,l),
(502,500,l),
(447,500,l),
(350,0,l)
);
}
);
width = 534;
}
);
unicode = 117;
},
{
glyphname = v;
kernLeft = v;
kernRight = v;
lastChange = "2022-12-30 09:33:56 +0000";
layers = (
{
layerId = m01;
shapes = (
{
closed = 1;
nodes = (
(287,0,l),
(475,500,l),
(397,500,l),
(225,43,l),
(256,43,l),
(93,500,l),
(15,500,l),
(193,0,l)
);
}
);
width = 490;
},
{
layerId = m005;
shapes = (
{
closed = 1;
nodes = (
(361,0,l),
(554,500,l),
(410,500,l),
(259,109,l),
(290,109,l),
(148,500,l),
(5,500,l),
(187,0,l)
);
}
);
width = 559;
},
{
layerId = m007;
shapes = (
{
closed = 1;
nodes = (
(266,0,l),
(452,500,l),
(395,500,l),
(216,19,l),
(247,19,l),
(77,500,l),
(20,500,l),
(196,0,l)
);
}
);
width = 472;
},
{
layerId = m004;
shapes = (
{
closed = 1;
nodes = (
(239,0,l),
(524,500,l),
(442,500,l),
(183,46,l),
(212,41,l),
(138,500,l),
(64,500,l),
(145,0,l)
);
}
);
width = 490;
},
{
layerId = m008;
shapes = (
{
closed = 1;
nodes = (
(313,0,l),
(603,500,l),
(457,500,l),
(224,98,l),
(255,93,l),
(185,500,l),
(54,500,l),
(139,0,l)
);
}
);
width = 559;
},
{
layerId = m006;
shapes = (
{
closed = 1;
nodes = (
(218,0,l),
(501,500,l),
(442,500,l),
(171,22,l),
(200,17,l),
(124,500,l),
(69,500,l),
(148,0,l)
);
}
);
width = 472;
}
);
unicode = 118;
},
{
glyphname = w;
kernLeft = w;
kernRight = w;
lastChange = "2022-12-30 09:33:56 +0000";
layers = (
{
layerId = m01;
shapes = (
{
closed = 1;
nodes = (
(250,0,l),
(396,446,l),
(368,446,l),
(513,0,l),
(611,0,l),
(733,500,l),
(655,500,l),
(543,40,l),
(568,41,l),
(418,500,l),
(345,500,l),
(195,41,l),
(220,40,l),
(108,500,l),
(30,500,l),
(152,0,l)
);
}
);
width = 763;
},
{
layerId = m005;
shapes = (
{
closed = 1;
nodes = (
(295,0,l),
(405,352,l),
(379,352,l),
(488,0,l),
(641,0,l),
(763,500,l),
(620,500,l),
(535,152,l),
(559,153,l),
(451,500,l),
(332,500,l),
(224,153,l),
(248,152,l),
(163,500,l),
(20,500,l),
(142,0,l)
);
}
);
width = 783;
},
{
layerId = m007;
shapes = (
{
closed = 1;
nodes = (
(235,0,l),
(384,446,l),
(374,446,l),
(522,0,l),
(600,0,l),
(722,500,l),
(665,500,l),
(553,41,l),
(560,40,l),
(407,500,l),
(350,500,l),
(197,40,l),
(204,41,l),
(92,500,l),
(35,500,l),
(157,0,l)
);
}
);
width = 757;
},
{
layerId = m004;
shapes = (
{
closed = 1;
nodes = (
(202,0,l),
(435,446,l),
(402,446,l),
(460,0,l),
(563,0,l),
(782,500,l),
(699,500,l),
(498,40,l),
(524,41,l),
(463,500,l),
(386,500,l),
(147,41,l),
(175,40,l),
(152,500,l),
(79,500,l),
(104,0,l)
);
}
);
width = 763;
},
{
layerId = m008;
shapes = (
{
closed = 1;
nodes = (
(242,0,l),
(420,352,l),
(394,352,l),
(435,0,l),
(593,0,l),
(812,500,l),
(674,500,l),
(522,152,l),
(536,153,l),
(495,500,l),
(375,500,l),
(200,153,l),
(214,152,l),
(196,500,l),
(69,500,l),
(94,0,l)
);
}
);
width = 783;
},
{
layerId = m006;
shapes = (
{
closed = 1;
nodes = (
(187,0,l),
(423,446,l),
(413,446,l),
(474,0,l),
(552,0,l),
(771,500,l),
(714,500,l),
(513,41,l),
(520,40,l),
(456,500,l),
(394,500,l),
(152,40,l),
(159,41,l),
(136,500,l),
(84,500,l),
(109,0,l)
);
}
);
width = 757;
}
);
metricLeft = "=v+15";
metricRight = "=v+15";
unicode = 119;
},
{
glyphname = x;
kernLeft = x;
kernRight = x;
lastChange = "2023-01-04 22:32:45 +0000";
layers = (
{
layerId = m01;
shapes = (
{
closed = 1;
nodes = (
(462,0,l),
(106,500,l),
(20,500,l),
(376,0,l)
);
},
{
closed = 1;
nodes = (
(106,0,l),
(462,500,l),
(376,500,l),
(20,0,l)
);
}
);
width = 482;
},
{
layerId = m005;
shapes = (
{
closed = 1;
nodes = (
(536,0,l),
(172,500,l),
(10,500,l),
(374,0,l)
);
},
{
closed = 1;
nodes = (
(172,0,l),
(536,500,l),
(374,500,l),
(10,0,l)
);
}
);
width = 546;
},
{
layerId = m007;
shapes = (
{
closed = 1;
nodes = (
(439,0,l),
(87,500,l),
(25,500,l),
(377,0,l)
);
},
{
closed = 1;
nodes = (
(87,0,l),
(439,500,l),
(377,500,l),
(25,0,l)
);
}
);
width = 464;
},
{
layerId = m004;
shapes = (
{
closed = 1;
nodes = (
(413,0,l),
(154,500,l),
(73,500,l),
(332,0,l)
);
},
{
closed = 1;
nodes = (
(62,0,l),
(515,500,l),
(424,500,l),
(-29,0,l)
);
}
);
width = 486;
},
{
layerId = m008;
shapes = (
{
closed = 1;
nodes = (
(487,0,l),
(220,500,l),
(68,500,l),
(335,0,l)
);
},
{
closed = 1;
nodes = (
(123,0,l),
(584,500,l),
(422,500,l),
(-39,0,l)
);
}
);
width = 546;
},
{
layerId = m006;
shapes = (
{
closed = 1;
nodes = (
(390,0,l),
(135,500,l),
(76,500,l),
(331,0,l)
);
},
{
closed = 1;
nodes = (
(41,0,l),
(490,500,l),
(425,500,l),
(-24,0,l)
);
}
);
width = 466;
}
);
unicode = 120;
},
{
glyphname = y;
kernLeft = y;
kernRight = y;
lastChange = "2022-12-31 10:40:51 +0000";
layers = (
{
layerId = m01;
shapes = (
{
closed = 1;
nodes = (
(198,-200,l),
(491,500,l),
(413,500,l),
(120,-200,l)
);
},
{
closed = 1;
nodes = (
(281,0,l),
(92,500,l),
(15,500,l),
(204,0,l)
);
}
);
width = 506;
},
{
layerId = m005;
shapes = (
{
closed = 1;
nodes = (
(261,-200,l),
(570,500,l),
(430,500,l),
(121,-200,l)
);
},
{
closed = 1;
nodes = (
(347,0,l),
(143,500,l),
(5,500,l),
(209,0,l)
);
}
);
width = 575;
},
{
layerId = m007;
shapes = (
{
closed = 1;
nodes = (
(182,-200,l),
(467,500,l),
(411,500,l),
(126,-200,l)
);
},
{
closed = 1;
nodes = (
(263,0,l),
(77,500,l),
(20,500,l),
(207,0,l)
);
}
);
width = 487;
},
{
layerId = m004;
shapes = (
{
closed = 1;
nodes = (
(111,-200,l),
(540,500,l),
(457,500,l),
(28,-200,l)
);
},
{
closed = 1;
nodes = (
(228,0,l),
(136,500,l),
(64,500,l),
(156,0,l)
);
}
);
width = 506;
},
{
layerId = m008;
shapes = (
{
closed = 1;
nodes = (
(174,-200,l),
(619,500,l),
(469,500,l),
(24,-200,l)
);
},
{
closed = 1;
nodes = (
(289,0,l),
(182,500,l),
(54,500,l),
(161,0,l)
);
}
);
width = 575;
},
{
layerId = m006;
shapes = (
{
closed = 1;
nodes = (
(100,-200,l),
(521,500,l),
(460,500,l),
(39,-200,l)
);
},
{
closed = 1;
nodes = (
(211,0,l),
(122,500,l),
(69,500,l),
(159,0,l)
);
}
);
width = 492;
}
);
metricLeft = v;
metricRight = v;
unicode = 121;
},
{
glyphname = z;
kernLeft = z;
kernRight = z;
lastChange = "2022-12-30 09:33:56 +0000";
layers = (
{
layerId = m01;
shapes = (
{
closed = 1;
nodes = (
(432,0,l),
(432,68,l),
(78,68,l),
(94,34,l),
(432,432,l),
(432,500,l),
(35,500,l),
(35,432,l),
(390,432,l),
(374,466,l),
(35,68,l),
(35,0,l)
);
}
);
width = 467;
},
{
layerId = m005;
shapes = (
{
closed = 1;
nodes = (
(462,0,l),
(462,108,l),
(144,108,l),
(158,76,l),
(462,392,l),
(462,500,l),
(25,500,l),
(25,392,l),
(344,392,l),
(330,424,l),
(25,108,l),
(25,0,l)
);
}
);
width = 487;
},
{
layerId = m007;
shapes = (
{
closed = 1;
nodes = (
(417,0,l),
(417,48,l),
(56,48,l),
(73,13,l),
(417,452,l),
(417,500,l),
(40,500,l),
(40,452,l),
(402,452,l),
(385,487,l),
(40,48,l),
(40,0,l)
);
}
);
width = 457;
},
{
layerId = m004;
shapes = (
{
closed = 1;
nodes = (
(384,0,l),
(397,68,l),
(43,68,l),
(56,37,l),
(468,432,l),
(481,500,l),
(84,500,l),
(71,432,l),
(426,432,l),
(414,463,l),
(0,68,l),
(-13,0,l)
);
}
);
width = 468;
},
{
layerId = m008;
shapes = (
{
closed = 1;
nodes = (
(414,0,l),
(435,108,l),
(117,108,l),
(128,79,l),
(490,392,l),
(511,500,l),
(74,500,l),
(53,392,l),
(372,392,l),
(361,421,l),
(-2,108,l),
(-23,0,l)
);
}
);
width = 488;
},
{
layerId = m006;
shapes = (
{
closed = 1;
nodes = (
(369,0,l),
(378,48,l),
(22,48,l),
(36,16,l),
(457,452,l),
(466,500,l),
(89,500,l),
(80,452,l),
(437,452,l),
(423,484,l),
(1,48,l),
(-8,0,l)
);
}
);
width = 458;
}
);
unicode = 122;
},
{
glyphname = y.ss02;
kernLeft = y;
kernRight = y;
lastChange = "2022-12-30 13:09:33 +0000";
layers = (
{
layerId = m01;
shapes = (
{
closed = 1;
nodes = (
(117,-200,ls),
(183,-200,o),
(227,-170,o),
(252,-109,cs),
(499,500,l),
(421,500,l),
(240,55,l),
(274,55,l),
(93,500,l),
(15,500,l),
(218,1,l),
(185,-80,ls),
(172,-112,o),
(149,-127,o),
(116,-127,cs),
(37,-127,l),
(37,-200,l)
);
}
);
width = 514;
},
{
layerId = m005;
shapes = (
{
closed = 1;
nodes = (
(161,-200,ls),
(240,-200,o),
(295,-164,o),
(327,-91,cs),
(584,500,l),
(435,500,l),
(274,132,l),
(309,132,l),
(154,500,l),
(5,500,l),
(217,0,l),
(202,-33,ls),
(189,-62,o),
(167,-77,o),
(135,-77,cs),
(35,-77,l),
(35,-200,l)
);
}
);
width = 589;
},
{
layerId = m007;
shapes = (
{
closed = 1;
nodes = (
(107,-200,ls),
(169,-200,o),
(211,-172,o),
(233,-115,cs),
(474,500,l),
(418,500,l),
(245,65,l),
(249,65,l),
(76,500,l),
(20,500,l),
(219,1,l),
(184,-94,ls),
(171,-130,o),
(145,-147,o),
(106,-147,cs),
(37,-147,l),
(37,-200,l)
);
}
);
width = 494;
},
{
layerId = m004;
shapes = (
{
closed = 1;
nodes = (
(38,-200,ls),
(92,-200,o),
(149,-167,o),
(183,-109,cs),
(548,500,l),
(465,500,l),
(198,55,l),
(232,55,l),
(137,500,l),
(64,500,l),
(170,1,l),
(116,-80,ls),
(94,-111,o),
(67,-127,o),
(38,-127,cs),
(-41,-127,l),
(-55,-200,l)
);
}
);
width = 514;
},
{
layerId = m008;
shapes = (
{
closed = 1;
nodes = (
(60,-200,ls),
(141,-200,o),
(212,-160,o),
(256,-91,cs),
(628,500,l),
(470,500,l),
(238,132,l),
(271,132,l),
(187,500,l),
(54,500,l),
(169,0,l),
(144,-33,ls),
(123,-61,o),
(93,-77,o),
(60,-77,cs),
(-42,-77,l),
(-66,-200,l)
);
}
);
width = 584;
},
{
layerId = m006;
shapes = (
{
closed = 1;
nodes = (
(29,-200,ls),
(82,-200,o),
(130,-170,o),
(163,-115,cs),
(523,500,l),
(467,500,l),
(210,65,l),
(214,65,l),
(125,500,l),
(69,500,l),
(171,1,l),
(118,-94,ls),
(99,-128,o),
(67,-147,o),
(29,-147,cs),
(-40,-147,l),
(-50,-200,l)
);
}
);
width = 494;
}
);
metricLeft = y;
metricRight = y;
},
{
glyphname = oslash.ss03;
kernLeft = o;
kernRight = o;
lastChange = "2022-12-31 10:50:53 +0000";
layers = (
{
layerId = m01;
shapes = (
{
closed = 1;
nodes = (
(98,0,l),
(591,500,l),
(513,500,l),
(20,0,l)
);
},
{
pos = (25,0);
ref = o;
}
);
width = 611;
},
{
layerId = m005;
shapes = (
{
closed = 1;
nodes = (
(129,0,l),
(633,500,l),
(514,500,l),
(10,0,l)
);
},
{
pos = (26,0);
ref = o;
}
);
width = 643;
},
{
layerId = m007;
shapes = (
{
closed = 1;
nodes = (
(75,0,l),
(548,500,l),
(498,500,l),
(25,0,l)
);
},
{
pos = (11,0);
ref = o;
}
);
width = 573;
},
{
layerId = m004;
shapes = (
{
closed = 1;
nodes = (
(49,0,l),
(639,500,l),
(561,500,l),
(-29,0,l)
);
},
{
pos = (27,0);
ref = o;
}
);
width = 610;
},
{
layerId = m008;
shapes = (
{
closed = 1;
nodes = (
(90,0,l),
(691,500,l),
(562,500,l),
(-39,0,l)
);
},
{
pos = (32,0);
ref = o;
}
);
width = 652;
},
{
layerId = m006;
shapes = (
{
closed = 1;
nodes = (
(26,0,l),
(596,500,l),
(546,500,l),
(-24,0,l)
);
},
{
pos = (13,0);
ref = o;
}
);
width = 572;
}
);
metricLeft = "=o-25";
metricRight = "=o-25";
},
{
glyphname = a.ss04;
kernLeft = o;
kernRight = u;
lastChange = "2022-12-31 10:20:28 +0000";
layers = (
{
layerId = m007;
shapes = (
{
closed = 1;
nodes = (
(373,-16,o),
(456,64,o),
(456,170,cs),
(456,330,ls),
(456,436,o),
(372,516,o),
(262,516,cs),
(135,516,o),
(50,409,o),
(50,250,cs),
(50,91,o),
(135,-16,o),
(262,-16,cs)
);
},
{
closed = 1;
nodes = (
(174,37,o),
(108,123,o),
(108,250,cs),
(108,377,o),
(174,463,o),
(272,463,cs),
(370,463,o),
(436,377,o),
(436,250,cs),
(436,123,o),
(370,37,o),
(272,37,cs)
);
},
{
closed = 1;
nodes = (
(491,0,l),
(491,500,l),
(436,500,l),
(436,0,l)
);
}
);
width = 571;
},
{
layerId = m01;
shapes = (
{
closed = 1;
nodes = (
(373,-16,o),
(446,59,o),
(446,170,cs),
(446,330,ls),
(446,441,o),
(373,516,o),
(267,516,cs),
(137,516,o),
(45,406,o),
(45,250,cs),
(45,95,o),
(138,-16,o),
(267,-16,cs)
);
},
{
closed = 1;
nodes = (
(185,57,o),
(123,135,o),
(123,250,cs),
(123,365,o),
(185,443,o),
(277,443,cs),
(369,443,o),
(431,365,o),
(431,250,cs),
(431,135,o),
(369,57,o),
(277,57,cs)
);
},
{
closed = 1;
nodes = (
(506,0,l),
(506,500,l),
(431,500,l),
(431,0,l)
);
}
);
width = 581;
},
{
layerId = m005;
shapes = (
{
closed = 1;
nodes = (
(372,-16,o),
(446,73,o),
(446,210,cs),
(446,290,ls),
(446,427,o),
(372,516,o),
(257,516,cs),
(126,516,o),
(35,407,o),
(35,250,cs),
(35,95,o),
(128,-16,o),
(257,-16,cs)
);
},
{
closed = 1;
nodes = (
(223,97,o),
(173,158,o),
(173,250,cs),
(173,342,o),
(223,403,o),
(297,403,cs),
(371,403,o),
(421,342,o),
(421,250,cs),
(421,158,o),
(371,97,o),
(297,97,cs)
);
},
{
closed = 1;
nodes = (
(556,0,l),
(556,500,l),
(421,500,l),
(421,0,l)
);
}
);
width = 621;
},
{
layerId = m006;
shapes = (
{
closed = 1;
nodes = (
(338,-16,o),
(421,59,o),
(446,179,cs),
(466,274,ls),
(495,410,o),
(419,516,o),
(293,516,cs),
(154,516,o),
(49,382,o),
(49,205,cs),
(49,67,o),
(117,-16,o),
(230,-16,cs)
);
},
{
closed = 1;
nodes = (
(158,37,o),
(106,105,o),
(106,211,cs),
(106,352,o),
(190,463,o),
(297,463,cs),
(400,463,o),
(461,364,o),
(435,236,cs),
(412,120,o),
(331,37,o),
(240,37,cs)
);
},
{
closed = 1;
nodes = (
(445,0,l),
(542,500,l),
(487,500,l),
(390,0,l)
);
}
);
width = 574;
},
{
layerId = m004;
shapes = (
{
closed = 1;
nodes = (
(342,-16,o),
(413,54,o),
(437,177,cs),
(462,307,ls),
(487,433,o),
(425,516,o),
(307,516,cs),
(160,516,o),
(44,381,o),
(44,209,cs),
(44,74,o),
(122,-16,o),
(240,-16,cs)
);
},
{
closed = 1;
nodes = (
(178,57,o),
(122,117,o),
(122,209,cs),
(122,340,o),
(202,443,o),
(304,443,cs),
(403,443,o),
(454,357,o),
(430,233,cs),
(407,119,o),
(349,57,o),
(264,57,cs)
);
},
{
closed = 1;
nodes = (
(460,0,l),
(557,500,l),
(482,500,l),
(385,0,l)
);
}
);
width = 584;
},
{
layerId = m008;
shapes = (
{
closed = 1;
nodes = (
(321,-16,o),
(411,76,o),
(436,210,cs),
(451,290,ls),
(476,419,o),
(405,516,o),
(287,516,cs),
(148,516,o),
(35,380,o),
(35,214,cs),
(35,78,o),
(109,-16,o),
(215,-16,cs)
);
},
{
closed = 1;
nodes = (
(207,97,o),
(171,146,o),
(171,228,cs),
(171,329,o),
(234,403,o),
(319,403,cs),
(395,403,o),
(436,337,o),
(417,244,cs),
(401,159,o),
(339,97,o),
(269,97,cs)
);
},
{
closed = 1;
nodes = (
(505,0,l),
(602,500,l),
(467,500,l),
(370,0,l)
);
}
);
width = 619;
}
);
metricLeft = o;
metricRight = u;
},
{
glyphname = ae.ss04;
kernLeft = o;
kernRight = o;
lastChange = "2022-12-31 10:20:28 +0000";
layers = (
{
layerId = m007;
shapes = (
{
closed = 1;
nodes = (
(766,-16,o),
(843,39,o),
(867,135,c),
(808,143,l),
(788,75,o),
(738,37,o),
(667,37,cs),
(558,37,o),
(499,131,o),
(499,240,c),
(872,240,l),
(872,248,ls),
(872,428,o),
(778,516,o),
(658,516,cs),
(538,516,o),
(451,418,o),
(451,248,cs),
(451,107,o),
(526,-16,o),
(667,-16,cs)
);
},
{
closed = 1;
nodes = (
(371,-16,o),
(456,61,o),
(456,170,cs),
(456,330,ls),
(456,439,o),
(371,516,o),
(262,516,cs),
(122,516,o),
(50,390,o),
(50,250,cs),
(50,110,o),
(122,-16,o),
(262,-16,cs)
);
},
{
closed = 1;
nodes = (
(161,37,o),
(108,139,o),
(108,250,cs),
(108,361,o),
(161,463,o),
(272,463,cs),
(382,463,o),
(436,360,o),
(436,250,cs),
(436,140,o),
(382,37,o),
(272,37,cs)
);
},
{
closed = 1;
nodes = (
(486,0,l),
(486,500,l),
(436,500,l),
(436,0,l)
);
},
{
closed = 1;
nodes = (
(499,389,o),
(557,463,o),
(658,463,cs),
(758,463,o),
(814,388,o),
(814,288,c),
(499,288,l)
);
}
);
width = 917;
},
{
layerId = m01;
shapes = (
{
closed = 1;
nodes = (
(777,-16,o),
(863,41,o),
(884,144,c),
(806,154,l),
(790,91,o),
(737,57,o),
(672,57,cs),
(575,57,o),
(514,133,o),
(514,230,c),
(887,230,l),
(887,248,ls),
(887,410,o),
(798,516,o),
(663,516,cs),
(535,516,o),
(446,406,o),
(446,248,cs),
(446,104,o),
(528,-16,o),
(672,-16,cs)
);
},
{
closed = 1;
nodes = (
(374,-16,o),
(446,63,o),
(446,170,cs),
(446,330,ls),
(446,437,o),
(374,516,o),
(267,516,cs),
(124,516,o),
(45,393,o),
(45,250,cs),
(45,107,o),
(124,-16,o),
(267,-16,cs)
);
},
{
closed = 1;
nodes = (
(175,57,o),
(123,148,o),
(123,250,cs),
(123,352,o),
(175,443,o),
(277,443,cs),
(379,443,o),
(431,352,o),
(431,250,cs),
(431,148,o),
(379,57,o),
(277,57,cs)
);
},
{
closed = 1;
nodes = (
(501,0,l),
(501,500,l),
(431,500,l),
(431,0,l)
);
},
{
closed = 1;
nodes = (
(514,384,o),
(577,443,o),
(663,443,cs),
(748,443,o),
(809,383,o),
(809,298,c),
(514,298,l)
);
}
);
width = 927;
},
{
layerId = m005;
shapes = (
{
closed = 1;
nodes = (
(853,-16,o),
(947,51,o),
(961,147,c),
(825,157,l),
(810,119,o),
(772,97,o),
(721,97,cs),
(648,97,o),
(599,143,o),
(599,210,c),
(961,210,l),
(961,248,ls),
(961,406,o),
(863,516,o),
(722,516,cs),
(581,516,o),
(480,404,o),
(480,248,cs),
(480,89,o),
(579,-16,o),
(731,-16,cs)
);
},
{
closed = 1;
nodes = (
(372,-16,o),
(446,73,o),
(446,210,cs),
(446,290,ls),
(446,427,o),
(372,516,o),
(257,516,cs),
(126,516,o),
(35,407,o),
(35,250,cs),
(35,95,o),
(128,-16,o),
(257,-16,cs)
);
},
{
closed = 1;
nodes = (
(222,97,o),
(172,158,o),
(172,250,cs),
(172,342,o),
(222,403,o),
(296,403,cs),
(370,403,o),
(420,342,o),
(420,250,cs),
(420,158,o),
(370,97,o),
(296,97,cs)
);
},
{
closed = 1;
nodes = (
(550,0,l),
(550,500,l),
(420,500,l),
(420,0,l)
);
},
{
closed = 1;
nodes = (
(599,364,o),
(646,403,o),
(712,403,cs),
(777,403,o),
(822,365,o),
(822,308,c),
(599,308,l)
);
}
);
width = 991;
},
{
layerId = m006;
shapes = (
{
closed = 1;
nodes = (
(730,-16,o),
(806,40,o),
(851,135,c),
(794,145,l),
(761,79,o),
(700,37,o),
(639,37,cs),
(548,37,o),
(483,135,o),
(504,240,c),
(877,240,l),
(878,248,ls),
(898,406,o),
(821,516,o),
(695,516,cs),
(558,516,o),
(454,386,o),
(454,215,cs),
(454,75,o),
(528,-16,o),
(641,-16,cs)
);
},
{
closed = 1;
nodes = (
(338,-16,o),
(421,59,o),
(446,179,cs),
(466,274,ls),
(495,410,o),
(419,516,o),
(293,516,cs),
(154,516,o),
(49,382,o),
(49,205,cs),
(49,67,o),
(117,-16,o),
(230,-16,cs)
);
},
{
closed = 1;
nodes = (
(158,37,o),
(106,105,o),
(106,211,cs),
(106,352,o),
(190,463,o),
(297,463,cs),
(400,463,o),
(461,364,o),
(435,236,cs),
(412,120,o),
(331,37,o),
(240,37,cs)
);
},
{
closed = 1;
nodes = (
(440,0,l),
(537,500,l),
(487,500,l),
(390,0,l)
);
},
{
closed = 1;
nodes = (
(534,393,o),
(605,463,o),
(692,463,cs),
(780,463,o),
(837,389,o),
(828,288,c),
(513,288,l)
);
}
);
width = 924;
},
{
layerId = m004;
shapes = (
{
closed = 1;
nodes = (
(753,-16,o),
(835,42,o),
(875,144,c),
(799,154,l),
(770,92,o),
(716,57,o),
(653,57,cs),
(559,57,o),
(501,134,o),
(522,230,c),
(895,230,l),
(901,265,ls),
(926,410,o),
(842,516,o),
(710,516,cs),
(564,516,o),
(453,383,o),
(453,207,cs),
(453,67,o),
(526,-16,o),
(650,-16,cs)
);
},
{
closed = 1;
nodes = (
(342,-16,o),
(413,54,o),
(437,177,cs),
(462,307,ls),
(486,433,o),
(425,516,o),
(307,516,cs),
(160,516,o),
(44,381,o),
(44,209,cs),
(44,74,o),
(122,-16,o),
(240,-16,cs)
);
},
{
closed = 1;
nodes = (
(178,57,o),
(122,117,o),
(122,209,cs),
(122,340,o),
(202,443,o),
(304,443,cs),
(403,443,o),
(454,357,o),
(430,233,cs),
(407,119,o),
(349,57,o),
(264,57,cs)
);
},
{
closed = 1;
nodes = (
(455,0,l),
(552,500,l),
(482,500,l),
(385,0,l)
);
},
{
closed = 1;
nodes = (
(553,387,o),
(618,443,o),
(701,443,cs),
(790,443,o),
(847,379,o),
(830,298,c),
(535,298,l)
);
}
);
width = 939;
},
{
layerId = m008;
shapes = (
{
closed = 1;
nodes = (
(825,-16,o),
(916,43,o),
(952,147,c),
(817,157,l),
(793,118,o),
(754,97,o),
(708,97,cs),
(637,97,o),
(590,147,o),
(602,210,c),
(964,210,l),
(971,248,ls),
(998,392,o),
(893,516,o),
(747,516,cs),
(598,516,o),
(486,386,o),
(486,212,cs),
(486,66,o),
(565,-16,o),
(706,-16,cs)
);
},
{
closed = 1;
nodes = (
(321,-16,o),
(411,76,o),
(436,210,cs),
(451,290,ls),
(475,419,o),
(405,516,o),
(287,516,cs),
(148,516,o),
(35,380,o),
(35,214,cs),
(35,78,o),
(109,-16,o),
(215,-16,cs)
);
},
{
closed = 1;
nodes = (
(207,97,o),
(171,146,o),
(171,228,cs),
(171,329,o),
(234,403,o),
(319,403,cs),
(395,403,o),
(436,337,o),
(417,244,cs),
(401,159,o),
(339,97,o),
(269,97,cs)
);
},
{
closed = 1;
nodes = (
(495,0,l),
(592,500,l),
(467,500,l),
(370,0,l)
);
},
{
closed = 1;
nodes = (
(631,367,o),
(675,403,o),
(738,403,cs),
(807,403,o),
(855,360,o),
(844,308,c),
(621,308,l)
);
}
);
width = 1002;
}
);
metricLeft = o;
metricRight = e;
},
{
glyphname = Delta;
lastChange = "2022-12-30 09:33:56 +0000";
layers = (
{
layerId = m01;
shapes = (
{
closed = 1;
nodes = (
(678,0,l),
(445,700,l),
(343,700,l),
(100,0,l)
);
},
{
closed = 1;
nodes = (
(408,664,l),
(379,664,l),
(590,30,l),
(621,73,l),
(158,73,l),
(188,30,l)
);
}
);
width = 778;
},
{
layerId = m005;
shapes = (
{
closed = 1;
nodes = (
(724,0,l),
(477,700,l),
(347,700,l),
(90,0,l)
);
},
{
closed = 1;
nodes = (
(459,679,l),
(364,679,l),
(580,70,l),
(611,113,l),
(204,113,l),
(234,70,l)
);
}
);
width = 814;
},
{
layerId = m007;
shapes = (
{
closed = 1;
nodes = (
(655,0,l),
(419,700,l),
(351,700,l),
(105,0,l)
);
},
{
closed = 1;
nodes = (
(395,664,l),
(374,664,l),
(584,42,l),
(592,53,l),
(168,53,l),
(176,42,l)
);
}
);
width = 760;
},
{
layerId = m004;
shapes = (
{
closed = 1;
nodes = (
(629,0,l),
(532,700,l),
(430,700,l),
(51,0,l)
);
},
{
closed = 1;
nodes = (
(493,664,l),
(459,664,l),
(547,30,l),
(586,73,l),
(123,73,l),
(150,30,l)
);
}
);
width = 778;
},
{
layerId = m008;
shapes = (
{
closed = 1;
nodes = (
(665,0,l),
(554,700,l),
(424,700,l),
(31,0,l)
);
},
{
closed = 1;
nodes = (
(542,679,l),
(437,679,l),
(535,70,l),
(574,113,l),
(167,113,l),
(199,70,l)
);
}
);
width = 794;
},
{
layerId = m006;
shapes = (
{
closed = 1;
nodes = (
(606,0,l),
(506,700,l),
(438,700,l),
(56,0,l)
);
},
{
closed = 1;
nodes = (
(480,664,l),
(454,664,l),
(543,42,l),
(553,53,l),
(129,53,l),
(140,42,l)
);
}
);
width = 760;
}
);
unicode = 916;
},
{
glyphname = Omega;
lastChange = "2022-12-31 10:41:05 +0000";
layers = (
{
layerId = m01;
shapes = (
{
closed = 1;
nodes = (
(330,0,l),
(330,74,l),
(202,180,o),
(140,285,o),
(140,394,cs),
(140,537,o),
(246,643,o),
(390,643,cs),
(535,643,o),
(641,537,o),
(640,394,cs),
(639,285,o),
(576,179,o),
(450,74,c),
(450,0,l),
(740,0,l),
(740,74,l),
(520,74,l),
(520,54,l),
(646,139,o),
(718,262,o),
(718,394,cs),
(718,579,o),
(578,716,o),
(390,716,cs),
(202,716,o),
(62,579,o),
(62,394,cs),
(62,262,o),
(134,139,o),
(260,54,c),
(260,74,l),
(40,74,l),
(40,0,l)
);
}
);
width = 780;
},
{
layerId = m005;
shapes = (
{
closed = 1;
nodes = (
(350,0,l),
(350,104,l),
(252,167,o),
(190,280,o),
(190,394,cs),
(190,530,o),
(278,623,o),
(405,623,cs),
(532,623,o),
(620,530,o),
(620,394,cs),
(620,279,o),
(558,167,o),
(460,104,c),
(460,0,l),
(780,0,l),
(780,114,l),
(540,114,l),
(540,70,l),
(685,142,o),
(768,264,o),
(768,404,cs),
(768,595,o),
(613,736,o),
(405,736,cs),
(197,736,o),
(42,594,o),
(42,404,cs),
(42,264,o),
(126,142,o),
(270,70,c),
(270,114,l),
(30,114,l),
(30,0,l)
);
}
);
width = 810;
},
{
layerId = m007;
shapes = (
{
closed = 1;
nodes = (
(315,0,l),
(315,59,l),
(188,167,o),
(125,278,o),
(125,394,cs),
(125,549,o),
(236,663,o),
(385,663,cs),
(535,663,o),
(646,548,o),
(645,394,cs),
(644,278,o),
(579,164,o),
(455,59,c),
(455,0,l),
(725,0,l),
(725,54,l),
(525,54,l),
(515,43,l),
(637,139,o),
(703,264,o),
(703,394,cs),
(703,580,o),
(568,716,o),
(385,716,cs),
(202,716,o),
(67,579,o),
(67,394,cs),
(67,264,o),
(133,139,o),
(255,43,c),
(245,54,l),
(45,54,l),
(45,0,l)
);
}
);
width = 770;
},
{
layerId = m004;
shapes = (
{
closed = 1;
nodes = (
(282,0,l),
(296,74,l),
(214,156,o),
(170,255,o),
(170,355,cs),
(170,514,o),
(299,643,o),
(459,643,cs),
(583,643,o),
(667,553,o),
(667,419,cs),
(667,299,o),
(598,205,o),
(416,74,c),
(402,0,l),
(692,0,l),
(706,74,l),
(486,74,l),
(482,54,l),
(655,155,o),
(745,282,o),
(745,424,cs),
(745,599,o),
(631,716,o),
(462,716,cs),
(256,716,o),
(93,553,o),
(93,347,cs),
(93,226,o),
(148,118,o),
(242,54,c),
(236,74,l),
(6,74,l),
(-8,0,l)
);
}
);
width = 781;
},
{
layerId = m008;
shapes = (
{
closed = 1;
nodes = (
(312,0,l),
(332,104,l),
(268,149,o),
(229,239,o),
(229,343,cs),
(229,507,o),
(326,623,o),
(464,623,cs),
(579,623,o),
(656,542,o),
(656,421,cs),
(656,298,o),
(576,179,o),
(442,104,c),
(422,0,l),
(742,0,l),
(764,114,l),
(524,114,l),
(516,70,l),
(698,154,o),
(806,294,o),
(806,444,cs),
(806,617,o),
(664,736,o),
(460,736,cs),
(238,736,o),
(85,596,o),
(85,391,cs),
(85,256,o),
(152,137,o),
(266,70,c),
(254,114,l),
(14,114,l),
(-8,0,l)
);
}
);
width = 831;
},
{
layerId = m006;
shapes = (
{
closed = 1;
nodes = (
(267,0,l),
(278,59,l),
(198,140,o),
(153,246,o),
(153,353,cs),
(153,525,o),
(286,663,o),
(452,663,cs),
(581,663,o),
(669,565,o),
(669,422,cs),
(669,293,o),
(595,186,o),
(418,59,c),
(407,0,l),
(677,0,l),
(687,54,l),
(467,54,l),
(479,43,l),
(644,157,o),
(727,285,o),
(727,424,cs),
(727,598,o),
(616,716,o),
(453,716,cs),
(254,716,o),
(96,551,o),
(96,343,cs),
(96,223,o),
(147,114,o),
(237,43,c),
(247,54,l),
(7,54,l),
(-3,0,l)
);
}
);
width = 771;
}
);
unicode = 937;
},
{
glyphname = mu;
lastChange = "2022-12-30 09:33:56 +0000";
layers = (
{
layerId = m01;
shapes = (
{
closed = 1;
nodes = (
(337,-16,o),
(418,60,o),
(418,161,c),
(403,257,l),
(403,140,o),
(341,57,o),
(253,57,cs),
(188,57,o),
(150,102,o),
(150,181,cs),
(150,500,l),
(75,500,l),
(75,151,ls),
(75,45,o),
(130,-16,o),
(228,-16,cs)
);
},
{
closed = 1;
nodes = (
(150,-200,l),
(150,500,l),
(75,500,l),
(75,-200,l)
);
},
{
closed = 1;
nodes = (
(478,0,l),
(478,500,l),
(403,500,l),
(403,0,l)
);
}
);
width = 553;
},
{
layerId = m005;
shapes = (
{
closed = 1;
nodes = (
(338,-16,o),
(419,82,o),
(419,207,c),
(393,257,l),
(393,176,o),
(359,97,o),
(282,97,cs),
(224,97,o),
(200,143,o),
(200,197,cs),
(200,500,l),
(65,500,l),
(65,181,ls),
(65,76,o),
(108,-16,o),
(221,-16,cs)
);
},
{
closed = 1;
nodes = (
(200,-200,l),
(200,500,l),
(65,500,l),
(65,-200,l)
);
},
{
closed = 1;
nodes = (
(528,0,l),
(528,500,l),
(393,500,l),
(393,0,l)
);
}
);
width = 593;
},
{
layerId = m007;
shapes = (
{
closed = 1;
nodes = (
(342,-16,o),
(428,65,o),
(428,181,c),
(408,257,l),
(408,144,o),
(353,37,o),
(248,37,cs),
(160,37,o),
(135,111,o),
(135,191,cs),
(135,500,l),
(80,500,l),
(80,161,ls),
(80,63,o),
(128,-16,o),
(234,-16,cs)
);
},
{
closed = 1;
nodes = (
(135,-200,l),
(135,500,l),
(80,500,l),
(80,-200,l)
);
},
{
closed = 1;
nodes = (
(463,0,l),
(463,500,l),
(408,500,l),
(408,0,l)
);
}
);
width = 543;
},
{
layerId = m004;
shapes = (
{
closed = 1;
nodes = (
(299,-16,o),
(385,59,o),
(399,161,c),
(405,257,l),
(383,140,o),
(305,57,o),
(216,57,cs),
(148,57,o),
(122,106,o),
(141,200,cs),
(199,500,l),
(124,500,l),
(62,182,ls),
(39,62,o),
(92,-16,o),
(196,-16,cs)
);
},
{
closed = 1;
nodes = (
(64,-200,l),
(199,500,l),
(124,500,l),
(-12,-200,l)
);
},
{
closed = 1;
nodes = (
(430,0,l),
(527,500,l),
(452,500,l),
(355,0,l)
);
}
);
width = 554;
},
{
layerId = m008;
shapes = (
{
closed = 1;
nodes = (
(319,-16,o),
(388,87,o),
(411,207,c),
(395,257,l),
(379,173,o),
(330,97,o),
(253,97,cs),
(192,97,o),
(180,145,o),
(190,197,cs),
(249,500,l),
(114,500,l),
(52,181,ls),
(31,74,o),
(88,-16,o),
(200,-16,cs)
);
},
{
closed = 1;
nodes = (
(113,-200,l),
(249,500,l),
(114,500,l),
(-22,-200,l)
);
},
{
closed = 1;
nodes = (
(480,0,l),
(577,500,l),
(442,500,l),
(345,0,l)
);
}
);
width = 594;
},
{
layerId = m006;
shapes = (
{
closed = 1;
nodes = (
(297,-16,o),
(392,62,o),
(415,181,c),
(410,257,l),
(382,118,o),
(298,37,o),
(207,37,cs),
(128,37,o),
(106,97,o),
(124,191,cs),
(184,500,l),
(129,500,l),
(63,161,ls),
(43,59,o),
(91,-16,o),
(193,-16,cs)
);
},
{
closed = 1;
nodes = (
(48,-200,l),
(184,500,l),
(129,500,l),
(-7,-200,l)
);
},
{
closed = 1;
nodes = (
(415,0,l),
(512,500,l),
(457,500,l),
(360,0,l)
);
}
);
width = 544;
}
);
metricLeft = m;
metricRight = u;
unicode = 956;
},
{
glyphname = pi;
lastChange = "2022-12-30 15:21:24 +0000";
layers = (
{
layerId = m01;
shapes = (
{
closed = 1;
nodes = (
(615,0,l),
(615,73,l),
(575,73,ls),
(537,73,o),
(515,95,o),
(515,133,cs),
(515,500,l),
(440,500,l),
(440,140,ls),
(440,52,o),
(492,0,o),
(580,0,cs)
);
},
{
closed = 1;
nodes = (
(250,0,l),
(250,500,l),
(175,500,l),
(175,0,l)
);
},
{
closed = 1;
nodes = (
(615,437,l),
(615,500,l),
(75,500,l),
(75,437,l)
);
}
);
width = 690;
},
{
layerId = m005;
shapes = (
{
closed = 1;
nodes = (
(675,0,l),
(675,113,l),
(635,113,ls),
(597,113,o),
(575,135,o),
(575,173,cs),
(575,500,l),
(440,500,l),
(440,160,ls),
(440,60,o),
(503,0,o),
(610,0,cs)
);
},
{
closed = 1;
nodes = (
(300,0,l),
(300,500,l),
(165,500,l),
(165,0,l)
);
},
{
closed = 1;
nodes = (
(675,397,l),
(675,500,l),
(65,500,l),
(65,397,l)
);
}
);
width = 740;
},
{
layerId = m007;
shapes = (
{
closed = 1;
nodes = (
(600,0,l),
(600,53,l),
(570,53,ls),
(526,53,o),
(500,79,o),
(500,123,cs),
(500,500,l),
(445,500,l),
(445,123,ls),
(445,46,o),
(492,0,o),
(570,0,cs)
);
},
{
closed = 1;
nodes = (
(235,0,l),
(235,500,l),
(180,500,l),
(180,0,l)
);
},
{
closed = 1;
nodes = (
(600,447,l),
(600,500,l),
(80,500,l),
(80,447,l)
);
}
);
width = 680;
},
{
layerId = m004;
shapes = (
{
closed = 1;
nodes = (
(567,0,l),
(581,73,l),
(541,73,ls),
(507,73,o),
(486,99,o),
(493,133,cs),
(564,500,l),
(489,500,l),
(419,140,ls),
(404,61,o),
(453,0,o),
(531,0,cs)
);
},
{
closed = 1;
nodes = (
(202,0,l),
(299,500,l),
(224,500,l),
(127,0,l)
);
},
{
closed = 1;
nodes = (
(652,437,l),
(664,500,l),
(124,500,l),
(112,437,l)
);
}
);
width = 691;
},
{
layerId = m008;
shapes = (
{
closed = 1;
nodes = (
(627,0,l),
(649,113,l),
(609,113,ls),
(575,113,o),
(554,139,o),
(561,173,cs),
(624,500,l),
(489,500,l),
(423,160,ls),
(405,69,o),
(465,0,o),
(562,0,cs)
);
},
{
closed = 1;
nodes = (
(252,0,l),
(349,500,l),
(214,500,l),
(117,0,l)
);
},
{
closed = 1;
nodes = (
(704,397,l),
(724,500,l),
(114,500,l),
(94,397,l)
);
}
);
width = 741;
},
{
layerId = m006;
shapes = (
{
closed = 1;
nodes = (
(552,0,l),
(562,53,l),
(532,53,ls),
(492,53,o),
(468,84,o),
(476,123,cs),
(549,500,l),
(494,500,l),
(422,130,ls),
(408,56,o),
(449,0,o),
(517,0,cs)
);
},
{
closed = 1;
nodes = (
(187,0,l),
(284,500,l),
(229,500,l),
(132,0,l)
);
},
{
closed = 1;
nodes = (
(639,447,l),
(649,500,l),
(129,500,l),
(119,447,l)
);
}
);
width = 681;
}
);
metricLeft = m;
metricRight = q;
unicode = 960;
},
{
glyphname = zero;
kernLeft = zero;
kernRight = zero;
lastChange = "2022-12-31 10:30:37 +0000";
layers = (
{
layerId = m01;
shapes = (
{
closed = 1;
nodes = (
(500,-16,o),
(606,126,o),
(606,350,cs),
(606,574,o),
(500,716,o),
(333,716,cs),
(166,716,o),
(60,574,o),
(60,350,cs),
(60,126,o),
(166,-16,o),
(333,-16,cs)
);
},
{
closed = 1;
nodes = (
(213,57,o),
(138,170,o),
(138,350,cs),
(138,530,o),
(213,643,o),
(333,643,cs),
(453,643,o),
(528,530,o),
(528,350,cs),
(528,170,o),
(453,57,o),
(333,57,cs)
);
}
);
width = 666;
},
{
layerId = m005;
shapes = (
{
closed = 1;
nodes = (
(551,-16,o),
(666,121,o),
(666,350,cs),
(666,579,o),
(551,716,o),
(358,716,cs),
(165,716,o),
(50,579,o),
(50,350,cs),
(50,121,o),
(165,-16,o),
(358,-16,cs)
);
},
{
closed = 1;
nodes = (
(259,97,o),
(198,193,o),
(198,350,cs),
(198,507,o),
(259,603,o),
(358,603,cs),
(457,603,o),
(518,507,o),
(518,350,cs),
(518,193,o),
(457,97,o),
(358,97,cs)
);
}
);
width = 716;
},
{
layerId = m007;
shapes = (
{
closed = 1;
nodes = (
(492,-16,o),
(591,122,o),
(591,350,cs),
(591,578,o),
(492,716,o),
(328,716,cs),
(164,716,o),
(65,578,o),
(65,350,cs),
(65,122,o),
(164,-16,o),
(328,-16,cs)
);
},
{
closed = 1;
nodes = (
(197,37,o),
(123,150,o),
(123,350,cs),
(123,550,o),
(197,663,o),
(328,663,cs),
(459,663,o),
(533,550,o),
(533,350,cs),
(533,150,o),
(459,37,o),
(328,37,cs)
);
}
);
width = 656;
},
{
layerId = m004;
shapes = (
{
closed = 1;
nodes = (
(488,-16,o),
(623,166,o),
(623,407,cs),
(623,604,o),
(539,716,o),
(393,716,cs),
(215,716,o),
(79,531,o),
(79,291,cs),
(79,99,o),
(165,-16,o),
(309,-16,cs)
);
},
{
closed = 1;
nodes = (
(209,57,o),
(154,139,o),
(154,291,cs),
(154,488,o),
(259,643,o),
(393,643,cs),
(496,643,o),
(548,566,o),
(548,413,cs),
(548,204,o),
(451,57,o),
(313,57,cs)
);
}
);
width = 664;
},
{
layerId = m008;
shapes = (
{
closed = 1;
nodes = (
(521,-16,o),
(672,166,o),
(672,414,cs),
(672,608,o),
(584,716,o),
(425,716,cs),
(218,716,o),
(68,536,o),
(68,288,cs),
(68,94,o),
(158,-16,o),
(316,-16,cs)
);
},
{
closed = 1;
nodes = (
(250,97,o),
(212,155,o),
(212,277,cs),
(212,463,o),
(300,603,o),
(417,603,cs),
(492,603,o),
(528,543,o),
(528,416,cs),
(528,225,o),
(448,97,o),
(330,97,cs)
);
}
);
width = 701;
},
{
layerId = m006;
shapes = (
{
closed = 1;
nodes = (
(459,-16,o),
(595,183,o),
(595,453,cs),
(595,629,o),
(530,716,o),
(398,716,cs),
(218,716,o),
(77,508,o),
(77,243,cs),
(77,74,o),
(146,-16,o),
(274,-16,cs)
);
},
{
closed = 1;
nodes = (
(180,37,o),
(134,107,o),
(134,258,cs),
(134,483,o),
(249,663,o),
(393,663,cs),
(493,663,o),
(538,594,o),
(538,439,cs),
(538,202,o),
(432,37,o),
(279,37,cs)
);
}
);
width = 635;
}
);
unicode = 48;
},
{
glyphname = one;
kernLeft = one;
kernRight = one;
lastChange = "2022-12-30 11:54:05 +0000";
layers = (
{
layerId = m01;
shapes = (
{
closed = 1;
nodes = (
(338,43,l),
(338,700,l),
(260,700,l),
(260,577,o),
(202,500,o),
(109,500,cs),
(80,500,l),
(80,427,l),
(109,427,ls),
(203,427,o),
(267,481,o),
(267,560,c),
(260,560,l),
(260,43,l)
);
},
{
closed = 1;
nodes = (
(518,0,l),
(518,73,l),
(80,73,l),
(80,0,l)
);
}
);
width = 548;
},
{
layerId = m005;
shapes = (
{
closed = 1;
nodes = (
(398,0,l),
(398,700,l),
(250,700,l),
(250,568,o),
(211,500,o),
(134,500,cs),
(70,500,l),
(70,387,l),
(134,387,ls),
(220,387,o),
(267,459,o),
(267,590,c),
(250,590,l),
(250,0,l)
);
},
{
closed = 1;
nodes = (
(578,0,l),
(578,113,l),
(70,113,l),
(70,0,l)
);
}
);
width = 598;
},
{
layerId = m007;
shapes = (
{
closed = 1;
nodes = (
(323,33,l),
(323,700,l),
(265,700,l),
(265,579,o),
(205,500,o),
(114,500,cs),
(85,500,l),
(85,447,l),
(114,447,ls),
(206,447,o),
(272,519,o),
(272,620,c),
(265,600,l),
(265,33,l)
);
},
{
closed = 1;
nodes = (
(503,0,l),
(503,53,l),
(85,53,l),
(85,0,l)
);
}
);
width = 538;
},
{
layerId = m004;
shapes = (
{
closed = 1;
nodes = (
(298,43,l),
(426,700,l),
(348,700,l),
(327,593,o),
(267,500,o),
(158,500,cs),
(129,500,l),
(115,427,l),
(144,427,ls),
(233,427,o),
(310,473,o),
(328,560,c),
(321,560,l),
(220,43,l)
);
},
{
closed = 1;
nodes = (
(470,0,l),
(484,73,l),
(46,73,l),
(32,0,l)
);
}
);
width = 549;
},
{
layerId = m008;
shapes = (
{
closed = 1;
nodes = (
(350,0,l),
(486,700,l),
(338,700,l),
(312,566,o),
(261,500,o),
(183,500,cs),
(119,500,l),
(97,387,l),
(161,387,ls),
(249,387,o),
(307,455,o),
(334,590,c),
(317,590,l),
(202,0,l)
);
},
{
closed = 1;
nodes = (
(530,0,l),
(552,113,l),
(44,113,l),
(22,0,l)
);
}
);
width = 599;
},
{
layerId = m006;
shapes = (
{
closed = 1;
nodes = (
(281,33,l),
(411,700,l),
(353,700,l),
(332,594,o),
(271,500,o),
(163,500,cs),
(134,500,l),
(124,447,l),
(153,447,ls),
(255,447,o),
(325,520,o),
(344,620,c),
(334,600,l),
(223,33,l)
);
},
{
closed = 1;
nodes = (
(455,0,l),
(465,53,l),
(47,53,l),
(37,0,l)
);
}
);
width = 539;
}
);
unicode = 49;
},
{
glyphname = two;
kernLeft = two;
kernRight = two;
lastChange = "2022-12-31 10:41:17 +0000";
layers = (
{
layerId = m01;
shapes = (
{
closed = 1;
nodes = (
(541,0,l),
(541,73,l),
(132,73,l),
(162,56,l),
(381,161,o),
(525,337,o),
(525,499,cs),
(525,629,o),
(436,716,o),
(302,716,cs),
(163,716,o),
(60,624,o),
(60,500,c),
(138,490,l),
(138,578,o),
(208,643,o),
(301,643,cs),
(389,643,o),
(447,582,o),
(447,488,cs),
(447,346,o),
(313,201,o),
(61,73,c),
(61,0,l)
);
}
);
width = 601;
},
{
layerId = m005;
shapes = (
{
closed = 1;
nodes = (
(601,0,l),
(601,113,l),
(174,113,l),
(174,64,l),
(450,179,o),
(585,314,o),
(585,472,cs),
(585,616,o),
(476,716,o),
(319,716,cs),
(164,716,o),
(50,620,o),
(50,490,c),
(198,480,l),
(198,549,o),
(252,603,o),
(323,603,cs),
(396,603,o),
(437,554,o),
(437,468,cs),
(437,353,o),
(358,280,o),
(51,113,c),
(51,0,l)
);
}
);
width = 651;
},
{
layerId = m007;
shapes = (
{
closed = 1;
nodes = (
(525,0,l),
(525,53,l),
(123,53,l),
(153,48,l),
(373,166,o),
(509,338,o),
(509,498,cs),
(509,628,o),
(423,716,o),
(294,716,cs),
(164,716,o),
(65,627,o),
(65,510,c),
(123,501,l),
(123,594,o),
(197,663,o),
(295,663,cs),
(389,663,o),
(451,596,o),
(451,495,cs),
(451,343,o),
(311,183,o),
(65,53,c),
(65,0,l)
);
}
);
width = 590;
},
{
layerId = m004;
shapes = (
{
closed = 1;
nodes = (
(493,0,l),
(507,73,l),
(98,73,l),
(125,56,l),
(414,185,o),
(564,341,o),
(564,509,cs),
(564,633,o),
(481,716,o),
(358,716,cs),
(232,716,o),
(133,631,o),
(109,500,c),
(185,490,l),
(205,582,o),
(275,643,o),
(364,643,cs),
(442,643,o),
(487,594,o),
(487,508,cs),
(487,362,o),
(360,243,o),
(27,73,c),
(13,0,l)
);
}
);
width = 602;
},
{
layerId = m008;
shapes = (
{
closed = 1;
nodes = (
(553,0,l),
(575,113,l),
(148,113,l),
(128,64,l),
(470,188,o),
(625,321,o),
(625,490,cs),
(625,624,o),
(525,716,o),
(379,716,cs),
(235,716,o),
(122,626,o),
(97,490,c),
(243,480,l),
(257,553,o),
(310,603,o),
(374,603,cs),
(441,603,o),
(478,563,o),
(478,490,cs),
(478,371,o),
(375,285,o),
(25,113,c),
(3,0,l)
);
}
);
width = 652;
},
{
layerId = m006;
shapes = (
{
closed = 1;
nodes = (
(487,0,l),
(497,53,l),
(95,53,l),
(129,48,l),
(406,181,o),
(559,348,o),
(559,517,cs),
(559,638,o),
(483,716,o),
(365,716,cs),
(242,716,o),
(141,632,o),
(116,510,c),
(172,501,l),
(190,594,o),
(273,663,o),
(366,663,cs),
(453,663,o),
(502,611,o),
(502,518,cs),
(502,364,o),
(364,226,o),
(37,53,c),
(27,0,l)
);
}
);
width = 601;
}
);
unicode = 50;
},
{
glyphname = three;
kernLeft = three;
kernRight = three;
lastChange = "2022-12-31 10:41:29 +0000";
layers = (
{
layerId = m01;
shapes = (
{
closed = 1;
nodes = (
(450,-16,o),
(554,70,o),
(554,191,cs),
(554,297,o),
(472,374,o),
(357,374,c),
(357,354,l),
(456,354,o),
(528,427,o),
(528,526,cs),
(528,638,o),
(434,716,o),
(299,716,cs),
(170,716,o),
(78,644,o),
(74,539,c),
(152,529,l),
(156,597,o),
(216,643,o),
(300,643,cs),
(389,643,o),
(452,592,o),
(452,521,cs),
(452,449,o),
(387,400,o),
(292,400,cs),
(222,400,l),
(222,327,l),
(292,327,ls),
(402,327,o),
(476,273,o),
(476,192,cs),
(476,114,o),
(404,57,o),
(304,57,cs),
(201,57,o),
(128,118,o),
(128,204,c),
(50,194,l),
(50,71,o),
(155,-16,o),
(303,-16,cs)
);
}
);
width = 614;
},
{
layerId = m005;
shapes = (
{
closed = 1;
nodes = (
(499,-16,o),
(616,69,o),
(616,189,cs),
(616,303,o),
(514,380,o),
(363,380,c),
(363,347,l),
(497,347,o),
(590,420,o),
(590,525,cs),
(590,638,o),
(484,716,o),
(330,716,cs),
(172,716,o),
(64,632,o),
(64,510,c),
(212,500,l),
(212,561,o),
(260,603,o),
(329,603,cs),
(396,603,o),
(444,565,o),
(444,512,cs),
(444,459,o),
(395,421,o),
(327,421,cs),
(252,421,l),
(252,308,l),
(327,308,ls),
(411,308,o),
(468,266,o),
(468,203,cs),
(468,142,o),
(411,97,o),
(332,97,cs),
(246,97,o),
(188,150,o),
(188,229,c),
(40,219,l),
(40,80,o),
(160,-16,o),
(334,-16,cs)
);
}
);
width = 666;
},
{
layerId = m007;
shapes = (
{
closed = 1;
nodes = (
(441,-16,o),
(541,68,o),
(541,188,cs),
(541,292,o),
(466,368,o),
(364,368,c),
(364,360,l),
(452,360,o),
(517,431,o),
(517,526,cs),
(517,637,o),
(427,716,o),
(299,716,cs),
(181,716,o),
(94,649,o),
(82,550,c),
(140,540,l),
(149,613,o),
(214,663,o),
(300,663,cs),
(392,663,o),
(459,606,o),
(459,527,cs),
(459,447,o),
(389,391,o),
(289,391,cs),
(229,391,l),
(229,338,l),
(289,338,ls),
(404,338,o),
(483,278,o),
(483,189,cs),
(483,102,o),
(407,39,o),
(301,39,cs),
(196,39,o),
(120,102,o),
(113,193,c),
(55,183,l),
(55,66,o),
(155,-16,o),
(297,-16,cs)
);
}
);
width = 606;
},
{
layerId = m004;
shapes = (
{
closed = 1;
nodes = (
(426,-16,o),
(540,77,o),
(540,199,cs),
(540,302,o),
(466,374,o),
(361,374,c),
(367,354,l),
(491,354,o),
(579,431,o),
(579,538,cs),
(579,645,o),
(500,716,o),
(381,716,cs),
(258,716,o),
(153,642,o),
(130,539,c),
(206,529,l),
(224,597,o),
(291,643,o),
(373,643,cs),
(452,643,o),
(503,600,o),
(503,533,cs),
(503,454,o),
(430,400,o),
(321,400,cs),
(251,400,l),
(237,327,l),
(297,327,ls),
(397,327,o),
(463,277,o),
(463,201,cs),
(463,120,o),
(384,57,o),
(284,57,cs),
(188,57,o),
(122,116,o),
(119,204,c),
(39,194,l),
(43,67,o),
(137,-16,o),
(277,-16,cs)
);
}
);
width = 614;
},
{
layerId = m008;
shapes = (
{
closed = 1;
nodes = (
(476,-16,o),
(602,78,o),
(602,202,cs),
(602,308,o),
(516,380,o),
(388,380,c),
(391,347,l),
(542,347,o),
(641,418,o),
(641,526,cs),
(641,635,o),
(533,716,o),
(387,716,cs),
(243,716,o),
(139,637,o),
(114,510,c),
(260,500,l),
(272,564,o),
(319,603,o),
(383,603,cs),
(448,603,o),
(494,569,o),
(494,520,cs),
(494,463,o),
(437,421,o),
(360,421,cs),
(285,421,l),
(263,308,l),
(338,308,ls),
(415,308,o),
(459,276,o),
(459,220,cs),
(459,153,o),
(393,97,o),
(316,97,cs),
(242,97,o),
(190,149,o),
(183,229,c),
(34,219,l),
(37,78,o),
(148,-16,o),
(311,-16,cs)
);
}
);
width = 665;
},
{
layerId = m006;
shapes = (
{
closed = 1;
nodes = (
(422,-16,o),
(525,72,o),
(525,194,cs),
(525,293,o),
(464,366,o),
(381,366,c),
(400,362,l),
(488,362,o),
(570,453,o),
(570,552,cs),
(570,649,o),
(490,716,o),
(376,716,cs),
(264,716,o),
(171,651,o),
(140,550,c),
(196,540,l),
(220,613,o),
(293,663,o),
(376,663,cs),
(458,663,o),
(512,616,o),
(512,544,cs),
(512,455,o),
(430,391,o),
(316,391,cs),
(256,391,l),
(246,338,l),
(316,338,ls),
(407,338,o),
(470,281,o),
(470,199,cs),
(470,108,o),
(388,39,o),
(279,39,cs),
(178,39,o),
(107,100,o),
(101,193,c),
(42,183,l),
(52,63,o),
(146,-16,o),
(279,-16,cs)
);
}
);
width = 605;
}
);
unicode = 51;
},
{
glyphname = four;
kernLeft = four;
kernRight = four;
lastChange = "2022-12-30 11:57:09 +0000";
layers = (
{
layerId = m01;
shapes = (
{
closed = 1;
nodes = (
(664,193,l),
(664,266,l),
(92,266,l),
(66,216,l),
(243,308,o),
(316,450,o),
(316,700,c),
(238,700,l),
(238,484,o),
(180,357,o),
(40,266,c),
(40,193,l)
);
},
{
closed = 1;
nodes = (
(544,0,l),
(544,700,l),
(466,700,l),
(466,0,l)
);
}
);
width = 709;
},
{
layerId = m005;
shapes = (
{
closed = 1;
nodes = (
(714,173,l),
(714,286,l),
(90,286,l),
(73,209,l),
(278,304,o),
(366,451,o),
(366,700,c),
(228,700,l),
(228,466,o),
(181,368,o),
(30,286,c),
(30,173,l)
);
},
{
closed = 1;
nodes = (
(594,0,l),
(594,700,l),
(456,700,l),
(456,0,l)
);
}
);
width = 749;
},
{
layerId = m007;
shapes = (
{
closed = 1;
nodes = (
(649,203,l),
(649,256,l),
(94,256,l),
(83,231,l),
(241,331,o),
(301,460,o),
(301,700,c),
(243,700,l),
(243,473,o),
(190,355,o),
(45,256,c),
(45,203,l)
);
},
{
closed = 1;
nodes = (
(529,0,l),
(529,700,l),
(471,700,l),
(471,0,l)
);
}
);
width = 699;
},
{
layerId = m004;
shapes = (
{
closed = 1;
nodes = (
(653,193,l),
(668,266,l),
(96,266,l),
(60,216,l),
(255,308,o),
(363,489,o),
(404,700,c),
(326,700,l),
(291,518,o),
(205,358,o),
(44,266,c),
(29,193,l)
);
},
{
closed = 1;
nodes = (
(496,0,l),
(632,700,l),
(554,700,l),
(418,0,l)
);
}
);
width = 710;
},
{
layerId = m008;
shapes = (
{
closed = 1;
nodes = (
(699,173,l),
(721,286,l),
(97,286,l),
(65,229,l),
(267,287,o),
(406,456,o),
(453,700,c),
(315,700,l),
(276,499,o),
(181,357,o),
(37,286,c),
(15,173,l)
);
},
{
closed = 1;
nodes = (
(545,0,l),
(681,700,l),
(543,700,l),
(407,0,l)
);
}
);
width = 749;
},
{
layerId = m006;
shapes = (
{
closed = 1;
nodes = (
(640,203,l),
(651,256,l),
(96,256,l),
(80,231,l),
(255,329,o),
(351,503,o),
(389,700,c),
(331,700,l),
(295,516,o),
(208,353,o),
(47,256,c),
(36,203,l)
);
},
{
closed = 1;
nodes = (
(481,0,l),
(617,700,l),
(559,700,l),
(423,0,l)
);
}
);
width = 700;
}
);
unicode = 52;
},
{
glyphname = five;
kernLeft = five;
kernRight = five;
lastChange = "2022-12-31 10:19:19 +0000";
layers = (
{
layerId = m01;
shapes = (
{
closed = 1;
nodes = (
(438,-16,o),
(548,95,o),
(548,234,cs),
(548,369,o),
(442,478,o),
(312,478,cs),
(229,478,o),
(152,433,o),
(141,378,c),
(152,378,l),
(170,627,l),
(495,627,l),
(495,700,l),
(101,700,l),
(71,312,l),
(149,312,l),
(172,365,o),
(235,409,o),
(311,409,cs),
(399,409,o),
(470,331,o),
(470,234,cs),
(470,135,o),
(395,56,o),
(299,56,cs),
(211,56,o),
(138,123,o),
(138,204,c),
(60,194,l),
(60,80,o),
(168,-16,o),
(298,-16,cs)
);
}
);
width = 598;
},
{
layerId = m005;
shapes = (
{
closed = 1;
nodes = (
(482,-16,o),
(607,92,o),
(607,231,cs),
(607,363,o),
(496,468,o),
(356,468,cs),
(242,468,o),
(130,399,o),
(113,318,c),
(203,338,l),
(221,587,l),
(554,587,l),
(554,700,l),
(92,700,l),
(58,302,l),
(200,302,l),
(221,333,o),
(278,359,o),
(327,359,cs),
(400,359,o),
(459,301,o),
(459,228,cs),
(459,155,o),
(399,96,o),
(325,96,cs),
(256,96,o),
(199,147,o),
(199,209,c),
(50,199,l),
(50,81,o),
(173,-16,o),
(323,-16,cs)
);
}
);
width = 647;
},
{
layerId = m007;
shapes = (
{
closed = 1;
nodes = (
(427,-16,o),
(533,92,o),
(533,228,cs),
(533,361,o),
(431,468,o),
(305,468,cs),
(219,468,o),
(136,419,o),
(119,358,c),
(135,353,l),
(156,647,l),
(480,647,l),
(480,700,l),
(105,700,l),
(77,322,l),
(138,322,l),
(165,376,o),
(240,419,o),
(307,419,cs),
(400,419,o),
(475,334,o),
(475,229,cs),
(475,121,o),
(395,36,o),
(293,36,cs),
(200,36,o),
(123,107,o),
(123,193,c),
(65,183,l),
(65,74,o),
(168,-16,o),
(292,-16,cs)
);
}
);
width = 598;
},
{
layerId = m004;
shapes = (
{
closed = 1;
nodes = (
(433,-16,o),
(543,94,o),
(543,248,cs),
(543,388,o),
(466,478,o),
(347,478,cs),
(264,478,o),
(189,437,o),
(165,378,c),
(176,378,l),
(243,627,l),
(568,627,l),
(582,700,l),
(188,700,l),
(83,312,l),
(161,312,l),
(192,368,o),
(268,409,o),
(340,409,cs),
(419,409,o),
(466,352,o),
(466,257,cs),
(466,140,o),
(389,56,o),
(283,56,cs),
(195,56,o),
(132,116,o),
(129,204,c),
(49,194,l),
(46,72,o),
(143,-16,o),
(280,-16,cs)
);
}
);
width = 604;
},
{
layerId = m008;
shapes = (
{
closed = 1;
nodes = (
(477,-16,o),
(599,93,o),
(599,245,cs),
(599,379,o),
(510,468,o),
(374,468,cs),
(260,468,o),
(161,408,o),
(126,318,c),
(220,338,l),
(286,587,l),
(619,587,l),
(641,700,l),
(179,700,l),
(68,302,l),
(210,302,l),
(242,337,o),
(291,359,o),
(337,359,cs),
(406,359,o),
(452,309,o),
(452,236,cs),
(452,157,o),
(391,96,o),
(313,96,cs),
(247,96,o),
(200,140,o),
(191,209,c),
(40,199,l),
(40,73,o),
(150,-16,o),
(306,-16,cs)
);
}
);
width = 645;
},
{
layerId = m006;
shapes = (
{
closed = 1;
nodes = (
(417,-16,o),
(527,98,o),
(527,251,cs),
(527,385,o),
(457,468,o),
(343,468,cs),
(261,468,o),
(179,427,o),
(141,368,c),
(155,353,l),
(233,647,l),
(557,647,l),
(567,700,l),
(192,700,l),
(91,322,l),
(152,322,l),
(190,379,o),
(268,419,o),
(338,419,cs),
(420,419,o),
(470,357,o),
(470,255,cs),
(470,131,o),
(383,36,o),
(270,36,cs),
(183,36,o),
(125,94,o),
(111,193,c),
(52,183,l),
(55,67,o),
(145,-16,o),
(270,-16,cs)
);
}
);
width = 598;
}
);
unicode = 53;
},
